<svg width="46" height="49" viewBox="0 0 46 49" fill="none" xmlns="http://www.w3.org/2000/svg">
<path d="M44.547 28.4591C44.1258 27.756 42.3979 25.6675 37.8472 28.3178L29.8587 32.9707C29.4794 33.1916 29.0939 33.3508 28.6928 33.4498C28.8362 33.2083 28.9496 32.938 29.0291 32.641C29.441 31.1038 28.5277 29.4988 26.9499 28.9873C26.9185 28.9772 26.8863 28.9691 26.8538 28.9632C24.5601 28.5495 22.2952 27.7306 20.4754 27.0727C19.8426 26.8439 19.2449 26.6278 18.7365 26.463C16.6815 25.7961 14.8265 26.6201 13.2829 27.514L7.36203 30.9421L6.81435 29.9744C6.56364 29.5315 6.1543 29.2122 5.66151 29.0757C5.16882 28.9392 4.65354 29.0019 4.2106 29.2528L1.9691 30.5212C1.05238 31.0402 0.728595 32.2082 1.24745 33.125L7.83701 44.7683C8.18806 45.3886 8.83635 45.7375 9.50292 45.7375C9.82147 45.7375 10.1443 45.6578 10.4408 45.49L12.6822 44.2215C13.1251 43.9709 13.4443 43.5614 13.5809 43.0687C13.7175 42.576 13.6546 42.0608 13.4039 41.6177L12.737 40.4393L14.0606 39.6751L24.282 42.4139C24.8623 42.5693 25.4317 42.647 25.989 42.647C27.1 42.647 28.1624 42.3383 29.1621 41.7229L43.6592 32.7962C44.9917 31.9756 45.415 29.9084 44.547 28.4591ZM12.1653 42.6764C12.1336 42.7909 12.0601 42.8858 11.9586 42.9432L9.71728 44.2117C9.5088 44.3298 9.23312 44.2532 9.11515 44.0449L2.5256 32.4016C2.40763 32.1932 2.4841 31.9175 2.6924 31.7994L4.93381 30.531C4.9999 30.4937 5.07335 30.4747 5.14816 30.4747C5.18837 30.4747 5.22895 30.4802 5.26897 30.4913C5.38354 30.523 5.47828 30.5965 5.53575 30.6979V30.698L12.1254 42.3413C12.1829 42.4428 12.197 42.5618 12.1653 42.6764ZM42.8888 31.5454L28.3918 40.4721C27.2483 41.1762 25.9937 41.3521 24.6621 40.9951L14.1468 38.1777C13.9587 38.1272 13.7583 38.1535 13.5896 38.251L12.0134 39.1609L8.08533 32.2204L14.0188 28.7852C15.3459 28.0168 16.7811 27.3731 18.2832 27.8602C18.7685 28.0176 19.328 28.2198 19.9759 28.4541C21.8339 29.1258 24.143 29.9607 26.5397 30.3991C27.3606 30.6869 27.8196 31.4797 27.6103 32.2609C27.3349 33.2887 26.4774 33.4171 25.7942 33.3388C24.6186 33.097 23.5009 32.7781 22.3184 32.4404C21.7573 32.2802 21.1771 32.1145 20.5807 31.9547C20.1893 31.8498 19.7863 32.0823 19.6812 32.474C19.5762 32.8658 19.8088 33.2684 20.2006 33.3735C20.7853 33.5302 21.3596 33.6941 21.915 33.8527C23.135 34.2012 24.2872 34.5302 25.5284 34.7841C25.5333 34.7851 25.5381 34.7854 25.5428 34.7863C25.5479 34.7872 25.5526 34.7887 25.5577 34.7895L26.5511 34.951C28.0427 35.1896 29.3665 34.957 30.5979 34.2401L38.5864 29.5872C40.8723 28.2557 42.6296 28.1164 43.2869 29.214C43.739 29.9688 43.5382 31.1455 42.8888 31.5454ZM5.57155 32.7576C5.63544 33.1949 5.33277 33.6012 4.89544 33.6651C4.4581 33.7291 4.05179 33.4264 3.98789 32.9891C3.92391 32.5517 4.22667 32.1454 4.66391 32.0815C5.10125 32.0176 5.50766 32.3202 5.57155 32.7576ZM20.4825 9.79165L21.1572 11.311C20.7339 12.0589 20.4048 12.8528 20.1752 13.6796L18.6248 14.2764C18.3413 14.3855 18.1542 14.6579 18.1542 14.9618V18.0705C18.1542 18.3744 18.3413 18.6468 18.6248 18.7559L20.1749 19.3525C20.4044 20.1796 20.7336 20.9736 21.1569 21.7217L20.4823 23.2407C20.3589 23.5183 20.4193 23.8431 20.6341 24.0581L22.8325 26.2562C23.0473 26.471 23.3723 26.5313 23.6499 26.4081L25.1695 25.7331C25.9176 26.1565 26.7113 26.4855 27.5378 26.715L28.1345 28.2657C28.2436 28.5491 28.5161 28.7362 28.8199 28.7362H31.9288C32.2326 28.7362 32.505 28.5491 32.6142 28.2657L33.2108 26.7156C34.0378 26.4861 34.8319 26.1569 35.58 25.7334L37.0988 26.4081C37.3764 26.5314 37.7013 26.471 37.9162 26.2562L40.1145 24.058C40.3293 23.8431 40.3897 23.5182 40.2664 23.2406L39.5915 21.721C40.0149 20.973 40.3439 20.1792 40.5734 19.3527L42.124 18.7558C42.4075 18.6468 42.5946 18.3743 42.5946 18.0704V14.9617C42.5946 14.6578 42.4075 14.3855 42.124 14.2763L40.5739 13.6797C40.3444 12.8527 40.0153 12.0587 39.5918 11.3105L40.2665 9.79156C40.3898 9.51395 40.3295 9.18898 40.1146 8.97416L37.9162 6.77599C37.7014 6.56118 37.3764 6.50105 37.0988 6.62416L35.5793 7.29907C34.8313 6.87569 34.0375 6.54658 33.211 6.31717L32.6142 4.76656C32.5051 4.48308 32.2327 4.29599 31.9289 4.29599H28.8201C28.5163 4.29599 28.2439 4.48308 28.1347 4.76656L27.5379 6.31717C26.7114 6.54658 25.9176 6.87569 25.1696 7.29907L23.6501 6.62416C23.3725 6.50077 23.0475 6.56118 22.8327 6.77599L20.6344 8.97426C20.4195 9.18907 20.3591 9.51405 20.4825 9.79165ZM21.5063 14.3991C21.7297 13.4605 22.1001 12.5671 22.6073 11.7436C22.7343 11.5373 22.7514 11.2818 22.6531 11.0604L22.0295 9.65625L23.5147 8.17109L24.9189 8.79479C25.1403 8.8931 25.3958 8.87603 25.6021 8.74898C26.4259 8.24169 27.3193 7.87127 28.2574 7.64801C28.4929 7.59201 28.6858 7.42347 28.7727 7.19745L29.3243 5.76472H31.4246L31.9761 7.19745C32.0631 7.42347 32.2559 7.59201 32.4915 7.64801C33.4297 7.87136 34.323 8.24169 35.1468 8.74889C35.353 8.87603 35.6086 8.8932 35.8299 8.79479L37.2343 8.17109L38.7195 9.65625L38.096 11.06C37.9976 11.2813 38.0148 11.5369 38.1418 11.7432C38.649 12.5668 39.0196 13.4604 39.2429 14.3991C39.2989 14.6347 39.4675 14.8276 39.6936 14.9145L41.1258 15.4659V17.5662L39.693 18.1177C39.4671 18.2046 39.2985 18.3975 39.2424 18.633C39.0191 19.5712 38.6488 20.4645 38.1415 21.2883C38.0145 21.4945 37.9974 21.7501 38.0957 21.9714L38.7194 23.3758L37.2342 24.8609L35.8305 24.2375C35.6091 24.1392 35.3535 24.1565 35.1473 24.2834C34.3237 24.7906 33.43 25.1611 32.4913 25.3844C32.2558 25.4405 32.0629 25.609 31.976 25.835L31.4247 27.2674H29.3244L28.7728 25.8346C28.6859 25.6087 28.4931 25.44 28.2575 25.384C27.3194 25.1608 26.426 24.7904 25.6021 24.2832C25.3958 24.1561 25.1403 24.1389 24.919 24.2373L23.5147 24.861L22.0295 23.376L22.653 21.9722C22.7513 21.7508 22.7342 21.4953 22.6071 21.289C22.0999 20.4654 21.7295 19.5718 21.5061 18.633C21.45 18.3974 21.2814 18.2046 21.0554 18.1176L19.623 17.5663V15.466L21.0557 14.9145C21.2817 14.8275 21.4503 14.6347 21.5063 14.3991ZM30.4848 23.9076C34.4997 23.9076 37.766 20.6412 37.766 16.6264C37.766 12.6116 34.4997 9.34532 30.4848 9.34532C26.4699 9.34532 23.2036 12.6116 23.2036 16.6264C23.2036 20.6412 26.47 23.9076 30.4848 23.9076ZM30.4848 10.8141C33.6898 10.8141 36.2972 13.4215 36.2972 16.6264C36.2972 19.8314 33.6898 22.4388 30.4848 22.4388C27.2799 22.4388 24.6725 19.8314 24.6725 16.6264C24.6725 13.4215 27.2799 10.8141 30.4848 10.8141ZM29.7504 16.6264V12.7369C29.7504 12.3313 30.0793 12.0025 30.4848 12.0025C30.8904 12.0025 31.2192 12.3313 31.2192 12.7369V16.2024L33.6669 17.6157C34.0182 17.8184 34.1385 18.2676 33.9357 18.6189C33.7997 18.8544 33.5528 18.9861 33.299 18.9861C33.1744 18.9861 33.0481 18.9544 32.9324 18.8876L30.1175 17.2625C29.8904 17.1312 29.7504 16.8888 29.7504 16.6264ZM14.2224 15.9055C14.2224 11.6232 15.9131 7.5395 18.9005 4.51512L17.9508 4.46803C17.5457 4.44792 17.2336 4.10321 17.2537 3.69809C17.2737 3.29307 17.6173 2.9804 18.0235 3.00096L20.7423 3.13572C21.1474 3.15583 21.4595 3.50054 21.4394 3.90556L21.3047 6.62443C21.2845 7.02946 20.9394 7.3414 20.5348 7.32157C20.1297 7.30146 19.8176 6.95675 19.8377 6.55172L19.8844 5.60939C17.2055 8.35368 15.6912 12.0405 15.6912 15.9054C15.6912 19.128 16.7124 22.1887 18.6444 24.7568C18.8882 25.0808 18.8232 25.5413 18.499 25.7851C18.3668 25.8846 18.2118 25.9326 18.0581 25.9326C17.8351 25.9326 17.615 25.8316 17.4707 25.6398C15.3457 22.8153 14.2224 19.4492 14.2224 15.9055Z" fill="#005586"/>
</svg>
