<svg width="51" height="49" viewBox="0 0 51 49" fill="none" xmlns="http://www.w3.org/2000/svg">
<g clip-path="url(#clip0_165_8629)">
<path d="M49.9672 35.8966L45.2797 20.8966C45.2345 20.7542 45.1452 20.63 45.0247 20.5419C44.9041 20.4537 44.7587 20.4062 44.6094 20.4062H40.0156C40.5129 18.9096 40.7662 17.3427 40.7656 15.7656C40.7656 7.62344 34.1422 1 26 1C17.8578 1 11.2344 7.62344 11.2344 15.7656C11.2338 17.3427 11.4871 18.9096 11.9844 20.4062H7.39063C7.2408 20.4062 7.09487 20.454 6.97413 20.5427C6.85338 20.6314 6.76413 20.7564 6.71938 20.8994L2.03188 35.8994C2.01058 35.9673 1.99983 36.0382 2 36.1094V40.7969C2 40.9834 2.07408 41.1622 2.20594 41.2941C2.3378 41.4259 2.51665 41.5 2.70313 41.5H14.9844V44.7812H11C10.4406 44.7812 9.90403 45.0035 9.50845 45.3991C9.11286 45.7947 8.89063 46.3312 8.89063 46.8906C8.89063 47.4501 9.11286 47.9866 9.50845 48.3822C9.90403 48.7778 10.4406 49 11 49H41C41.5594 49 42.096 48.7778 42.4916 48.3822C42.8871 47.9866 43.1094 47.4501 43.1094 46.8906C43.1094 46.3312 42.8871 45.7947 42.4916 45.3991C42.096 45.0035 41.5594 44.7812 41 44.7812H37.0156V41.5H49.2969C49.4834 41.5 49.6622 41.4259 49.7941 41.2941C49.9259 41.1622 50 40.9834 50 40.7969V36.1094C50.0002 36.0372 49.9891 35.9654 49.9672 35.8966ZM3.65938 35.4062L5.5625 29.3125H13.0513L11.5278 35.4062H3.65938ZM14.5025 29.3125H20.1275C21.9803 30.1164 23.9784 30.5312 25.9981 30.5312C28.0178 30.5312 30.016 30.1164 31.8688 29.3125H37.4938L39.0172 35.4062H12.9791L14.5025 29.3125ZM17.6066 27.9062H14.8541L15.3378 25.9703C16.0275 26.6898 16.7876 27.3383 17.6066 27.9062ZM36.6622 25.9703L37.1459 27.9062H34.3934C35.2124 27.3383 35.9725 26.6898 36.6622 25.9703ZM40.4713 35.4062L38.9478 29.3125H46.4375L48.3416 35.4062H40.4713ZM44.0938 21.8125L45.9978 27.9062H38.5963L37.7825 24.6541C38.4493 23.7728 39.0153 22.8197 39.47 21.8125H44.0938ZM26 2.40625C33.3659 2.40625 39.3594 8.39969 39.3594 15.7656C39.3594 23.1316 33.3659 29.125 26 29.125C18.6341 29.125 12.6406 23.1316 12.6406 15.7656C12.6406 8.39969 18.6341 2.40625 26 2.40625ZM7.90625 21.8125H12.5291C12.9837 22.8197 13.5498 23.7728 14.2166 24.6541L13.4038 27.9062H6.00313L7.90625 21.8125ZM16.3906 41.5H18.7344V44.7812H16.3906V41.5ZM20.1406 44.7812V41.5H31.8594V44.7812H20.1406ZM41.7031 46.8906C41.7031 47.0771 41.6291 47.256 41.4972 47.3878C41.3653 47.5197 41.1865 47.5938 41 47.5938H11C10.8135 47.5938 10.6347 47.5197 10.5028 47.3878C10.371 47.256 10.2969 47.0771 10.2969 46.8906C10.2969 46.7041 10.371 46.5253 10.5028 46.3934C10.6347 46.2616 10.8135 46.1875 11 46.1875H41C41.1865 46.1875 41.3653 46.2616 41.4972 46.3934C41.6291 46.5253 41.7031 46.7041 41.7031 46.8906ZM35.6094 44.7812H33.2656V41.5H35.6094V44.7812ZM48.5938 40.0938H3.40625V36.8125H48.5938V40.0938Z" fill="#005586"/>
<path d="M5.51562 39.1562H6.45312C6.63961 39.1562 6.81845 39.0822 6.95031 38.9503C7.08217 38.8184 7.15625 38.6396 7.15625 38.4531C7.15625 38.2666 7.08217 38.0878 6.95031 37.9559C6.81845 37.8241 6.63961 37.75 6.45312 37.75H5.51562C5.32914 37.75 5.1503 37.8241 5.01844 37.9559C4.88658 38.0878 4.8125 38.2666 4.8125 38.4531C4.8125 38.6396 4.88658 38.8184 5.01844 38.9503C5.1503 39.0822 5.32914 39.1562 5.51562 39.1562Z" fill="#005586"/>
<path d="M9.26562 39.1562H10.2031C10.3896 39.1562 10.5684 39.0822 10.7003 38.9503C10.8322 38.8184 10.9062 38.6396 10.9062 38.4531C10.9062 38.2666 10.8322 38.0878 10.7003 37.9559C10.5684 37.8241 10.3896 37.75 10.2031 37.75H9.26562C9.07914 37.75 8.9003 37.8241 8.76844 37.9559C8.63658 38.0878 8.5625 38.2666 8.5625 38.4531C8.5625 38.6396 8.63658 38.8184 8.76844 38.9503C8.9003 39.0822 9.07914 39.1562 9.26562 39.1562Z" fill="#005586"/>
<path d="M18.8751 25.36C18.8944 25.3736 18.9145 25.3861 18.9351 25.3975C21.3653 27.1815 24.3795 27.9822 27.3746 27.6394C30.3698 27.2966 33.1251 25.8355 35.0893 23.5485C37.0535 21.2614 38.0817 18.3171 37.9683 15.3045C37.8549 12.2919 36.6082 9.43325 34.4777 7.30036C32.3471 5.16747 29.4898 3.91766 26.4773 3.80096C23.4649 3.68427 20.5194 4.7093 18.2302 6.67099C15.9411 8.63269 14.477 11.3864 14.1309 14.3812C13.7848 17.3759 14.5822 20.391 16.3636 22.8231C16.3776 22.8475 16.3936 22.8719 16.4105 22.8953C17.1077 23.8324 17.938 24.6628 18.8751 25.36ZM22.2192 17.7353L21.1992 13.81C21.1636 13.6743 21.1639 13.5317 21.2003 13.3962C21.2366 13.2607 21.3076 13.1371 21.4064 13.0375L25.3964 9.04748L27.3586 9.55748L23.5148 13.4012C23.4282 13.4879 23.3657 13.5957 23.3337 13.7139C23.3016 13.8322 23.301 13.9568 23.332 14.0753L24.1251 17.1381C24.1566 17.2593 24.2198 17.3698 24.3083 17.4584C24.3968 17.5469 24.5074 17.6101 24.6286 17.6415L27.6876 18.4375C27.8062 18.4685 27.9308 18.4679 28.049 18.4358C28.1673 18.4038 28.2751 18.3413 28.3617 18.2547L32.2055 14.4109L32.7183 16.375L28.7283 20.3612C28.6289 20.4605 28.5054 20.532 28.3699 20.5689C28.2344 20.6057 28.0917 20.6065 27.9558 20.5712L24.0314 19.5512C23.9124 19.5209 23.7876 19.5223 23.6694 19.5552C23.5511 19.5881 23.4435 19.6514 23.3573 19.7387L19.2389 23.8572C18.759 23.4551 18.3154 23.0115 17.9133 22.5315L22.0317 18.4131C22.1191 18.3262 22.1819 18.2177 22.214 18.0987C22.2461 17.9797 22.2463 17.8544 22.2145 17.7353H22.2192ZM26.0001 5.21873C27.6352 5.21775 29.248 5.59692 30.7114 6.3263C32.1747 7.05567 33.4484 8.11528 34.4319 9.42143C35.4154 10.7276 36.0818 12.2445 36.3784 13.8524C36.675 15.4603 36.5937 17.1152 36.1409 18.6862C35.6881 20.2573 34.8763 21.7016 33.7695 22.9051C32.6627 24.1086 31.2912 25.0382 29.7635 25.6206C28.2357 26.2031 26.5934 26.4223 24.9664 26.2611C23.3393 26.0998 21.772 25.5625 20.3883 24.6915L24.0661 21.0137L27.6014 21.9325C27.9746 22.0288 28.3665 22.0262 28.7385 21.9251C29.1105 21.824 29.4498 21.6279 29.723 21.3559L33.997 17.0809C34.0844 16.9947 34.1477 16.8871 34.1806 16.7689C34.2135 16.6506 34.2148 16.5258 34.1845 16.4069L33.2639 12.8669C33.2328 12.747 33.1705 12.6375 33.0834 12.5494C32.9964 12.4613 32.8876 12.3978 32.7681 12.3652C32.6486 12.3327 32.5226 12.3323 32.4029 12.3641C32.2832 12.3959 32.174 12.4587 32.0864 12.5462L27.6567 16.9759L25.3814 16.3844L24.7898 14.1128L29.2195 9.6831C29.3071 9.59549 29.3699 9.4863 29.4017 9.3666C29.4335 9.24689 29.4331 9.12092 29.4005 9.00141C29.368 8.88191 29.3045 8.77312 29.2164 8.68606C29.1283 8.599 29.0188 8.53674 28.8989 8.5056L25.3589 7.58498C25.2399 7.55468 25.1151 7.55604 24.9969 7.58894C24.8786 7.62183 24.771 7.68511 24.6848 7.77248L20.4098 12.0465C20.1379 12.3197 19.9417 12.659 19.8406 13.031C19.7395 13.403 19.737 13.7948 19.8333 14.1681L20.752 17.7034L17.0742 21.3812C16.0689 19.7858 15.5099 17.95 15.4555 16.0651C15.4011 14.1802 15.8532 12.3151 16.7649 10.6644C17.6765 9.0137 19.0142 7.63773 20.6386 6.67991C22.2629 5.72209 24.1144 5.2175 26.0001 5.21873Z" fill="#005586"/>
</g>
<defs>
<clipPath id="clip0_165_8629">
<rect width="50" height="48" fill="white" transform="translate(0.5 0.5)"/>
</clipPath>
</defs>
</svg>
