<?xml version="1.0" encoding="utf-8"?>
<!-- Generator: Adobe Illustrator 26.0.3, SVG Export Plug-In . SVG Version: 6.00 Build 0)  -->
<svg version="1.1" id="Layer_1" xmlns="http://www.w3.org/2000/svg" xmlns:xlink="http://www.w3.org/1999/xlink" x="0px" y="0px"
	 viewBox="0 0 46 49" style="enable-background:new 0 0 46 49;" xml:space="preserve">
<style type="text/css">
	.st0{clip-path:url(#SVGID_00000014604580711809992240000017305303641337984182_);}
	.st1{fill-rule:evenodd;clip-rule:evenodd;fill:#E31E24;}
</style>
<g>
	<defs>
		<rect id="SVGID_1_" x="0.3" y="1" width="45.4" height="48"/>
	</defs>
	<clipPath id="SVGID_00000087387266941610028960000005362002564121599886_">
		<use xlink:href="#SVGID_1_"  style="overflow:visible;"/>
	</clipPath>
	<g style="clip-path:url(#SVGID_00000087387266941610028960000005362002564121599886_);">
		<path class="st1" d="M27.8,35.3c0.1,0.3,0.4,0.4,0.6,0.5c0,0,0,0,0.1,0c0.3,0,0.5-0.1,0.6-0.4l1.8-2.9l3.4,0.7
			c0.3,0.1,0.6,0,0.7-0.3c0.2-0.2,0.2-0.5,0.1-0.8l-2.5-5.8c0.1,0,0.2-0.1,0.2-0.1c1.3-0.6,2-1.9,1.9-3.3c0-0.3-0.1-0.5-0.1-0.7
			c-0.1-0.8-0.2-1.2-0.1-1.6c0.1-0.3,0.2-0.7,0.6-1.4c0.1-0.2,0.2-0.4,0.3-0.6c0.6-1.3,0.4-2.7-0.7-3.7c-0.2-0.2-0.4-0.3-0.5-0.5
			c-0.6-0.6-0.9-0.9-1.1-1.1c-0.2-0.3-0.3-0.7-0.4-1.5c0-0.2-0.1-0.4-0.2-0.7c-0.3-1.4-1.5-2.3-2.9-2.4c-0.3,0-0.5,0-0.7,0
			c-0.8,0-1.3-0.1-1.6-0.2c-0.3-0.1-0.6-0.4-1.3-0.9c-0.2-0.1-0.4-0.3-0.6-0.4c-1.1-0.8-2.6-0.8-3.8,0c-0.2,0.2-0.4,0.3-0.6,0.4
			c-0.7,0.5-1,0.8-1.3,0.9c-0.3,0.1-0.7,0.1-1.6,0.2c-0.2,0-0.4,0-0.7,0c-1.4,0.1-2.6,1.1-2.9,2.4c-0.1,0.3-0.1,0.5-0.2,0.7
			c-0.2,0.8-0.3,1.2-0.4,1.5c-0.2,0.3-0.5,0.6-1.1,1.1c-0.2,0.1-0.3,0.3-0.5,0.5c-1,1-1.3,2.5-0.7,3.7c0.1,0.2,0.2,0.4,0.3,0.6
			c0.4,0.7,0.6,1.1,0.6,1.4c0.1,0.3,0,0.7-0.1,1.6c0,0.2-0.1,0.4-0.1,0.7c-0.2,1.4,0.6,2.7,1.9,3.3c0.2,0.1,0.5,0.2,0.6,0.3
			c0.1,0,0.1,0,0.2,0.1l-3.1,6.6c-0.1,0.3-0.1,0.6,0.1,0.8c0.2,0.2,0.4,0.3,0.7,0.3l3.4-0.6l1.7,3c0.1,0.2,0.4,0.4,0.6,0.4
			c0,0,0,0,0,0c0.3,0,0.5-0.2,0.6-0.4l3.1-6.6c0.5-0.1,0.8-0.2,1-0.2c0.3,0,0.7,0.1,1.5,0.4c0.1,0,0.2,0.1,0.3,0.1L27.8,35.3z
			 M30.7,30.9c-0.3-0.1-0.6,0.1-0.8,0.3l-1.3,2.2l-1.3-3c0.9-0.1,1.7-0.6,2.2-1.4c0.1-0.2,0.3-0.4,0.4-0.6c0.5-0.7,0.7-1.1,0.9-1.3
			c0.1-0.1,0.3-0.2,0.4-0.3l1.9,4.5L30.7,30.9z M18.9,34.6l-1.3-2.2c-0.2-0.3-0.5-0.4-0.8-0.4l-2.5,0.4l2.4-5.2
			c0.2,0.2,0.4,0.6,0.8,1.2c0.1,0.2,0.2,0.4,0.4,0.6c0.6,1,1.7,1.5,2.8,1.4L18.9,34.6z M23.8,28.2c-0.5,0-1,0.1-2,0.4
			c-0.2,0.1-0.4,0.1-0.7,0.2c-0.7,0.2-1.4,0-1.8-0.7c-0.1-0.2-0.3-0.4-0.4-0.6c-1.1-1.7-1.2-1.8-3-2.5c-0.2-0.1-0.4-0.2-0.6-0.3
			c-0.7-0.3-1.1-1-1-1.7c0-0.3,0.1-0.5,0.1-0.7c0.2-2,0.2-2.1-0.7-3.9c-0.1-0.2-0.2-0.4-0.3-0.6c-0.3-0.7-0.2-1.4,0.3-1.9
			c0.2-0.2,0.4-0.3,0.5-0.5c1.5-1.3,1.5-1.5,2-3.4c0-0.2,0.1-0.4,0.2-0.7c0.2-0.7,0.8-1.2,1.5-1.3c0.3,0,0.5,0,0.7,0
			c2-0.1,2.1-0.1,3.7-1.3c0.2-0.1,0.3-0.3,0.6-0.4c0.6-0.4,1.4-0.4,2,0c0.2,0.2,0.4,0.3,0.6,0.4c1.6,1.2,1.7,1.2,3.7,1.3
			c0.2,0,0.4,0,0.7,0c0.7,0,1.3,0.5,1.5,1.3c0.1,0.3,0.1,0.5,0.2,0.7c0.4,1.9,0.5,2.1,2,3.4c0.2,0.1,0.3,0.3,0.5,0.5
			c0.5,0.5,0.7,1.3,0.3,1.9c-0.1,0.2-0.2,0.4-0.3,0.6c-0.9,1.8-0.9,1.9-0.7,3.9c0,0.2,0.1,0.4,0.1,0.7c0.1,0.7-0.3,1.4-1,1.7
			c-0.2,0.1-0.4,0.2-0.6,0.3c-1.8,0.8-1.9,0.9-3,2.5c-0.1,0.2-0.2,0.4-0.4,0.6c-0.4,0.6-1.1,0.9-1.8,0.7c-0.2-0.1-0.5-0.1-0.7-0.2
			C24.8,28.4,24.3,28.2,23.8,28.2z M31.2,18.5c0-4.1-3.3-7.4-7.4-7.4s-7.4,3.3-7.4,7.4s3.3,7.4,7.4,7.4S31.2,22.6,31.2,18.5z
			 M23.8,24.4c-3.3,0-5.9-2.7-5.9-5.9c0-3.3,2.7-5.9,5.9-5.9s5.9,2.7,5.9,5.9C29.7,21.8,27.1,24.4,23.8,24.4z M27.9,16.7l-5.1,4.6
			c-0.1,0.1-0.3,0.2-0.5,0.2c-0.2,0-0.4-0.1-0.5-0.2l-2.1-2.1c-0.3-0.3-0.3-0.8,0-1.1c0.3-0.3,0.8-0.3,1.1,0l1.6,1.6l4.6-4.2
			c0.3-0.3,0.8-0.3,1.1,0.1C28.2,16,28.2,16.4,27.9,16.7z M42.2,41.3c1-1,1.5-2.2,1.5-3.6l-0.4-12.9c0-1.3-1.3-2.4-2.7-2.4
			c0,0,0,0,0,0c-0.7,0-2.8,0.4-2.8,4.5l0,7c0,0.2,0,0.3,0,0.5c-0.1-0.1-0.1-0.1-0.2-0.2c-0.9-0.9-2.4-0.9-3.5,0c0,0,0,0-0.1,0.1
			c-1.1,1.3-2.5,2.5-3.6,3.4c-0.4,0.3-0.8,0.6-1.1,0.9c-1.3,1.1-1.4,2.7-1.4,4.1l0,5l-0.6,0c-0.4,0-0.9,0.2-1.2,0.5
			c-0.3,0.3-0.5,0.7-0.5,1.2l0,2c0,0.4,0.2,0.9,0.5,1.2c0.3,0.3,0.7,0.5,1.2,0.5L37.3,53c0,0,0,0,0,0c0.4,0,0.8-0.2,1.1-0.5
			c0.3-0.3,0.5-0.7,0.5-1.2l0-2c0-0.4-0.2-0.9-0.5-1.2c-0.3-0.3-0.7-0.5-1.2-0.5l-0.8,0v-0.9L42.2,41.3z M37.5,49.4l0,2
			c0,0,0,0.1,0,0.1c0,0,0,0-0.1,0l-10.1-0.1c0,0-0.1,0-0.1,0c0,0,0-0.1,0-0.1l0-2c0,0,0-0.1,0-0.1c0,0,0.1,0,0.1,0h0h0l10.1,0.1
			C37.4,49.3,37.5,49.4,37.5,49.4z M29.4,47.7l0-5c0-1.5,0.3-2.4,0.9-3c0.3-0.3,0.6-0.5,1-0.9c1.1-1,2.6-2.2,3.8-3.6
			c0.4-0.4,1-0.4,1.4,0c0.4,0.4,0.4,0.8,0,1.3c-0.6,0.7-1.2,1.3-1.9,1.9c-0.3,0.3-0.6,0.6-1,1c-0.3,0.3-0.3,0.8,0,1.1
			c0.1,0.1,0.3,0.2,0.5,0.2s0.4-0.1,0.5-0.2c0.3-0.3,0.6-0.6,1-0.9c0.7-0.7,1.3-1.3,2-2c0,0,0.5-0.6,0.5-0.6c0.8-0.9,1.1-1.9,1.1-3
			l0-7c0-1.9,0.5-3,1.3-3c0,0,0,0,0,0c0.6,0,1.2,0.5,1.2,1l0.4,12.9c0,1-0.3,1.8-1,2.5l-5.8,5.8c-0.1,0.1-0.2,0.3-0.2,0.5v1.2
			L29.4,47.7z M27.8,50.1c0.1-0.3,0.5-0.5,0.8-0.3c0.3,0.1,0.5,0.5,0.3,0.8c-0.1,0.3-0.5,0.5-0.8,0.3C27.8,50.8,27.7,50.4,27.8,50.1
			z M19.6,48.2c-0.3-0.3-0.7-0.5-1.2-0.5l-0.6,0l0-5c0-1.4-0.2-3-1.4-4.1c-0.3-0.3-0.7-0.6-1.1-0.9c-1.1-0.9-2.5-2.1-3.6-3.4
			c0,0,0,0-0.1-0.1c-1-0.9-2.5-0.9-3.5,0C8,34.3,8,34.3,7.9,34.4c0-0.2,0-0.3,0-0.5l0-7c0-4.2-2.2-4.5-2.8-4.5c0,0,0,0,0,0
			c-1.4,0-2.6,1.1-2.7,2.4L2,37.7c0,1.4,0.5,2.6,1.5,3.6l5.6,5.6v0.9l-0.8,0c-0.4,0-0.8,0.2-1.2,0.5c-0.3,0.3-0.5,0.7-0.5,1.2l0,2
			c0,0.4,0.2,0.8,0.5,1.2C7.4,52.9,7.9,53,8.3,53c0,0,0,0,0,0L18.4,53c0.4,0,0.8-0.2,1.2-0.5c0.3-0.3,0.5-0.7,0.5-1.2l0-2
			C20,48.9,19.9,48.5,19.6,48.2z M10.6,46.6c0-0.2-0.1-0.4-0.2-0.5l-5.8-5.8c-0.7-0.7-1-1.5-1-2.5l0.4-12.9c0-0.5,0.6-1,1.2-1
			c0.8,0,1.4,1.2,1.3,3l0,7c0,1.1,0.4,2.1,1.1,3L8,37.6c0,0,0,0,0,0c0.6,0.7,1.3,1.4,2,2c0.3,0.3,0.6,0.6,1,0.9
			c0.1,0.1,0.3,0.2,0.5,0.2c0.2,0,0.4-0.1,0.5-0.2c0.3-0.3,0.3-0.8,0-1.1c-0.3-0.3-0.7-0.7-1-1c-0.7-0.6-1.3-1.2-1.9-1.9
			c-0.4-0.5-0.4-1,0-1.3c0.4-0.4,0.9-0.4,1.4,0c1.2,1.4,2.6,2.6,3.8,3.6c0.4,0.3,0.7,0.6,1,0.9c0.7,0.6,0.9,1.5,0.9,3l0,5l-5.7,0
			L10.6,46.6z M18.5,51.4C18.5,51.4,18.5,51.4,18.5,51.4L8.3,51.5c0,0-0.1,0-0.1,0c0,0,0-0.1,0-0.1l0-2c0,0,0-0.1,0-0.1
			c0,0,0.1,0,0.1,0l10.1-0.1h0c0,0,0.1,0,0.1,0c0,0,0,0.1,0,0.1L18.5,51.4C18.6,51.4,18.5,51.4,18.5,51.4z M17.8,50.1
			c0.1,0.3,0,0.7-0.3,0.8c-0.3,0.1-0.7,0-0.8-0.3c-0.1-0.3,0-0.7,0.3-0.8C17.4,49.7,17.7,49.8,17.8,50.1z"/>
	</g>
</g>
</svg>
