<svg width="44" height="42" viewBox="0 0 44 42" fill="none" xmlns="http://www.w3.org/2000/svg">
<path d="M39.7401 31.799C39.3968 31.803 39.4345 31.7863 38.9781 31.8183V21.1417C38.9781 19.999 38.0485 19.0694 36.9059 19.0694H31.6741C31.6713 19.0694 31.6686 19.069 31.6658 19.069H25.6411V2.98502L30.5822 7.76121C30.8615 8.03121 31.0217 8.40874 31.0217 8.79717V16.677C31.0217 17.0327 31.31 17.3211 31.6658 17.3211C32.0215 17.3211 32.3099 17.0327 32.3099 16.677V8.79717C32.3099 8.06153 32.0065 7.34632 31.4775 6.835L25.4446 1.00352C25.309 0.876245 25.0492 0.762025 24.7918 0.856063L13.9692 4.49392V1.98624C13.9773 0.890501 12.9942 -0.0631915 11.8505 0.0032793C10.7567 0.0032793 9.8667 0.892819 9.8667 1.98624V5.87289L7.03516 6.82469C5.92294 7.19861 5.17562 8.2381 5.17562 9.41155V31.8025C2.30939 31.8759 0 34.2287 0 37.1123V40.3875C0 41.2767 0.723363 42 1.61247 42H42.3578C43.247 42 43.9702 41.2766 43.9702 40.3875V36.0291C43.9703 33.6967 42.0726 31.799 39.7401 31.799ZM39.7401 33.0872C41.3623 33.0872 42.6821 34.407 42.6821 36.0292V36.7049H36.4344V36.0292C36.4358 34.2686 37.9828 32.9346 39.7401 33.0872ZM37.6899 21.1417V32.1506C36.1944 32.8035 35.1462 34.2958 35.1462 36.0291V36.7048H25.6411V20.3576H36.9059C37.3382 20.3576 37.6899 20.7093 37.6899 21.1417ZM11.1549 1.98624C11.1549 1.60313 11.467 1.29147 11.8505 1.29147C12.195 1.24089 12.6588 1.51098 12.681 1.98624V4.92692L11.1549 5.43988V1.98624ZM5.1757 33.0895V36.7049H1.30863C1.50899 34.7209 3.15607 33.1577 5.1757 33.0895ZM1.28819 40.3876V37.9931H5.1757V40.7119H1.61256C1.43367 40.7119 1.28819 40.5664 1.28819 40.3876ZM6.46389 9.41155C6.46389 8.79202 6.85842 8.24325 7.44567 8.04581L24.353 2.36265V5.87211L10.3055 10.594C9.96838 10.7073 9.78692 11.0725 9.90028 11.4098C9.99071 11.6789 10.2416 11.8488 10.5107 11.8488C10.5787 11.8488 10.6479 11.838 10.716 11.8151L24.353 7.23124V10.508L10.3055 15.2298C9.96838 15.3432 9.78692 15.7084 9.90028 16.0456C9.99071 16.3147 10.2416 16.4846 10.5107 16.4846C10.5787 16.4846 10.6479 16.4738 10.716 16.4508L24.353 11.8669V15.1437L10.3055 19.8656C9.96838 19.9789 9.78692 20.3441 9.90028 20.6814C9.99071 20.9505 10.2416 21.1204 10.5107 21.1204C10.5787 21.1204 10.6479 21.1095 10.716 21.0866L24.353 16.5028V19.7111C24.353 19.7119 24.3529 19.7127 24.3529 19.7136V19.7796L10.3055 24.5014C9.96838 24.6147 9.78692 24.98 9.90028 25.3171C9.99071 25.5863 10.2416 25.7561 10.5107 25.7561C10.5787 25.7561 10.6479 25.7453 10.716 25.7224L24.3529 21.1385V24.4153L15.5814 27.3637C15.2442 27.477 15.0628 27.8422 15.1761 28.1795C15.2665 28.4486 15.5175 28.6185 15.7865 28.6185C15.8546 28.6185 15.9238 28.6077 15.9919 28.5848L24.3529 25.7743V40.7118H18.7886V34.019C18.7886 33.5803 18.5881 33.1765 18.2387 32.9113C17.8892 32.6461 17.4464 32.5616 17.0239 32.6796L11.0289 34.3532C10.3447 34.5442 9.86687 35.1737 9.86687 35.8841V40.7118H6.46389V9.41155ZM11.1551 35.8842C11.1551 35.7495 11.2457 35.6302 11.3753 35.594L13.6835 34.9495V40.7119H11.155L11.1551 35.8842ZM14.9717 40.7119V34.5899L17.3703 33.9203C17.4026 33.9112 17.4329 33.9168 17.4597 33.9374C17.4866 33.9578 17.5003 33.9853 17.5003 34.019V40.7119H14.9717ZM25.6411 40.7119V37.9931H35.1462V40.7119H25.6411ZM42.6821 40.3876C42.6821 40.5665 42.5366 40.7119 42.3578 40.7119H36.4344V37.9931H42.6821V40.3876Z" fill="#005586"/>
<path d="M10.5094 30.3922C10.5774 30.3922 10.6467 30.3814 10.7148 30.3585L13.1062 29.5547C13.4433 29.4414 13.6248 29.0761 13.5114 28.7389C13.3981 28.4016 13.0328 28.2201 12.6957 28.3336L10.3043 29.1375C9.96709 29.2507 9.78563 29.616 9.89899 29.9532C9.98942 30.2223 10.2404 30.3922 10.5094 30.3922Z" fill="#005586"/>
<path d="M28.4612 25.6701H34.7777C35.3767 25.6701 35.864 25.1829 35.864 24.5839V23.0336C35.864 22.4345 35.3767 21.9473 34.7777 21.9473H28.4612C27.8622 21.9473 27.375 22.4345 27.375 23.0336V24.5839C27.375 25.1829 27.8623 25.6701 28.4612 25.6701ZM28.6632 23.2355H34.5758V24.382H28.6632V23.2355Z" fill="#005586"/>
<path d="M28.4612 30.5676H34.7777C35.3767 30.5676 35.864 30.0803 35.864 29.4813V27.9309C35.864 27.3319 35.3767 26.8447 34.7777 26.8447H28.4612C27.8622 26.8447 27.375 27.332 27.375 27.9309V29.4813C27.375 30.0803 27.8623 30.5676 28.4612 30.5676ZM28.6632 28.1329H34.5758V29.2794H28.6632V28.1329Z" fill="#005586"/>
<path d="M28.4612 35.5158H30.5505C31.1495 35.5158 31.6368 35.0286 31.6368 34.4296V32.8793C31.6368 32.2803 31.1495 31.793 30.5505 31.793H28.4612C27.8622 31.793 27.375 32.2803 27.375 32.8793V34.4296C27.375 35.0286 27.8623 35.5158 28.4612 35.5158ZM28.6632 33.0812H30.3486V34.2277H28.6632V33.0812Z" fill="#005586"/>
</svg>
