<svg width="46" height="49" viewBox="0 0 46 49" fill="none" xmlns="http://www.w3.org/2000/svg">
<g clip-path="url(#clip0_153_7831)">
<path d="M41.2214 34.374C40.9681 34.2649 40.6765 34.3252 40.4826 34.5266L33.0745 42.226C32.8807 42.4275 32.8227 42.7305 32.9276 42.9938C33.0325 43.2571 33.2798 43.4287 33.5539 43.4287H40.962C41.3365 43.4287 41.6399 43.1133 41.6399 42.7242V35.0248C41.6398 34.7399 41.4747 34.483 41.2214 34.374ZM35.1902 42.0197L40.284 36.7257V42.0197H35.1902Z" fill="#005586"/>
<path d="M46.1215 23.0806C45.8682 22.9715 45.5767 23.0318 45.3827 23.2332L43.3525 25.3433V10.9966C43.3525 10.6074 43.049 10.2921 42.6746 10.2921H37.4662L39.3568 8.32706C39.3571 8.32678 39.3574 8.32641 39.3576 8.32612L41.1794 6.43275C41.5697 6.02709 41.7847 5.48746 41.7847 4.91371C41.7847 4.33996 41.5697 3.80052 41.1794 3.39468L39.0728 1.20524C38.6825 0.799579 38.1632 0.576172 37.6112 0.576172C37.0592 0.576172 36.54 0.799579 36.1496 1.20524L34.327 3.09955L32.1245 5.38856L27.4066 10.292H6.36487V3.32211C6.36487 2.93296 6.06133 2.61758 5.68698 2.61758C2.74723 2.61777 0.355469 5.10337 0.355469 8.15887V38.0826C0.355469 38.1347 0.361242 38.1853 0.371525 38.234C0.465157 39.5305 1.00485 40.7351 1.9068 41.6495C2.8709 42.6268 4.14359 43.165 5.49052 43.165H26.2048L22.3036 47.2196C22.1097 47.4212 22.0517 47.7241 22.1566 47.9874C22.2615 48.2507 22.5088 48.4223 22.7829 48.4223H45.8621C46.2364 48.4223 46.54 48.107 46.54 47.7178V23.7315C46.54 23.4466 46.3747 23.1897 46.1215 23.0806ZM37.1085 2.20171C37.3856 1.91352 37.8371 1.91352 38.1142 2.20171L40.2209 4.39124C40.4982 4.67934 40.4982 5.14837 40.2209 5.43656L38.8777 6.83268L35.7651 3.59783L37.1085 2.20171ZM34.8064 4.59421L37.9189 7.82897L36.6751 9.12169L33.5628 5.88693L34.8064 4.59421ZM45.1844 31.648H43.9337C43.5593 31.648 43.2558 31.9634 43.2558 32.3525C43.2558 32.7417 43.5593 33.057 43.9337 33.057H45.1844V35.1801H43.9337C43.5593 35.1801 43.2558 35.4955 43.2558 35.8846C43.2558 36.2738 43.5593 36.5892 43.9337 36.5892H45.1844V38.7122H43.9337C43.5593 38.7122 43.2558 39.0275 43.2558 39.4167C43.2558 39.8058 43.5593 40.1212 43.9337 40.1212H45.1844V42.2443H43.9337C43.5593 42.2443 43.2558 42.5598 43.2558 42.9488C43.2558 43.338 43.5593 43.6534 43.9337 43.6534H45.1844V47.0135H24.4194L31.2666 39.8972C31.5314 39.622 31.5314 39.176 31.2666 38.9009C31.2362 38.8693 31.2036 38.8419 31.1694 38.8175C30.9054 38.6297 30.5423 38.6573 30.3078 38.9009L27.5606 41.7561H5.49061C3.43468 41.7561 1.77961 40.0879 1.71448 37.955C1.71836 37.8212 1.72837 37.6884 1.74443 37.5572C1.74452 37.5564 1.74461 37.5557 1.7447 37.5549C1.75228 37.4926 1.76139 37.4305 1.77176 37.3688C1.77294 37.3618 1.7742 37.3547 1.77537 37.3477C1.78484 37.2927 1.79549 37.2379 1.80712 37.1834C1.81037 37.1682 1.8138 37.153 1.81723 37.1379C1.82751 37.0918 1.8386 37.0459 1.85051 37.0003C1.85701 36.9755 1.86377 36.9511 1.87072 36.9264C1.88064 36.8906 1.89092 36.8549 1.90184 36.8195C1.91275 36.7842 1.92439 36.7492 1.93621 36.7142C1.94441 36.6898 1.95253 36.6653 1.96137 36.641C1.97788 36.5949 1.99538 36.5492 2.01342 36.504C2.01856 36.4909 2.02361 36.4777 2.02894 36.4647C2.05212 36.4084 2.0762 36.3528 2.10164 36.2979C2.10272 36.2956 2.10371 36.2932 2.1048 36.2909C2.63502 35.1505 3.65477 34.3003 4.87857 34.0365C4.882 34.0357 4.88543 34.0349 4.88886 34.0341C4.94496 34.0222 5.00161 34.012 5.05862 34.0025C5.06809 34.0009 5.07756 33.999 5.08721 33.9975C5.13872 33.9893 5.19077 33.9829 5.24282 33.9768C5.25743 33.9751 5.27195 33.9728 5.28666 33.9713C5.3369 33.966 5.38759 33.9626 5.43829 33.9593C5.45435 33.9583 5.4704 33.9565 5.48646 33.9556C5.55285 33.9522 5.61978 33.9504 5.68698 33.9504C6.06133 33.9504 6.36487 33.635 6.36487 33.2459V28.1375C6.36487 27.7484 6.06133 27.433 5.68698 27.433C5.31263 27.433 5.0091 27.7484 5.0091 28.1375V32.5857C3.86441 32.7361 2.80189 33.2668 1.96408 34.1171C1.87595 34.2065 1.79242 34.2995 1.71106 34.394V8.15887C1.71106 6.12065 3.13863 4.42218 5.00901 4.08674V10.9966V25.3195V25.3196C5.00901 25.7086 5.31254 26.0241 5.68689 26.0241C6.06124 26.0241 6.36478 25.7086 6.36478 25.3196V25.3195V11.7011H26.0509L22.3035 15.5959C22.0387 15.8711 22.0387 16.3171 22.3035 16.5923C22.5682 16.8673 22.9974 16.8673 23.2621 16.5923L28.1667 11.4948C28.1669 11.4946 28.167 11.4944 28.1672 11.4943L32.6039 6.88322L35.7162 10.1181L35.351 10.4976C35.3508 10.4978 35.3504 10.4981 35.3501 10.4984L21.6817 24.7044L18.5693 21.4696L21.2635 18.6695C21.5283 18.3942 21.5283 17.9483 21.2635 17.6731C20.9988 17.398 20.5696 17.398 20.3049 17.6731L17.1313 20.9714C17.1143 20.9891 17.0984 21.0077 17.0835 21.0268C17.0786 21.0332 17.0742 21.0401 17.0695 21.0467C17.0599 21.0599 17.0505 21.0732 17.0418 21.0871C17.0368 21.0952 17.0323 21.1034 17.0276 21.1118C17.0201 21.1249 17.0129 21.1382 17.0063 21.1518C17.002 21.1606 16.9981 21.1695 16.9942 21.1787C16.9881 21.1925 16.9825 21.2066 16.9774 21.2206C16.9756 21.2256 16.9732 21.2303 16.9715 21.2352L15.6508 25.1235L14.7504 27.7747C14.7385 27.8099 14.7299 27.8458 14.7235 27.8818H12.4692C12.0948 27.8818 11.7913 28.1972 11.7913 28.5864C11.7913 28.9755 12.0948 29.2909 12.4692 29.2909H31.2419C31.6163 29.2909 31.9198 28.9755 31.9198 28.5864C31.9198 28.1972 31.6163 27.8818 31.2419 27.8818H17.7732L21.9073 26.3652C21.9107 26.3638 21.914 26.3621 21.9174 26.3608C21.9335 26.3546 21.9492 26.3476 21.9649 26.3402C21.9711 26.3372 21.9773 26.3344 21.9833 26.3313C21.9996 26.3229 22.0155 26.3136 22.0312 26.3037C22.0363 26.3005 22.0415 26.2976 22.0465 26.2943C22.0628 26.2834 22.0787 26.2715 22.0943 26.2589C22.0982 26.2558 22.1022 26.2531 22.106 26.2499C22.1249 26.2342 22.1434 26.2172 22.1609 26.199L36.1104 11.7012H41.9967V26.7524L32.3001 36.8303C32.0353 37.1056 32.0353 37.5515 32.3001 37.8267C32.3166 37.8438 32.3338 37.86 32.3516 37.8751C32.4759 37.9803 32.6277 38.033 32.7794 38.033C32.9311 38.033 33.083 37.9803 33.2073 37.8751C33.225 37.8601 33.2423 37.8438 33.2588 37.8267C33.259 37.8264 33.2588 37.8267 33.259 37.8264L45.1844 25.4322V31.648ZM20.4418 25.4083L18.5001 26.1208L17.2064 24.7762L17.8919 22.7581L20.4418 25.4083Z" fill="#005586"/>
</g>
<defs>
<clipPath id="clip0_153_7831">
<rect width="45.3616" height="48" fill="white" transform="translate(0.5 0.5)"/>
</clipPath>
</defs>
</svg>
