<?xml version="1.0" encoding="UTF-8"?>
<svg xmlns="http://www.w3.org/2000/svg" version="1.1" viewBox="0 0 36 41">
  <defs>
    <style>
      .cls-1 {
        fill: #e31e24;
      }
    </style>
  </defs>
  <!-- Generator: Adobe Illustrator 28.6.0, SVG Export Plug-In . SVG Version: 1.2.0 Build 709)  -->
  <g>
    <g id="Layer_1">
      <path class="cls-1" d="M7.52,15.31c.16.09.34.14.52.14.2,0,.39-.06.56-.17.32-.21.46-.57.36-.92l-.69-2.27,2.04-1.47c.31-.23.43-.59.31-.93-.12-.34-.46-.57-.86-.59l-2.61-.11-.93-2.2c-.14-.34-.49-.55-.89-.55s-.75.22-.89.55l-.93,2.2-2.61.11c-.4.02-.74.25-.86.59-.12.34,0,.71.31.93l2.04,1.47-.69,2.27c-.1.35.04.71.36.92.32.21.75.22,1.08.02l2.18-1.29,2.19,1.29ZM4.81,12.75l-1.33.78.42-1.38c.1-.33-.03-.68-.32-.89l-1.24-.9,1.59-.07c.38-.02.71-.23.84-.55l.56-1.34.56,1.34c.13.32.47.54.84.55l1.59.07-1.24.9c-.3.21-.42.56-.32.89l.42,1.38-1.33-.78c-.16-.09-.34-.14-.52-.14-.18,0-.36.05-.52.14ZM35.46,9.69c-.12-.34-.46-.57-.86-.59l-2.61-.11-.93-2.2h0c-.14-.34-.49-.55-.89-.55s-.75.22-.89.55l-.93,2.2-2.61.11c-.4.02-.74.25-.86.59-.12.34,0,.71.31.93l2.04,1.47-.69,2.27c-.1.35.04.71.36.92.32.21.75.22,1.08.02l2.18-1.29,2.19,1.29c.16.09.34.14.52.14.2,0,.39-.06.56-.16.32-.21.46-.57.36-.92l-.68-2.27,2.04-1.47c.31-.23.43-.59.31-.93ZM31.93,11.26c-.3.21-.42.56-.32.89l.42,1.38-1.33-.78c-.16-.09-.34-.14-.52-.14s-.36.05-.52.14l-1.33.78.42-1.38c.1-.33-.03-.68-.32-.89l-1.24-.9,1.59-.07c.38-.02.71-.23.84-.55l.56-1.34.56,1.34c.13.32.47.54.84.55l1.59.07-1.24.9ZM12.78,4.39l2.04,1.47-.69,2.27c-.1.35.04.71.36.92.32.21.75.22,1.08.02l2.19-1.29,2.19,1.29c.16.09.34.14.52.14.2,0,.39-.06.56-.16.32-.21.46-.57.36-.92l-.69-2.27,2.04-1.47c.31-.23.43-.59.31-.93-.12-.34-.46-.57-.86-.59l-2.61-.11-.93-2.2h0c-.14-.34-.49-.55-.89-.55s-.75.22-.89.55l-.93,2.2-2.61.11c-.4.02-.74.25-.86.59-.12.34,0,.71.31.93ZM16.35,4.06c.38-.02.71-.23.84-.55l.56-1.34.56,1.34c.13.32.47.54.84.55l1.59.07-1.24.9c-.3.21-.42.56-.32.89l.42,1.38-1.33-.78c-.16-.09-.34-.14-.52-.14s-.36.05-.52.14l-1.33.78.42-1.38c.1-.33-.03-.68-.32-.89l-1.24-.9,1.59-.07ZM30.69,23.04c-.22-1.13-1.75-1.77-2.98-2.29-.29-.12-.67-.28-.85-.39,0-.19.03-.57.06-.86.12-1.22.26-2.73-.71-3.47-.98-.74-2.61-.35-3.92-.03-.31.07-.72.17-.93.2-.14-.14-.39-.45-.57-.69-.78-1-1.75-2.25-3.02-2.25s-2.24,1.24-3.02,2.24c-.18.24-.43.55-.57.69-.21-.03-.62-.12-.93-.2-1.31-.32-2.94-.71-3.92.03-.98.74-.83,2.25-.71,3.47.03.29.06.67.06.86-.18.1-.56.26-.85.39-1.23.52-2.76,1.16-2.98,2.29-.22,1.13.97,2.21,1.93,3.07.23.2.52.47.66.63-.07.18-.24.53-.38.79-.57,1.11-1.29,2.49-.65,3.48.38.59,1.13.88,1.95,1.04l-2.74,5.3c-.12.22-.08.49.08.68s.44.29.71.25l3.79-.6,1.94,3c.13.2.37.33.63.33.01,0,.02,0,.03,0,.27-.01.52-.16.63-.38l2.6-5.03c.33-.18.64-.38.94-.57.26-.17.61-.38.8-.47.19.09.53.31.8.47.3.19.61.39.94.57l2.6,5.03c.12.22.36.37.63.38.01,0,.02,0,.03,0,.26,0,.5-.12.63-.33l1.94-3,3.79.6c.27.04.54-.05.71-.25.17-.2.2-.46.08-.68l-2.74-5.3c.83-.16,1.58-.44,1.95-1.04.64-.99-.08-2.37-.65-3.48-.14-.26-.31-.61-.38-.79.13-.15.43-.42.66-.63.96-.86,2.15-1.94,1.93-3.07ZM12.68,38.91l-1.49-2.3c-.15-.24-.46-.37-.76-.32l-2.91.46,2.34-4.53c.06,0,.13.01.19.02.32.03.74.06.95.1.08.18.19.55.27.82.35,1.18.79,2.65,1.99,3.04.21.07.42.1.63.1.05,0,.09,0,.14,0l-1.35,2.62ZM27.99,36.75l-2.91-.46c-.3-.05-.61.08-.76.32l-1.49,2.3-1.35-2.62c.26.02.52-.01.77-.09,1.2-.39,1.64-1.86,1.99-3.04.08-.28.19-.65.27-.82.21-.04.63-.07.95-.1.06,0,.13,0,.19-.02l2.34,4.53ZM27.15,28.08c.34.65.96,1.86.71,2.26-.26.4-1.73.52-2.53.58-.86.07-1.43.11-1.78.38-.36.27-.5.76-.73,1.52-.21.69-.59,1.98-1.07,2.14-.48.16-1.7-.61-2.35-1.02-.71-.45-1.18-.74-1.64-.74s-.93.29-1.64.74c-.65.41-1.87,1.18-2.35,1.02-.48-.16-.86-1.45-1.07-2.14-.22-.75-.37-1.25-.73-1.52-.36-.27-.92-.31-1.78-.38-.79-.06-2.27-.18-2.53-.58-.26-.4.37-1.61.71-2.26.36-.7.61-1.17.52-1.58-.08-.41-.48-.78-1.09-1.33-.56-.51-1.61-1.45-1.52-1.91.09-.45,1.43-1.02,2.16-1.32.78-.33,1.3-.55,1.53-.91.23-.36.18-.87.11-1.65-.07-.72-.2-2.05.19-2.34.11-.08.3-.12.53-.12.61,0,1.51.22,2.06.35.83.2,1.39.33,1.82.19.44-.14.76-.56,1.26-1.2.46-.59,1.31-1.68,1.82-1.68s1.36,1.09,1.82,1.68c.5.64.82,1.06,1.26,1.2.44.14.99.01,1.82-.19.77-.19,2.2-.53,2.59-.23.39.3.26,1.63.19,2.34-.07.77-.12,1.29.11,1.65.23.36.75.58,1.53.91.72.3,2.07.87,2.16,1.32.09.45-.96,1.4-1.52,1.91-.61.55-1.01.91-1.09,1.33-.08.41.16.88.52,1.58ZM17.75,17.95c-4.18,0-7.58,3.06-7.58,6.83s3.4,6.83,7.58,6.83,7.58-3.06,7.58-6.83-3.4-6.83-7.58-6.83ZM17.75,30.29c-3.37,0-6.12-2.47-6.12-5.51s2.74-5.51,6.12-5.51,6.12,2.47,6.12,5.51-2.74,5.51-6.12,5.51ZM21,20.96c-.52,0-1,.18-1.37.51l-3.22,2.92-.53-.48c-.76-.68-1.98-.68-2.74,0-.37.33-.57.77-.57,1.23s.2.9.57,1.23l1.91,1.72c.37.33.85.51,1.37.51s1-.18,1.37-.51c1.42-1.28,3.71-3.37,4.59-4.17.75-.68.75-1.79,0-2.46-.36-.33-.85-.51-1.36-.51h0ZM21.33,22.99c-.88.8-3.16,2.89-4.58,4.17-.09.08-.21.12-.33.12s-.24-.04-.33-.12l-1.91-1.72c-.09-.08-.14-.19-.14-.3s.05-.22.14-.3c.09-.08.21-.12.33-.12s.24.04.33.12l1.06.95c.14.12.32.19.52.19h0c.2,0,.38-.07.52-.2l3.74-3.39c.09-.08.2-.12.33-.12.13,0,.24.04.33.12.18.16.18.43,0,.59Z"/>
    </g>
  </g>
</svg>