<svg width="41" height="43" viewBox="0 0 41 43" fill="none" xmlns="http://www.w3.org/2000/svg">
<path d="M34.7962 0H5.94056C4.36472 0.00291238 2.85434 0.649726 1.74069 1.79871C0.627033 2.94769 0.00102525 4.50493 0 6.12891V35.892C0.00102579 37.5159 0.627065 39.073 1.74074 40.2218C2.85442 41.3706 4.36481 42.0173 5.94056 42.0199H34.7962C36.3719 42.0173 37.8823 41.3706 38.996 40.2218C40.1097 39.073 40.7357 37.5159 40.7367 35.892V6.12891C40.736 4.50485 40.1101 2.9475 38.9963 1.79846C37.8826 0.649424 36.3721 0.0026483 34.7962 0ZM5.94056 1.75098H19.5198V5.25098C19.5193 5.94693 19.2509 6.61427 18.7736 7.10657C18.2962 7.59887 17.6489 7.87589 16.9736 7.87695H15.7965C15.3062 7.43173 14.7017 7.14174 14.0555 7.04175C13.4092 6.94176 12.7487 7.03602 12.1532 7.31323C11.5576 7.59044 11.0523 8.03884 10.6979 8.60461C10.3435 9.17039 10.1549 9.82949 10.1549 10.5029C10.1549 11.1764 10.3435 11.8355 10.6979 12.4012C11.0523 12.967 11.5576 13.4154 12.1532 13.6926C12.7487 13.9698 13.4092 14.0641 14.0555 13.9641C14.7017 13.8641 15.3062 13.5741 15.7965 13.1289H16.9707C17.646 13.13 18.2933 13.4071 18.7707 13.8994C19.248 14.3917 19.5164 15.0589 19.5169 15.7549V20.1329H15.2735C14.1479 20.1351 13.069 20.5971 12.2735 21.4178C11.478 22.2386 11.0309 23.351 11.0301 24.511V26.262H11.0699C11.1046 26.4335 11.1897 26.5899 11.3135 26.71C11.5695 26.9462 11.75 27.2569 11.8309 27.6011C11.9119 27.9453 11.8895 28.3068 11.7668 28.6376C11.6442 28.9684 11.4269 29.2529 11.1438 29.4537C10.8608 29.6545 10.5252 29.7621 10.1815 29.7621C9.83787 29.7621 9.50231 29.6545 9.21923 29.4537C8.93615 29.2529 8.71889 28.9684 8.5962 28.6376C8.47351 28.3068 8.45116 27.9453 8.53212 27.6011C8.61308 27.2569 8.79354 26.9462 9.0496 26.71C9.17342 26.5899 9.25845 26.4335 9.29317 26.262H9.33294V24.5129C9.33217 23.3529 8.885 22.2406 8.08952 21.4199C7.29404 20.5992 6.21519 20.137 5.08957 20.1349H1.6933V6.12988C1.69356 4.96893 2.14106 3.85565 2.93747 3.03455C3.73387 2.21344 4.81401 1.75177 5.94056 1.75098ZM1.69718 35.892V21.8849H5.09345C5.76894 21.8859 6.4164 22.1632 6.89377 22.6558C7.37114 23.1483 7.63941 23.8158 7.63967 24.512V25.7269C7.20706 26.232 6.92507 26.8551 6.82759 27.5212C6.73011 28.1874 6.82127 28.8683 7.09011 29.4824C7.35895 30.0965 7.79405 30.6176 8.34319 30.9832C8.89232 31.3487 9.53216 31.5431 10.1859 31.5431C10.8396 31.5431 11.4795 31.3487 12.0286 30.9832C12.5777 30.6176 13.0128 30.0965 13.2817 29.4824C13.5505 28.8683 13.6417 28.1874 13.5442 27.5212C13.4467 26.8551 13.1647 26.232 12.7321 25.7269V24.5129C12.7324 23.8168 13.0006 23.1493 13.478 22.6567C13.9554 22.1642 14.6029 21.887 15.2784 21.886H19.5217V26.2639C19.5225 27.4238 19.9697 28.5361 20.7652 29.3567C21.5607 30.1772 22.6396 30.6391 23.7651 30.641H25.4623V30.601C25.6282 30.5644 25.7794 30.4769 25.896 30.35C26.1254 30.086 26.4271 29.9001 26.7613 29.8167C27.0955 29.7332 27.4463 29.7563 27.7675 29.8828C28.0886 30.0093 28.3649 30.2334 28.5598 30.5253C28.7548 30.8171 28.8591 31.1631 28.8591 31.5175C28.8591 31.8718 28.7548 32.2178 28.5598 32.5096C28.3649 32.8015 28.0886 33.0256 27.7675 33.1521C27.4463 33.2786 27.0955 33.3017 26.7613 33.2183C26.4271 33.1349 26.1254 32.9489 25.896 32.6849C25.7799 32.5572 25.6285 32.4693 25.4623 32.433V32.392H23.7632C22.6375 32.3938 21.5585 32.8559 20.7629 33.6766C19.9674 34.4974 19.5203 35.6098 19.5198 36.7699V40.2699H5.94056C4.81493 40.2678 3.73606 39.8057 2.94058 38.985C2.14509 38.1643 1.69795 37.052 1.69718 35.892ZM34.7952 40.2699H21.217V36.7699C21.2172 36.0738 21.4855 35.4062 21.9628 34.9137C22.4402 34.4212 23.0877 34.144 23.7632 34.1429H24.9412C25.4315 34.5882 26.036 34.8782 26.6823 34.9781C27.3285 35.0781 27.989 34.9839 28.5845 34.7067C29.1801 34.4295 29.6854 33.9811 30.0398 33.4153C30.3943 32.8495 30.5828 32.1904 30.5828 31.517C30.5828 30.8435 30.3943 30.1843 30.0398 29.6185C29.6854 29.0528 29.1801 28.6045 28.5845 28.3273C27.989 28.0501 27.3285 27.9558 26.6823 28.0558C26.036 28.1558 25.4315 28.4458 24.9412 28.891H23.7632C23.0879 28.8899 22.4405 28.6128 21.9632 28.1205C21.4858 27.6282 21.2175 26.9608 21.217 26.2649V21.887H25.4603C26.5859 21.8851 27.6647 21.4232 28.4603 20.6027C29.2558 19.7821 29.703 18.6698 29.7037 17.5099V15.7579H29.6639C29.6287 15.5872 29.5437 15.4316 29.4204 15.3119C29.1643 15.0757 28.9839 14.765 28.9029 14.4208C28.822 14.0766 28.8443 13.7152 28.967 13.3844C29.0897 13.0536 29.3069 12.7689 29.59 12.5681C29.8731 12.3673 30.2086 12.2598 30.5523 12.2598C30.896 12.2598 31.2315 12.3673 31.5146 12.5681C31.7977 12.7689 32.0149 13.0536 32.1376 13.3844C32.2603 13.7152 32.2827 14.0766 32.2017 14.4208C32.1208 14.765 31.9403 15.0757 31.6842 15.3119C31.5609 15.4315 31.4759 15.5872 31.4407 15.7579H31.4009V17.5099C31.4017 18.6698 31.8489 19.7821 32.6444 20.6027C33.4399 21.4232 34.5187 21.8851 35.6443 21.887H39.0405V35.8939C39.039 37.0536 38.5914 38.1654 37.7957 38.9855C37.0001 39.8056 35.9215 40.2671 34.7962 40.2689L34.7952 40.2699ZM39.0386 20.1339H35.6423C34.967 20.1329 34.3197 19.8558 33.8423 19.3635C33.365 18.8712 33.0966 18.2039 33.0961 17.5079V16.293C33.5287 15.7879 33.8107 15.1648 33.9082 14.4987C34.0057 13.8325 33.9145 13.1516 33.6457 12.5375C33.3768 11.9234 32.9417 11.4023 32.3926 11.0367C31.8434 10.6712 31.2036 10.4768 30.5499 10.4768C29.8961 10.4768 29.2563 10.6712 28.7072 11.0367C28.158 11.4023 27.7229 11.9234 27.4541 12.5375C27.1853 13.1516 27.0941 13.8325 27.1916 14.4987C27.2891 15.1648 27.571 15.7879 28.0037 16.293V17.5079C28.0034 18.204 27.7351 18.8714 27.2577 19.3638C26.7803 19.8561 26.1328 20.1331 25.4574 20.1339H21.214V15.756C21.213 14.5962 20.7657 13.4842 19.9702 12.6638C19.1747 11.8435 18.096 11.3817 16.9707 11.3799H15.2735V11.4199C15.1074 11.4565 14.9561 11.5445 14.8397 11.672C14.6103 11.9358 14.3086 12.1215 13.9744 12.2048C13.6403 12.2881 13.2895 12.265 12.9684 12.1384C12.6474 12.0118 12.3711 11.7878 12.1763 11.496C11.9814 11.2041 11.8771 10.8582 11.8771 10.5039C11.8771 10.1496 11.9814 9.80381 12.1763 9.51196C12.3711 9.22012 12.6474 8.99609 12.9684 8.86951C13.2895 8.74293 13.6403 8.71969 13.9744 8.80298C14.3086 8.88627 14.6103 9.07212 14.8397 9.33594C14.9557 9.46372 15.1073 9.55137 15.2735 9.58691V9.62891H16.9707C18.096 9.62705 19.1747 9.16531 19.9702 8.34497C20.7657 7.52463 21.213 6.41267 21.214 5.25293V1.75293H34.7962C35.9219 1.75478 37.0009 2.21682 37.7964 3.0376C38.592 3.85837 39.0391 4.97089 39.0396 6.13098L39.0386 20.1339Z" fill="#005586"/>
</svg>
