<svg width="85" height="83" viewBox="0 0 85 83" fill="none" xmlns="http://www.w3.org/2000/svg">
<path d="M10.96 33.8001C10.96 36.0401 11.44 38.4401 12.08 40.6801C15.28 51.5601 28.4 69.6401 78.32 70.6001L69.04 79.8801L71.28 82.1201L84.4 69.0001L71.28 55.8801L69.04 58.1201L78.32 67.4001C28.72 66.4401 17.68 47.8801 15.28 39.8801C14.96 38.6001 14.64 37.1601 14.48 35.8801C15.6 36.3601 16.56 36.6801 17.36 37.0001C26.48 39.4001 35.6 34.2801 38.8 28.0401C41.36 23.0801 40.08 17.8001 35.12 13.6401C30.8 9.96014 25.52 9.80014 20.56 13.0001C15.92 16.0401 11.92 22.2801 10.96 29.6401C5.67999 24.2001 2.95999 14.2801 3.43999 1.00014L0.239988 0.840149C-0.240011 20.5201 5.51999 29.6401 10.96 33.8001ZM22.48 15.8801C24.56 14.4401 28.88 12.6801 33.2 16.2001C36.88 19.2401 37.84 22.9201 36.08 26.6001C33.52 31.7201 25.68 35.7201 18.16 33.8001C16.72 33.4801 15.44 32.8401 14.32 32.2001C14.48 25.0001 18 18.7601 22.48 15.8801Z" fill="white"/>
</svg>
