<svg width="46" height="49" viewBox="0 0 46 49" fill="none" xmlns="http://www.w3.org/2000/svg">
<path d="M23.6796 4.9043C21.7868 4.9043 20.2471 6.44407 20.2471 8.33681C20.2471 10.2295 21.7868 11.7692 23.6796 11.7692C25.5723 11.7692 27.1121 10.2294 27.1121 8.33681C27.1122 6.44407 25.5723 4.9043 23.6796 4.9043ZM23.6796 10.3993C22.5423 10.3993 21.6169 9.47401 21.6169 8.33672C21.6169 7.19942 22.5422 6.27409 23.6796 6.27409C24.817 6.27409 25.7422 7.19933 25.7422 8.33672C25.7422 9.4741 24.817 10.3993 23.6796 10.3993Z" fill="#005586"/>
<path d="M23.6796 1.24121C23.3012 1.24121 22.9946 1.54793 22.9946 1.92615V2.84195C22.9946 3.22026 23.3013 3.52689 23.6796 3.52689C24.0579 3.52689 24.3645 3.22017 24.3645 2.84195V1.92615C24.3646 1.54793 24.058 1.24121 23.6796 1.24121Z" fill="#005586"/>
<path d="M20.2788 3.96722L19.6312 3.31971C19.3638 3.05224 18.9301 3.05233 18.6625 3.31971C18.395 3.58718 18.395 4.02091 18.6626 4.28847L19.3101 4.93607C19.4438 5.06981 19.6192 5.13668 19.7944 5.13668C19.9697 5.13668 20.145 5.06981 20.2789 4.93598C20.5463 4.66842 20.5463 4.23469 20.2788 3.96722Z" fill="#005586"/>
<path d="M18.1847 7.65137H17.2689C16.8905 7.65137 16.584 7.95809 16.584 8.33631C16.584 8.71462 16.8906 9.02125 17.2689 9.02125H18.1847C18.5631 9.02125 18.8697 8.71453 18.8697 8.33631C18.8697 7.95809 18.563 7.65137 18.1847 7.65137Z" fill="#005586"/>
<path d="M20.2789 11.7377C20.0113 11.4702 19.5777 11.4702 19.31 11.7377L18.6625 12.3852C18.395 12.6527 18.395 13.0864 18.6625 13.3539C18.7963 13.4876 18.9717 13.5546 19.1469 13.5546C19.3222 13.5546 19.4975 13.4877 19.6314 13.3539L20.2789 12.7064C20.5464 12.4389 20.5464 12.0052 20.2789 11.7377Z" fill="#005586"/>
<path d="M23.6801 13.1465C23.3017 13.1465 22.9951 13.4532 22.9951 13.8314V14.7472C22.9951 15.1255 23.3017 15.4322 23.6801 15.4322C24.0584 15.4322 24.365 15.1254 24.365 14.7472V13.8314C24.3651 13.4532 24.0585 13.1465 23.6801 13.1465Z" fill="#005586"/>
<path d="M28.6973 12.3853L28.0498 11.7378C27.7823 11.4703 27.3486 11.4702 27.0811 11.7377C26.8135 12.0051 26.8135 12.4389 27.081 12.7064L27.7285 13.3539C27.8623 13.4877 28.0376 13.5545 28.2129 13.5545C28.3882 13.5545 28.5635 13.4877 28.6972 13.3539C28.9648 13.0865 28.9648 12.6527 28.6973 12.3853Z" fill="#005586"/>
<path d="M30.0905 7.65234H29.1747C28.7963 7.65234 28.4897 7.95906 28.4897 8.33728C28.4897 8.7155 28.7964 9.02222 29.1747 9.02222H30.0905C30.4689 9.02222 30.7754 8.7155 30.7754 8.33728C30.7754 7.95906 30.4689 7.65234 30.0905 7.65234Z" fill="#005586"/>
<path d="M28.6971 3.31971C28.4298 3.05224 27.996 3.05233 27.7285 3.31971L27.081 3.96722C26.8135 4.23469 26.8135 4.66842 27.0811 4.93598C27.2147 5.06981 27.39 5.13668 27.5653 5.13668C27.7406 5.13668 27.9159 5.06981 28.0497 4.93598L28.6972 4.28847C28.9647 4.021 28.9647 3.58727 28.6971 3.31971Z" fill="#005586"/>
<path d="M42.6794 36.3273C42.6788 36.3153 42.6787 36.3034 42.6775 36.2914C42.6752 36.2674 42.6716 36.2437 42.6666 36.2204C42.6666 36.2198 42.6666 36.2194 42.6664 36.2188L41.4465 30.4244C41.446 30.4223 41.4456 30.4203 41.4452 30.4183L40.2254 24.6242C40.225 24.6221 40.2245 24.6201 40.2242 24.618L39.0032 18.8183C38.9365 18.5013 38.6569 18.2744 38.3329 18.2744H9.02656C8.70258 18.2744 8.42303 18.5013 8.35625 18.8183L7.13555 24.6174C7.13501 24.6198 7.13446 24.6222 7.13401 24.6247L5.91431 30.4188C5.91395 30.4204 5.91358 30.4222 5.91331 30.4238L4.69352 36.2183C4.68843 36.2427 4.68453 36.2677 4.68207 36.293C4.68153 36.2988 4.68162 36.3048 4.68116 36.3106C4.67998 36.3269 4.67871 36.3431 4.67871 36.3598V39.1074C4.67871 39.4857 4.98534 39.7924 5.36365 39.7924H21.6209V43.6405H16.353C15.9746 43.6405 15.6681 43.9472 15.6681 44.3255V46.3882H9.02665C8.64825 46.3882 8.34172 46.6949 8.34172 47.0731C8.34172 47.4513 8.64834 47.7581 9.02665 47.7581H16.3531H31.0063H38.3318C38.7102 47.7581 39.0167 47.4513 39.0167 47.0731C39.0167 46.6949 38.7101 46.3882 38.3318 46.3882H31.6913V44.3255C31.6913 43.9472 31.3847 43.6405 31.0064 43.6405H25.7386V39.7924H41.9959C42.3743 39.7924 42.6808 39.4856 42.6808 39.1074V36.372C42.6809 36.3711 42.6809 36.37 42.6809 36.3689V36.36C42.681 36.3489 42.6799 36.3382 42.6794 36.3273ZM41.1519 35.6749H30.424L30.113 31.2447H40.2192L41.1519 35.6749ZM38.9982 25.4445L39.931 29.8748H30.0168L29.7059 25.4445H38.9982ZM37.7771 19.6444L38.7099 24.0746H29.6097L29.2987 19.6444H37.7771ZM19.4339 19.6444H27.9255L28.2365 24.0746H19.123L19.4339 19.6444ZM19.027 25.4445H28.3326L28.6436 29.8748H18.7161L19.027 25.4445ZM18.6201 31.2447H28.7397L29.0506 35.6749H18.3092L18.6201 31.2447ZM9.5824 19.6444H18.0607L17.7498 24.0746H8.64971L9.5824 19.6444ZM8.36143 25.4445H17.6537L17.3428 29.8748H7.42874L8.36143 25.4445ZM30.3215 45.0107V46.3884H17.0381V45.0107H22.306H25.0537H30.3215ZM22.9909 43.6407V39.7925H24.3687V43.6407H22.9909ZM25.0616 38.4226C25.059 38.4226 25.0564 38.4222 25.0537 38.4222H22.306C22.3033 38.4222 22.3007 38.4226 22.2981 38.4226H6.04859V37.0449H9.31157C9.68997 37.0449 9.99651 36.7382 9.99651 36.3599C9.99651 35.9816 9.68988 35.675 9.31157 35.675H6.20776L7.14037 31.2447H17.2467L16.9358 35.6749H12.2737C11.8953 35.6749 11.5887 35.9816 11.5887 36.3599C11.5887 36.7382 11.8953 37.0448 12.2736 37.0448H17.5738C17.5743 37.0448 17.5746 37.0448 17.5751 37.0448C17.5754 37.0448 17.5757 37.0448 17.576 37.0448H29.7836C29.7839 37.0448 29.7843 37.0448 29.7845 37.0448C29.785 37.0448 29.7853 37.0448 29.7858 37.0448H41.3108V38.4225H25.0616V38.4226Z" fill="#005586"/>
</svg>
