<svg width="46" height="49" viewBox="0 0 46 49" fill="none" xmlns="http://www.w3.org/2000/svg">
<g clip-path="url(#clip0_153_7860)">
<path d="M16.3939 27.6258C16.0539 27.4875 15.6679 27.6479 15.5299 27.9879C15.503 28.0502 14.8451 29.5173 12.6344 29.5173C10.3983 29.5173 9.60042 28.0242 9.56169 27.9485C9.39913 27.6217 9.00346 27.4871 8.67558 27.6472C8.34597 27.8084 8.20935 28.2058 8.37018 28.5354C8.41618 28.6295 9.53367 30.8455 12.6344 30.8455C15.7669 30.8455 16.7187 28.5901 16.7578 28.4939C16.8958 28.1543 16.7335 27.7638 16.3939 27.6258Z" fill="#005586"/>
<path d="M10.193 24.6312C10.2926 24.6848 10.4002 24.71 10.506 24.71C10.7409 24.71 10.9688 24.5852 11.0891 24.3645C11.2652 24.0428 11.1472 23.6396 10.8252 23.4635C10.7702 23.4331 9.45735 22.7331 7.7339 23.3134C7.38596 23.4303 7.19919 23.807 7.31609 24.1546C7.43334 24.5022 7.80999 24.6886 8.15758 24.572C9.30344 24.186 10.147 24.6076 10.193 24.6312Z" fill="#005586"/>
<path d="M17.3761 23.3144C15.6519 22.734 14.3394 23.4341 14.2844 23.4645C13.9627 23.6402 13.8413 24.0456 14.0174 24.3672C14.1384 24.5882 14.3653 24.7138 14.5998 24.7138C14.7067 24.7138 14.815 24.6878 14.9159 24.6328C14.9512 24.6145 15.7986 24.1846 16.9524 24.573C17.3 24.6896 17.6766 24.5031 17.7935 24.1555C17.9104 23.8079 17.7237 23.4313 17.3761 23.3144Z" fill="#005586"/>
<path d="M26.352 10.3612C25.2656 10.3612 24.375 11.194 24.3245 12.2572C24.2989 12.7964 24.493 13.3024 24.8316 13.6815C24.493 14.0605 24.2989 14.5665 24.3245 15.1058C24.3598 15.8497 24.8067 16.4813 25.4444 16.7932C25.2988 17.0716 25.2231 17.3902 25.2241 17.7381C25.2269 18.5623 25.7599 19.2669 26.5035 19.5384C26.3869 19.7812 26.3229 20.0499 26.3167 20.3383C26.3053 20.8526 26.5007 21.342 26.867 21.7163C27.2388 22.0964 27.7552 22.3143 28.2836 22.3143H37.6912C39.2808 22.3143 40.5736 21.0211 40.5736 19.4315V14.9013C40.5736 13.3961 39.0518 12.013 37.4076 10.7423C36.5854 10.1073 35.948 9.26443 35.5644 8.30466L34.4566 5.53463C34.0893 4.58142 32.8148 4.91138 32.3949 5.01998C31.9225 5.14241 31.5303 5.44747 31.2899 5.87945C30.9205 6.54386 30.9101 7.45141 31.2584 8.57685L31.6278 10.0029C30.7555 10.2567 29.6335 10.3383 28.8228 10.3615H26.352V10.3612ZM28.8505 11.6893C29.7944 11.663 31.1388 11.5606 32.1822 11.2217C32.7681 11.0315 33.1064 10.4158 32.9521 9.82024L32.5402 8.22857C32.5374 8.21785 32.5343 8.20747 32.5312 8.1971C32.3451 7.60082 32.1338 6.45947 32.728 6.30556C33.0178 6.23051 33.1928 6.20699 33.2928 6.20111L34.3311 8.79786C34.8028 9.97761 35.5855 11.0135 36.5951 11.7934C37.3201 12.3534 39.2455 13.8413 39.2455 14.9013V19.4318C39.2455 20.2889 38.5482 20.9865 37.6912 20.9865H28.2836C27.944 20.9865 27.6369 20.7091 27.6445 20.3677C27.6469 20.2564 27.6542 19.9167 28.2366 19.703C28.5593 19.584 28.7495 19.2523 28.6893 18.9144C28.6288 18.5758 28.3355 18.3302 27.9917 18.3302H27.1821C26.8476 18.3302 26.5522 18.0515 26.5522 17.7336C26.5522 17.4144 26.7452 17.0014 27.2025 17.0014C27.2066 17.0014 28.1636 17.0021 28.1636 17.0021C28.5306 17.0021 28.8277 16.7047 28.8277 16.3381C28.8277 15.9711 28.5306 15.674 28.1636 15.674C27.502 15.674 27.024 15.674 26.352 15.674C25.9822 15.674 25.6679 15.3911 25.6513 15.0431C25.6353 14.7097 25.8695 14.4147 26.1956 14.3563C26.3115 14.3355 26.4844 14.3514 27.9343 14.3459C28.3013 14.3459 28.5984 14.0484 28.5984 13.6818C28.5984 13.3149 28.3013 13.0178 27.9343 13.0178H26.3146C25.929 13.0178 25.6336 12.6933 25.6513 12.3205C25.6679 11.9726 25.9822 11.6896 26.352 11.6896H28.8322C28.8384 11.6893 28.8446 11.6893 28.8505 11.6893Z" fill="#005586"/>
<path d="M39.5366 2H29.3333C28.9666 2 28.6692 2.29744 28.6692 2.66406C28.6692 3.03102 28.9666 3.32812 29.3333 3.32812H39.5366C42.5519 3.32812 45.0051 5.77373 45.0051 8.77965V23.5069C45.0051 26.5125 42.5519 28.9581 39.5366 28.9581H31.8567C31.4901 28.9581 31.1926 29.2556 31.1926 29.6222C31.1926 30.8794 30.9076 32.4693 28.8179 33.0455C29.5436 31.9236 29.474 30.3775 29.2475 29.4624C29.1738 29.1663 28.9079 28.9581 28.6028 28.9581H20.825C20.9803 28.4397 21.0889 27.9011 21.1442 27.3474C23.0596 27.6933 24.1093 25.6544 24.1093 23.6041C24.1093 22.1736 23.6196 21.0855 22.786 20.5608C23.1893 19.7052 23.3609 18.5635 22.674 17.2226C22.7757 14.0205 21.469 12.3642 20.3425 11.5355C19.4152 10.8535 18.4634 10.6169 18.0079 10.538C17.6382 10.1763 16.7403 9.45547 15.1666 9.0719V8.77965C15.1666 5.77373 17.6195 3.32812 20.6351 3.32812H26.4999C26.8666 3.32812 27.164 3.03102 27.164 2.66406C27.164 2.29744 26.8666 2 26.4999 2H20.6351C16.8873 2 13.8385 5.04154 13.8385 8.77965V8.85677C12.7044 8.75786 11.3234 8.83637 9.66254 9.23653C8.61699 9.48867 7.66344 9.81448 6.82886 10.2056C6.49649 10.3613 6.35365 10.7566 6.50928 11.0886C6.66458 11.421 7.0599 11.5639 7.39228 11.4082C8.14626 11.0551 9.01473 10.7587 9.97381 10.5276C11.8048 10.0867 13.2263 10.0728 14.3044 10.2451C14.3573 10.2617 14.4133 10.2707 14.4714 10.2734C16.344 10.6165 17.1156 11.5179 17.1623 11.5742C17.2774 11.7202 17.4483 11.8115 17.634 11.8253C17.6434 11.8264 18.6201 11.9173 19.5553 12.6053C20.8447 13.5536 21.4451 15.1484 21.34 17.345C21.3341 17.4692 21.3632 17.5926 21.424 17.7012C21.9667 18.6704 21.9352 19.5641 21.3286 20.4343C20.9038 21.043 20.329 21.4352 20.1737 21.5345C20.1059 21.5559 19.9375 21.5971 19.8047 21.5355C19.6546 21.4656 19.5598 21.2571 19.5069 21.0938C19.0884 19.8037 18.5264 19.2846 18.0307 18.8267C17.5389 18.3722 17.1142 17.9797 16.7275 16.7031C16.6504 16.4485 16.4287 16.2642 16.1645 16.2355C15.8995 16.2061 15.6436 16.3382 15.5132 16.5703C15.26 17.0209 14.4887 18.3916 11.2072 18.274C8.4565 18.1737 6.19697 19.1473 5.30948 20.8123C5.06184 21.2764 4.84602 21.4414 4.74779 21.4822C2.56193 20.205 3.45841 18.2536 3.56839 18.035C3.64276 17.8908 3.66178 17.7248 3.622 17.5674C3.61543 17.5418 3.00152 14.9852 5.22059 12.8546C5.48518 12.6008 5.49382 12.1802 5.23996 11.9156C4.98575 11.651 4.56552 11.6424 4.30094 11.8966C1.93211 14.1706 2.15173 16.8418 2.28627 17.6521C2.15796 17.9707 1.95978 18.5867 1.97465 19.332C1.9826 19.7166 2.04866 20.161 2.23266 20.6193C1.44859 21.164 1 22.2217 1 23.6041C1 25.6883 2.07806 27.6874 3.96441 27.3474C4.16017 29.3271 5.02552 31.1623 6.45014 32.5859C7.37637 33.5128 8.47656 34.2025 9.67706 34.6255V35.8446L7.2318 36.6654C7.06025 36.7231 6.92467 36.8463 6.84789 37.0019C3.69671 38.0879 1.53125 41.3792 1.53125 45.173V46.6692C1.53125 47.0361 1.82869 47.3332 2.19531 47.3332H22.914C23.2806 47.3332 23.5781 47.0361 23.5781 46.6692V45.173C23.5781 44.1565 23.4228 43.1617 23.1167 42.2165C23.0036 41.8675 22.6294 41.6763 22.2804 41.7894C21.9314 41.9025 21.7401 42.277 21.8532 42.626C22.1164 43.4388 22.2499 44.2955 22.2499 45.173V46.0051H14.5977L16.7614 44.4325C16.9333 44.3076 17.035 44.108 17.035 43.8953V42.5316L18.056 41.7914C18.2282 41.6662 18.3303 41.4667 18.3303 41.2536V38.458C19.2105 38.8613 20.0008 39.497 20.6482 40.3302C20.779 40.4982 20.9751 40.5864 21.1729 40.5864C21.3154 40.5864 21.459 40.5408 21.58 40.4467C21.8695 40.2215 21.9217 39.8044 21.6969 39.5149C20.7686 38.321 19.5875 37.4598 18.2611 37.0015C18.1847 36.8463 18.0491 36.7231 17.8772 36.6654L15.4323 35.8446V34.621C17.5662 33.8642 19.317 32.2905 20.3065 30.2779C20.4165 30.2831 20.5262 30.2862 20.6348 30.2862H28.039C28.0684 30.5605 28.0854 30.9174 28.0428 31.2858C27.9363 32.2158 27.5185 32.7702 26.7659 32.9809C26.3616 33.094 26.1001 33.4948 26.1575 33.913C26.2118 34.3079 26.5408 34.5947 26.9392 34.5947C28.5748 34.5947 29.8766 34.2429 30.8087 33.5488C31.7969 32.8124 32.3613 31.7171 32.4917 30.2862H39.537C43.2844 30.2862 46.3332 27.245 46.3332 23.5069V8.77965C46.3332 5.04154 43.2844 2 39.5366 2ZM21.1875 25.9864V22.4458C21.4233 22.2698 21.736 22.0076 22.0417 21.6662C22.5802 21.9772 22.7812 22.8276 22.7812 23.6041C22.7812 24.7849 22.271 26.4094 21.1875 25.9864ZM2.32812 23.6041C2.32812 22.8947 2.49898 22.1048 2.95241 21.7441C3.20835 22.0201 3.52654 22.2874 3.92187 22.5347V25.9864C2.83551 26.4105 2.32812 24.7849 2.32812 23.6041ZM8.10718 37.7725L9.6359 37.2592L11.4939 45.0771L9.40245 43.5571V42.193C9.40245 41.9803 9.30042 41.7804 9.12817 41.6555L8.10718 40.915V37.7725ZM11.167 37.9586H13.9423L12.5547 43.7968L11.167 37.9586ZM2.85937 45.173C2.85937 42.157 4.43375 39.5246 6.77906 38.4569V41.2536C6.77906 41.4663 6.88109 41.6662 7.05333 41.7911L8.07432 42.5316V43.8953C8.07432 44.1077 8.17601 44.3076 8.3479 44.4325L10.5116 46.0051H2.85937V45.173ZM17.0021 37.7725V40.915L15.9811 41.6555C15.8089 41.7804 15.7069 41.9803 15.7069 42.193V43.5571L13.6154 45.0771L15.4734 37.2592L17.0021 37.7725ZM14.1041 36.6304H11.0052V34.9762C12.0279 35.1605 13.0807 35.1612 14.1041 34.9748V36.6304ZM7.38917 31.6469C6.00986 30.2682 5.24999 28.4338 5.24999 26.4817V22.7142C5.6301 22.5593 6.07349 22.2023 6.48127 21.4369C7.11835 20.242 8.9549 19.5215 11.1591 19.6014C13.2616 19.6772 14.8477 19.2141 15.8943 18.2221C16.2917 19.028 16.7299 19.433 17.1298 19.802C17.578 20.2164 17.9322 20.5436 18.2438 21.504C18.4921 22.2694 18.9397 22.6053 19.2717 22.7522C19.474 22.8418 19.6743 22.8813 19.8593 22.892V26.4817C19.8593 32.9466 11.9767 36.2372 7.38917 31.6469Z" fill="#005586"/>
</g>
<defs>
<clipPath id="clip0_153_7860">
<rect width="45.3616" height="48" fill="white" transform="translate(0.5 0.5)"/>
</clipPath>
</defs>
</svg>
