<svg width="51" height="49" viewBox="0 0 51 49" fill="none" xmlns="http://www.w3.org/2000/svg">
<path d="M48.3482 10.5979H35.5143C35.1543 10.5979 34.8624 10.8897 34.8624 11.2497C34.8624 11.6097 35.1543 11.9015 35.5143 11.9015H46.7338L36.6854 21.5961H5.2662L15.3146 11.9015H15.8753C16.2353 11.9015 16.5272 11.6097 16.5272 11.2497C16.5272 10.8897 16.2353 10.5979 15.8753 10.5979H15.0513C14.8825 10.5979 14.7202 10.6634 14.5988 10.7807L3.19927 21.7789C3.07189 21.9017 3 22.071 3 22.2479V47.3482C3 47.7082 3.29183 48 3.65182 48H36.9486C37.1174 48 37.2797 47.9345 37.4011 47.8172L48.8007 36.819C48.928 36.6963 49 36.5269 49 36.35V11.2497C49 10.8897 48.7082 10.5979 48.3482 10.5979ZM36.2967 46.6964H26.5014V22.8997H36.2967V46.6964ZM25.1978 46.6964H15.4025V22.8997H25.1977L25.1978 46.6964ZM4.30364 22.8997H14.0989V46.6964H4.30364V22.8997ZM37.6004 45.8136V22.5248L47.6964 12.7843V36.0731L37.6004 45.8136ZM20.4382 11.2497C20.4382 10.8897 20.73 10.5979 21.09 10.5979H30.2998C30.6598 10.5979 30.9516 10.8897 30.9516 11.2497C30.9516 11.6097 30.6598 11.9015 30.2998 11.9015H21.09C20.7299 11.9015 20.4382 11.6097 20.4382 11.2497ZM23.1619 37.5833H17.4999C17.1399 37.5833 16.848 37.8752 16.848 38.2351V42.4003C16.848 42.7603 17.1399 43.0521 17.4999 43.0521H23.1619C23.5219 43.0521 23.8137 42.7603 23.8137 42.4003V38.2351C23.8137 37.8752 23.5219 37.5833 23.1619 37.5833ZM22.5101 41.7485H18.1517V38.887H22.5101V41.7485ZM16.7867 27.1959C16.7867 26.8359 17.0785 26.5441 17.4385 26.5441H23.1005C23.4605 26.5441 23.7523 26.8359 23.7523 27.1959C23.7523 27.5559 23.4605 27.8477 23.1005 27.8477H17.4385C17.0784 27.8477 16.7867 27.5559 16.7867 27.1959ZM16.7867 29.6365C16.7867 29.2765 17.0785 28.9847 17.4385 28.9847H23.1005C23.4605 28.9847 23.7523 29.2765 23.7523 29.6365C23.7523 29.9965 23.4605 30.2883 23.1005 30.2883H17.4385C17.0784 30.2883 16.7867 29.9965 16.7867 29.6365ZM16.7867 32.0772C16.7867 31.7172 17.0785 31.4254 17.4385 31.4254H23.1005C23.4605 31.4254 23.7523 31.7172 23.7523 32.0772C23.7523 32.4372 23.4605 32.729 23.1005 32.729H17.4385C17.0784 32.729 16.7867 32.4372 16.7867 32.0772ZM34.2608 37.5833H28.5987C28.2387 37.5833 27.9469 37.8752 27.9469 38.2351V42.4003C27.9469 42.7603 28.2387 43.0521 28.5987 43.0521H34.2608C34.6208 43.0521 34.9126 42.7603 34.9126 42.4003V38.2351C34.9126 37.8752 34.6208 37.5833 34.2608 37.5833ZM33.609 41.7485H29.2505V38.887H33.609V41.7485ZM27.8856 32.0772C27.8856 31.7172 28.1775 31.4254 28.5374 31.4254H34.1995C34.5594 31.4254 34.8513 31.7172 34.8513 32.0772C34.8513 32.4372 34.5594 32.729 34.1995 32.729H28.5374C28.1775 32.729 27.8856 32.4372 27.8856 32.0772ZM27.8856 29.6365C27.8856 29.2765 28.1775 28.9847 28.5374 28.9847H34.1995C34.5594 28.9847 34.8513 29.2765 34.8513 29.6365C34.8513 29.9965 34.5594 30.2883 34.1995 30.2883H28.5374C28.1775 30.2883 27.8856 29.9965 27.8856 29.6365ZM27.8856 27.1959C27.8856 26.8359 28.1775 26.5441 28.5374 26.5441H34.1995C34.5594 26.5441 34.8513 26.8359 34.8513 27.1959C34.8513 27.5559 34.5594 27.8477 34.1995 27.8477H28.5374C28.1775 27.8477 27.8856 27.5559 27.8856 27.1959ZM12.0629 37.5833H6.40083C6.04084 37.5833 5.74901 37.8752 5.74901 38.2351V42.4003C5.74901 42.7603 6.04084 43.0521 6.40083 43.0521H12.0629C12.4229 43.0521 12.7148 42.7603 12.7148 42.4003V38.2351C12.7148 37.8752 12.4229 37.5833 12.0629 37.5833ZM11.4111 41.7485H7.05266V38.887H11.4111V41.7485ZM5.68774 29.6365C5.68774 29.2765 5.97957 28.9847 6.33956 28.9847H12.0016C12.3616 28.9847 12.6534 29.2765 12.6534 29.6365C12.6534 29.9965 12.3616 30.2883 12.0016 30.2883H6.33956C5.97957 30.2883 5.68774 29.9965 5.68774 29.6365ZM5.68774 27.1959C5.68774 26.8359 5.97957 26.5441 6.33956 26.5441H12.0016C12.3616 26.5441 12.6534 26.8359 12.6534 27.1959C12.6534 27.5559 12.3616 27.8477 12.0016 27.8477H6.33956C5.97957 27.8477 5.68774 27.5559 5.68774 27.1959ZM5.68774 32.0772C5.68774 31.7172 5.97957 31.4254 6.33956 31.4254H12.0016C12.3616 31.4254 12.6534 31.7172 12.6534 32.0772C12.6534 32.4372 12.3616 32.729 12.0016 32.729H6.33956C5.97957 32.729 5.68774 32.4372 5.68774 32.0772ZM42.6484 23.0116C40.4306 23.0116 38.6932 25.7732 38.6932 29.299C38.6932 32.8247 40.4305 35.5863 42.6484 35.5863C44.8662 35.5863 46.6035 32.8247 46.6035 29.299C46.6035 25.7732 44.8661 23.0116 42.6484 23.0116ZM42.6484 34.2827C41.2111 34.2827 39.9968 32.0004 39.9968 29.299C39.9968 26.5975 41.2111 24.3152 42.6484 24.3152C44.0856 24.3152 45.2999 26.5975 45.2999 29.299C45.2999 32.0004 44.0856 34.2827 42.6484 34.2827ZM43.9394 28.9035C44.0626 29.0649 44.1036 29.2748 44.05 29.4708L43.1343 32.8204C43.055 33.1101 42.7924 33.3005 42.5059 33.3005C42.449 33.3005 42.3913 33.2929 42.3336 33.2772C41.9864 33.1822 41.7818 32.8238 41.8768 32.4766L42.5673 29.9508H41.8755C41.6722 29.9508 41.4807 29.856 41.3574 29.6944C41.2341 29.533 41.1931 29.3232 41.2468 29.1271L42.1624 25.7775C42.2574 25.4303 42.6157 25.2254 42.963 25.3207C43.3102 25.4157 43.5148 25.774 43.4198 26.1213L42.7294 28.6471H43.4212C43.6244 28.6471 43.8161 28.7419 43.9394 28.9035ZM3.65182 3.30364H17.8309V12.9052C16.9463 13.1324 16.2365 13.7985 15.9463 14.6563L12.4244 18.0542C12.2331 18.2387 12.1731 18.5209 12.2725 18.7673C12.3721 19.0137 12.6112 19.175 12.877 19.175H35.4446C35.6134 19.175 35.7757 19.1095 35.8972 18.9923L39.5755 15.4435C39.7668 15.259 39.8268 14.9767 39.7274 14.7304C39.6278 14.484 39.3887 14.3226 39.1229 14.3226H35.2932C34.95 13.6317 34.3196 13.1077 33.5589 12.9084V3.30364H48.3482C48.7082 3.30364 49 3.01181 49 2.65182C49 2.29183 48.7082 2 48.3482 2H32.9071C32.5471 2 32.2553 2.29183 32.2553 2.65182V12.8936C31.4669 13.0801 30.8115 13.613 30.459 14.3226H20.9188C20.5682 13.6167 19.9175 13.0854 19.1345 12.8964V2.65182C19.1345 2.29183 18.8426 2 18.4826 2H3.65182C3.29183 2 3 2.29183 3 2.65182C3 3.01181 3.29183 3.30364 3.65182 3.30364ZM15.8043 16.6047V17.8714H14.4913L15.8043 16.6047ZM30.1787 17.8714H21.1991V15.6262H30.1787V17.8714ZM35.5736 17.4932V15.6262H37.5087L35.5736 17.4932ZM32.2553 14.2721V14.9744C32.2553 15.3344 32.5471 15.6262 32.9071 15.6262C33.2671 15.6262 33.5589 15.3344 33.5589 14.9744V14.3043C33.9827 14.5437 34.2699 14.9977 34.2699 15.5181V17.8714H31.4824V15.5181C31.4824 14.9728 31.7979 14.501 32.2553 14.2721ZM19.8954 15.5181V17.8714H17.1078V15.5181C17.1078 14.9928 17.4003 14.5346 17.8308 14.2971V14.9744C17.8308 15.3344 18.1226 15.6262 18.4826 15.6262C18.8426 15.6262 19.1345 15.3344 19.1345 14.9744V14.2779C19.5854 14.5089 19.8954 14.9776 19.8954 15.5181Z" fill="#005586"/>
</svg>
