<svg width="33" height="32" viewBox="0 0 33 32" fill="none" xmlns="http://www.w3.org/2000/svg">
<path d="M32.5687 30.6141C32.3337 30.182 21.4349 10.1403 21.4327 10.1364V7.49988H27.9951C28.3743 7.49988 28.7162 7.27144 28.8612 6.92113C29.0063 6.57083 28.9261 6.16759 28.658 5.89946L26.5085 3.74994L28.658 1.60035C28.9261 1.33223 29.0063 0.928985 28.8612 0.578678C28.7162 0.228434 28.3743 0 27.9951 0H20.4952C19.9775 0 19.5578 0.419743 19.5578 0.937484V10.1353L12.8734 22.3591L9.99348 17.4037C9.82561 17.1148 9.51687 16.9372 9.18294 16.9372C9.18206 16.9372 9.18112 16.9372 9.18025 16.9372C8.84532 16.9382 8.53632 17.1178 8.3697 17.4083L0.807324 30.5956C0.640952 30.8857 0.641765 31.2425 0.809387 31.5319C0.977009 31.8213 1.28613 31.9995 1.62056 31.9995C2.0233 31.9995 31.4258 31.9995 31.7451 31.9995C32.0757 31.9995 32.3819 31.8253 32.5509 31.541C32.7199 31.2568 32.7267 30.9046 32.5687 30.6141ZM21.4327 1.87497H25.7318L24.5198 3.08707C24.1537 3.45313 24.1537 4.04675 24.5198 4.4128L25.7318 5.62491H21.4327V1.87497ZM20.4929 12.333L24.6131 19.9094L23.27 21.8868L21.2452 19.1872C21.0682 18.9511 20.7903 18.8122 20.4952 18.8122C20.2002 18.8122 19.9223 18.9511 19.7453 19.1872L17.7205 21.8868L16.3622 19.887L20.4929 12.333ZM3.23885 30.1245L9.18837 19.7497L11.8221 24.2815L8.62707 30.1245H3.23885ZM10.7641 30.1245C11.2952 29.1533 14.8219 22.7038 15.3513 21.7356L16.9073 24.0264C17.0774 24.2768 17.3581 24.4297 17.6609 24.4368C17.963 24.4437 18.2511 24.3043 18.4328 24.0621L20.4952 21.3121L22.5577 24.0621C22.735 24.2985 23.013 24.4371 23.3076 24.4371C23.315 24.4371 23.3223 24.437 23.3296 24.4368C23.6324 24.4297 23.9131 24.2768 24.0832 24.0264L25.6208 21.7626L30.1682 30.1245H10.7641Z" fill="white"/>
</svg>
