<svg width="58" height="59" viewBox="0 0 58 59" fill="none" xmlns="http://www.w3.org/2000/svg">
<path d="M14.4307 22.6504C13.8996 22.6504 13.4686 22.2194 13.4686 21.6883V18.2037C13.4686 17.9016 13.6091 17.6187 13.8496 17.4378C14.8309 16.6951 15.3928 15.5791 15.3928 14.3765V11.4903C15.3928 9.36791 13.6668 7.64193 11.5445 7.64193C9.42211 7.64193 7.69613 9.36791 7.69613 11.4903V14.3765C7.69613 15.5791 8.25799 16.6951 9.23931 17.4378C9.47983 17.6187 9.6203 17.9035 9.6203 18.2056V21.6902C9.6203 22.2213 9.18928 22.6523 8.65821 22.6523C8.12715 22.6523 7.69613 22.2194 7.69613 21.6883V18.6578C6.46659 17.5591 5.77197 16.0236 5.77197 14.3765V11.4903C5.77197 8.30769 8.36189 5.71777 11.5445 5.71777C14.727 5.71777 17.3169 8.30769 17.3169 11.4903V14.3765C17.3169 16.0236 16.6223 17.5571 15.3928 18.6578V21.6883C15.3928 22.2194 14.9618 22.6504 14.4307 22.6504Z" fill="#005586"/>
<path d="M12.5127 20.0514C12.0663 20.0514 11.6661 19.7378 11.5718 19.2837C11.4659 18.7623 11.8007 18.2543 12.3222 18.1484C14.1001 17.7809 15.3932 16.1954 15.3932 14.3752C15.3932 13.8441 15.8242 13.4131 16.3552 13.4131C16.8863 13.4131 17.3173 13.8441 17.3173 14.3752C17.3173 17.1036 15.3778 19.4819 12.707 20.0303C12.6416 20.0437 12.5781 20.0514 12.5127 20.0514Z" fill="#005586"/>
<path d="M18.0373 24.1577C17.9103 24.1577 17.7813 24.1326 17.6582 24.0788L14.0523 22.5298C13.5636 22.3201 13.3384 21.7544 13.5482 21.2656C13.756 20.775 14.3217 20.5537 14.8104 20.7615L18.4163 22.3105C18.905 22.5202 19.1302 23.0859 18.9204 23.5746C18.7646 23.9402 18.4086 24.1577 18.0373 24.1577Z" fill="#005586"/>
<path d="M5.77248 35.8044C5.63972 35.8044 5.5031 35.7775 5.37418 35.7178L1.69134 34.0438C0.663836 33.5743 0 32.543 0 31.4154V28.7485C0 26.0509 1.59705 23.6264 4.06768 22.572L8.27582 20.7459C8.7684 20.5343 9.33026 20.7575 9.54192 21.2443C9.75165 21.7311 9.52845 22.2987 9.04163 22.5104L4.82964 24.3384C3.06326 25.0945 1.92416 26.8244 1.92416 28.7485V31.4154C1.92416 31.7906 2.14544 32.137 2.48794 32.2928L6.17078 33.9669C6.65375 34.1862 6.86733 34.7577 6.64798 35.2406C6.48635 35.5947 6.13615 35.8044 5.77248 35.8044Z" fill="#005586"/>
<path d="M15.2754 13.2412C13.3589 13.2412 11.5271 12.5813 9.97819 11.3325C9.56642 10.9996 9.501 10.3954 9.83195 9.98171C10.1687 9.56802 10.7748 9.50452 11.1846 9.8374C12.42 10.8322 13.8862 11.369 15.3889 11.3171C15.2966 9.27362 13.6072 7.64193 11.5445 7.64193C9.42211 7.64193 7.69613 9.36791 7.69613 11.4903V12.2022C7.69613 12.7333 7.26512 13.1643 6.73405 13.1643C6.20298 13.1643 5.77197 12.7352 5.77197 12.2022V11.4903C5.77197 8.30769 8.36189 5.71777 11.5445 5.71777C14.727 5.71777 17.3169 8.30769 17.3169 11.4903V12.1637C17.3169 12.6371 16.9725 13.0392 16.5069 13.1143C16.0624 13.1854 15.6776 13.2412 15.2754 13.2412Z" fill="#005586"/>
<path d="M49.0664 22.6494C48.5354 22.6494 48.1044 22.2184 48.1044 21.6874V18.2027C48.1044 17.9006 48.2448 17.6178 48.4853 17.4369C49.4667 16.6942 50.0285 15.5782 50.0285 14.3756V11.4893C50.0285 9.36696 48.3025 7.64099 46.1802 7.64099C44.0578 7.64099 42.3319 9.36696 42.3319 11.4893V14.3756C42.3319 15.5782 42.8937 16.6942 43.8751 17.4369C44.1156 17.6178 44.256 17.9025 44.256 18.2046V21.6893C44.256 22.2204 43.825 22.6514 43.294 22.6514C42.7629 22.6514 42.3319 22.2204 42.3319 21.6893V18.6587C41.1023 17.56 40.4077 16.0246 40.4077 14.3775V11.4912C40.4077 8.30867 42.9976 5.71875 46.1802 5.71875C49.3628 5.71875 51.9527 8.30867 51.9527 11.4912V14.3775C51.9527 16.0246 51.2581 17.5581 50.0285 18.6587V21.6893C50.0285 22.2184 49.5975 22.6494 49.0664 22.6494Z" fill="#005586"/>
<path d="M47.1479 20.0514C46.7015 20.0514 46.3013 19.7378 46.207 19.2837C46.1012 18.7623 46.436 18.2543 46.9574 18.1484C48.7354 17.7809 50.0284 16.1954 50.0284 14.3752C50.0284 13.8441 50.4594 13.4131 50.9905 13.4131C51.5216 13.4131 51.9526 13.8441 51.9526 14.3752C51.9526 17.1036 50.013 19.4819 47.3423 20.0303C47.2769 20.0437 47.2134 20.0514 47.1479 20.0514Z" fill="#005586"/>
<path d="M39.9704 24.0366C39.5991 24.0366 39.2431 23.8192 39.0872 23.4536C38.8775 22.9668 39.1026 22.3991 39.5914 22.1894L42.9144 20.7617C43.3993 20.5558 43.9669 20.7751 44.1767 21.2658C44.3864 21.7526 44.1613 22.3202 43.6725 22.53L40.3495 23.9577C40.2263 24.0116 40.0994 24.0366 39.9704 24.0366Z" fill="#005586"/>
<path d="M51.9522 35.8046C51.5886 35.8046 51.2384 35.5948 51.0767 35.2408C50.8574 34.7578 51.071 34.1863 51.5539 33.967L55.2368 32.293C55.5793 32.1371 55.8006 31.7927 55.8006 31.4155V28.7487C55.8006 26.8245 54.6615 25.0947 52.9008 24.3423L48.6831 22.5105C48.1963 22.2989 47.9731 21.7332 48.1828 21.2444C48.3945 20.7557 48.9525 20.5325 49.4489 20.7461L53.6609 22.574C56.1277 23.6265 57.7247 26.051 57.7247 28.7487V31.4155C57.7247 32.5431 57.0609 33.5745 56.0334 34.0439L52.3505 35.718C52.2216 35.7757 52.085 35.8046 51.9522 35.8046Z" fill="#005586"/>
<path d="M31.3838 10.3666C28.6476 10.3666 25.7999 9.40262 24.2298 7.99029C23.8334 7.63432 23.8007 7.02628 24.1566 6.63183C24.5126 6.23738 25.1264 6.20467 25.5151 6.56064C27.4123 8.26544 31.9572 9.15633 34.5606 7.75939C35.0281 7.50732 35.6131 7.68242 35.8632 8.15192C36.1153 8.62141 35.9383 9.20251 35.4707 9.45457C34.2835 10.0876 32.85 10.3666 31.3838 10.3666Z" fill="#005586"/>
<path d="M28.8493 27.8447C25.6571 27.8447 23.9927 25.3548 23.5578 24.0368C23.3904 23.5307 23.6656 22.9881 24.1697 22.8207C24.6738 22.6552 25.2145 22.9284 25.3819 23.4287C25.4223 23.5442 26.2747 25.9186 28.8493 25.9186C31.445 25.9186 32.3589 23.4711 32.3994 23.3671C32.5783 22.8688 33.1363 22.609 33.627 22.7861C34.1253 22.9631 34.3889 23.5076 34.2138 24.0079C34.158 24.1657 32.8284 27.8447 28.8493 27.8447Z" fill="#005586"/>
<path d="M47.1423 35.541C46.6112 35.541 46.1802 35.11 46.1802 34.5789V34.0421C46.1802 31.1886 44.3811 28.6371 41.7046 27.6962L33.679 24.8484C32.5245 24.4463 31.749 23.3534 31.749 22.1315V19.7648C31.749 19.2337 32.18 18.8027 32.7111 18.8027C33.2422 18.8027 33.6732 19.2337 33.6732 19.7648V22.1315C33.6732 22.5356 33.9329 22.8973 34.3178 23.032L42.3454 25.8817C45.7896 27.092 48.1044 30.3727 48.1044 34.0421V34.5809C48.1044 35.1119 47.6734 35.541 47.1423 35.541Z" fill="#005586"/>
<path d="M10.5832 35.541C10.0521 35.541 9.62109 35.11 9.62109 34.5789V34.0594C9.62109 33.459 9.68459 32.8568 9.80966 32.2622C10.4292 29.3317 12.5728 26.888 15.3974 25.8798L23.4058 23.0705C23.7925 22.9358 24.0523 22.5721 24.0523 22.1681V19.7629C24.0523 19.2318 24.4833 18.8008 25.0144 18.8008C25.5455 18.8008 25.9765 19.2318 25.9765 19.7629V22.1681C25.9765 23.388 25.201 24.4809 24.0427 24.8869L16.0401 27.6943C13.8408 28.4774 12.1745 30.3804 11.6915 32.6605C11.5934 33.1223 11.5453 33.5937 11.5453 34.0594V34.5789C11.5453 35.1119 11.1142 35.541 10.5832 35.541Z" fill="#005586"/>
<path d="M28.8627 22.072C28.3316 22.072 27.9006 21.641 27.9006 21.1099C27.9006 20.5789 28.3316 20.1479 28.8627 20.1479C30.8599 20.1479 34.6351 18.3391 34.6351 11.4891V8.60289C34.6351 5.42033 32.0452 2.83041 28.8627 2.83041C25.6801 2.83041 23.0902 5.42033 23.0902 8.60289V11.4891C23.0902 14.8064 23.9772 17.3444 25.6532 18.8279C26.0515 19.18 26.0899 19.788 25.7359 20.1863C25.3799 20.5866 24.7738 20.6193 24.3794 20.2691C22.9132 18.9722 21.166 16.3977 21.166 11.4891V8.60289C21.166 4.35819 24.618 0.90625 28.8627 0.90625C33.1074 0.90625 36.5593 4.35819 36.5593 8.60289V11.4891C36.5593 19.8612 31.5257 22.072 28.8627 22.072Z" fill="#005586"/>
<path d="M43.5208 52.8601C43.1668 52.8601 42.8281 52.6638 42.6588 52.3251C42.4241 51.8479 42.6184 51.2726 43.0956 51.0359L47.8541 48.6789C48.1215 48.5461 48.4409 48.5461 48.7065 48.6789L51.8159 50.2201L51.3098 46.7874C51.2675 46.4911 51.3637 46.189 51.5754 45.9754L54.0056 43.4913L50.5806 42.9083C50.2862 42.8583 50.0303 42.6716 49.8898 42.4061L48.2812 39.3313L46.6707 42.4061C46.5302 42.6716 46.2743 42.8583 45.9799 42.9083L42.5568 43.4913L44.9851 45.9754C45.3565 46.3564 45.3488 46.9644 44.9697 47.3358C44.5888 47.7091 43.9788 47.7014 43.6094 47.3204L39.8976 43.524C39.6475 43.2681 39.559 42.8948 39.6706 42.5542C39.7822 42.2137 40.0708 41.9635 40.4249 41.9039L45.1891 41.0919L47.4307 36.8125C47.5981 36.4951 47.9272 36.2969 48.2831 36.2969C48.643 36.2969 48.9681 36.497 49.1355 36.8125L51.3753 41.0919L56.1414 41.9039C56.4955 41.9635 56.7841 42.2156 56.8957 42.5542C57.0073 42.8929 56.9188 43.2681 56.6686 43.524L53.2879 46.9779L53.9921 51.7575C54.0422 52.1116 53.894 52.4656 53.6054 52.6753C53.3167 52.887 52.9319 52.9197 52.6125 52.7581L48.2831 50.6126L43.9519 52.7581C43.8114 52.8293 43.6652 52.8601 43.5208 52.8601Z" fill="#005586"/>
<path d="M23.2358 58.0948C23.0357 58.0948 22.8375 58.0332 22.6701 57.912C22.3815 57.7022 22.2314 57.3482 22.2834 56.9922L23.1261 51.2525L19.07 47.104C18.8199 46.8481 18.7314 46.4748 18.843 46.1342C18.9546 45.7936 19.2432 45.5415 19.5972 45.4838L25.3197 44.5102L28.0097 39.3708C28.3445 38.7358 29.3816 38.7358 29.7164 39.3708L32.4064 44.5102L38.1288 45.4838C38.4829 45.5435 38.7715 45.7955 38.8831 46.1342C38.9947 46.4728 38.9062 46.8481 38.656 47.104L34.598 51.2525L35.4427 56.9922C35.4927 57.3463 35.3446 57.7003 35.0559 57.9101C34.7673 58.1236 34.3825 58.1525 34.0631 57.9928L28.8621 55.4163L23.663 57.9928C23.5283 58.0601 23.3821 58.0948 23.2358 58.0948ZM21.7292 47.0713L24.8348 50.248C25.0445 50.4636 25.1427 50.7637 25.1003 51.06L24.4538 55.4529L28.4349 53.4806C28.7024 53.3459 29.0218 53.3459 29.2873 53.4806L33.2665 55.4529L32.62 51.06C32.5776 50.7637 32.6738 50.4616 32.8855 50.248L35.993 47.0713L31.6117 46.3247C31.3173 46.2747 31.0614 46.088 30.9209 45.8225L28.8621 41.8876L26.8032 45.8225C26.6628 46.088 26.4068 46.2747 26.1124 46.3247L21.7292 47.0713Z" fill="#005586"/>
<path d="M14.3595 52.8581C14.2152 52.8581 14.0708 52.8254 13.9323 52.7581L9.60294 50.6126L5.27165 52.76C4.95416 52.9178 4.57126 52.887 4.27878 52.6753C3.99016 52.4656 3.84007 52.1116 3.89203 51.7575L4.59627 46.9779L1.21552 43.524C0.965377 43.2681 0.876866 42.8948 0.988467 42.5542C1.10007 42.2137 1.38869 41.9616 1.74274 41.9039L6.50889 41.0919L8.75053 36.8125C8.91794 36.4951 9.24697 36.2969 9.60294 36.2969C9.96276 36.2969 10.2879 36.497 10.4553 36.8125L12.6951 41.0919L17.4593 41.9039C17.8133 41.9635 18.102 42.2156 18.2136 42.5542C18.3252 42.8929 18.2366 43.2681 17.9865 43.524L14.2748 47.3185C13.9073 47.6995 13.2973 47.7072 12.9144 47.3339C12.5354 46.9625 12.5277 46.3545 12.899 45.9735L15.3273 43.4894L11.9042 42.9064C11.6079 42.8563 11.3539 42.6697 11.2135 42.4042L9.60486 39.3293L7.99434 42.4042C7.85387 42.6697 7.59796 42.8563 7.30356 42.9064L3.87856 43.4894L6.30877 45.9735C6.51851 46.189 6.61664 46.4892 6.57431 46.7855L6.06825 50.2182L9.17962 48.6769C9.44708 48.5442 9.76649 48.5442 10.032 48.6769L14.7886 51.034C15.2657 51.2707 15.4601 51.846 15.2253 52.3232C15.0522 52.6619 14.7116 52.8581 14.3595 52.8581Z" fill="#005586"/>
</svg>
