<svg width="33" height="32" viewBox="0 0 33 32" fill="none" xmlns="http://www.w3.org/2000/svg">
<path fill-rule="evenodd" clip-rule="evenodd" d="M30.3077 4.17353L20.8565 13.6247L18.5657 11.3339C18.2944 11.0619 17.8534 11.0619 17.5821 11.3339L9.7261 19.1899L7.43531 16.8991C7.16401 16.6271 6.72296 16.6271 6.45166 16.8991L3.8715 19.4793L1.37897 19.4779C0.99497 19.4779 0.682617 19.7895 0.682617 20.1728C0.682617 20.5568 0.994264 20.8692 1.37757 20.8692L4.1588 20.8706C4.34384 20.8706 4.52052 20.7975 4.6513 20.6667L6.94349 18.3746L9.23427 20.6654C9.50557 20.9374 9.94662 20.9374 10.2179 20.6654L18.0739 12.8094L20.3647 15.1001C20.636 15.3721 21.0771 15.3721 21.3484 15.1001L31.2913 5.15718V9.0431C31.2913 9.4271 31.603 9.73875 31.987 9.73875C32.371 9.73875 32.6826 9.4271 32.6826 9.0431V3.47788C32.6826 3.09388 32.371 2.78223 31.987 2.78223H26.4217C26.0377 2.78223 25.7261 3.09388 25.7261 3.47788C25.7261 3.86188 26.0377 4.17353 26.4217 4.17353H30.3077Z" fill="white"/>
<path fill-rule="evenodd" clip-rule="evenodd" d="M7.63914 29.8995V24.3348C7.63914 23.1824 6.70488 22.248 5.55218 22.248H2.76957C1.61688 22.248 0.682617 23.1824 0.682617 24.3348V29.8995C0.682617 31.0518 1.61688 31.9862 2.76957 31.9862H5.55218C6.70488 31.9862 7.63914 31.0518 7.63914 29.8995ZM6.24783 24.3348V29.8995C6.24783 30.2836 5.93618 30.595 5.55218 30.595H2.76957C2.38557 30.595 2.07392 30.2836 2.07392 29.8995V24.3348C2.07392 23.9507 2.38557 23.6392 2.76957 23.6392H5.55218C5.93618 23.6392 6.24783 23.9507 6.24783 24.3348Z" fill="white"/>
<path fill-rule="evenodd" clip-rule="evenodd" d="M15.9868 29.8852V24.3213C15.9868 23.1686 15.0525 22.2344 13.8998 22.2344H11.1172C9.96453 22.2344 9.03027 23.1686 9.03027 24.3213V29.8852C9.03027 31.0379 9.96453 31.9721 11.1172 31.9721H13.8998C15.0525 31.9721 15.9868 31.0379 15.9868 29.8852ZM14.5955 24.3213V29.8852C14.5955 30.2694 14.2838 30.5814 13.8998 30.5814H11.1172C10.7332 30.5814 10.4216 30.2694 10.4216 29.8852V24.3213C10.4216 23.9371 10.7332 23.626 11.1172 23.626H13.8998C14.2838 23.626 14.5955 23.9371 14.5955 24.3213Z" fill="white"/>
<path fill-rule="evenodd" clip-rule="evenodd" d="M24.3349 18.7903C24.3349 18.2369 24.1151 17.7061 23.7235 17.3144C23.3325 16.9228 22.8017 16.7031 22.248 16.7031H19.4654C18.9116 16.7031 18.3809 16.9228 17.9899 17.3144C17.5982 17.7061 17.3784 18.2369 17.3784 18.7903V29.9216C17.3784 30.4749 17.5982 31.0057 17.9899 31.3974C18.3809 31.789 18.9116 32.0087 19.4654 32.0087H22.248C22.8017 32.0087 23.3325 31.789 23.7235 31.3974C24.1151 31.0057 24.3349 30.4749 24.3349 29.9216V18.7903ZM22.9436 18.7903V29.9216C22.9436 30.1058 22.8706 30.283 22.7398 30.4137C22.6097 30.5438 22.4323 30.6173 22.248 30.6173H19.4654C19.281 30.6173 19.1036 30.5438 18.9735 30.4137C18.8428 30.283 18.7697 30.1058 18.7697 29.9216V18.7903C18.7697 18.606 18.8428 18.4289 18.9735 18.2981C19.1036 18.168 19.281 18.0945 19.4654 18.0945H22.248C22.4323 18.0945 22.6097 18.168 22.7398 18.2981C22.8706 18.4289 22.9436 18.606 22.9436 18.7903Z" fill="white"/>
<path fill-rule="evenodd" clip-rule="evenodd" d="M32.6826 13.1628C32.6826 12.609 32.4628 12.0789 32.0711 11.6873C31.6802 11.2958 31.1494 11.0762 30.5956 11.0762H27.813C27.2593 11.0762 26.7285 11.2958 26.3376 11.6873C25.9459 12.0789 25.7261 12.609 25.7261 13.1628V29.8519C25.7261 30.4058 25.9459 30.9358 26.3376 31.3274C26.7285 31.719 27.2593 31.9386 27.813 31.9386H30.5956C31.1494 31.9386 31.6802 31.719 32.0711 31.3274C32.4628 30.9358 32.6826 30.4058 32.6826 29.8519V13.1628ZM31.2913 13.1628V29.8519C31.2913 30.0369 31.2182 30.2132 31.0875 30.3441C30.9574 30.4739 30.78 30.5475 30.5956 30.5475H27.813C27.6287 30.5475 27.4513 30.4739 27.3212 30.3441C27.1904 30.2132 27.1174 30.0369 27.1174 29.8519V13.1628C27.1174 12.9779 27.1904 12.8015 27.3212 12.6707C27.4513 12.5408 27.6287 12.4673 27.813 12.4673H30.5956C30.78 12.4673 30.9574 12.5408 31.0875 12.6707C31.2182 12.8015 31.2913 12.9779 31.2913 13.1628Z" fill="white"/>
<path fill-rule="evenodd" clip-rule="evenodd" d="M5.27393 10.5739C5.01166 10.9231 4.85653 11.3565 4.85653 11.8261C4.85653 12.9781 5.79149 13.913 6.94349 13.913C8.09549 13.913 9.03044 12.9781 9.03044 11.8261C9.03044 11.5819 8.98871 11.3482 8.91149 11.1304H10.5407C10.4635 11.3482 10.4217 11.5819 10.4217 11.8261C10.4217 12.9781 11.3567 13.913 12.5087 13.913C13.6607 13.913 14.5957 12.9781 14.5957 11.8261C14.5957 11.3565 14.4405 10.9231 14.1783 10.5739C14.4913 10.2838 14.7174 9.89635 14.8057 9.45252L15.6405 5.27861C15.763 4.66574 15.6044 4.02992 15.2078 3.54644C14.812 3.06296 14.2193 2.78261 13.5939 2.78261H4.70419L4.40366 1.58052C4.17131 0.651828 3.33652 0 2.37861 0H1.37827C0.994269 0 0.682617 0.311652 0.682617 0.695652C0.682617 1.07965 0.994269 1.3913 1.37827 1.3913H2.37861C2.69791 1.3913 2.97618 1.60835 3.05409 1.91792L4.64644 9.45252C4.73479 9.89635 4.96088 10.2838 5.27393 10.5739ZM6.94349 11.1304C7.32749 11.1304 7.63914 11.4421 7.63914 11.8261C7.63914 12.2101 7.32749 12.5217 6.94349 12.5217C6.55949 12.5217 6.24783 12.2101 6.24783 11.8261C6.24783 11.4421 6.55949 11.1304 6.94349 11.1304ZM12.5087 11.1304C12.8927 11.1304 13.2044 11.4421 13.2044 11.8261C13.2044 12.2101 12.8927 12.5217 12.5087 12.5217C12.1247 12.5217 11.8131 12.2101 11.8131 11.8261C11.8131 11.4421 12.1247 11.1304 12.5087 11.1304ZM14.2763 5.00591L13.4416 9.17982C13.3762 9.50539 13.091 9.73913 12.7591 9.73913H6.69306C6.36124 9.73913 6.07601 9.50539 6.01061 9.17982L5.00957 4.17391H13.5939C13.8026 4.17391 14.0002 4.26713 14.1324 4.42852C14.2645 4.58991 14.3174 4.80139 14.2763 5.00591Z" fill="white"/>
</svg>
