<svg width="46" height="48" viewBox="0 0 46 48" fill="none" xmlns="http://www.w3.org/2000/svg">
<g clip-path="url(#clip0_153_7795)">
<path d="M2.2371 40.753H3.31443C3.38815 40.975 3.47391 41.1918 3.56888 41.404L2.80695 42.2102C2.6737 42.3512 2.59928 42.5417 2.59928 42.7405C2.59928 42.9392 2.6737 43.1305 2.80695 43.2708L4.81562 45.3962C5.08141 45.6775 5.55204 45.6775 5.81783 45.3962L6.58047 44.5892C6.78105 44.6905 6.98589 44.7798 7.19498 44.8578V46C7.19498 46.414 7.51251 46.75 7.90375 46.75H10.7445C11.1358 46.75 11.4533 46.414 11.4533 46V44.8562C11.6617 44.7782 11.8665 44.6883 12.0657 44.5878L12.8305 45.397C12.9637 45.538 13.1437 45.6167 13.3316 45.6167C13.5194 45.6167 13.7001 45.538 13.8327 45.397L15.8413 43.2715C15.9746 43.1305 16.049 42.94 16.049 42.7412C16.049 42.5425 15.9746 42.3513 15.8413 42.211L15.0759 41.401C15.1708 41.1903 15.2552 40.9743 15.3289 40.7538H16.4126C16.8038 40.7538 17.1214 40.4178 17.1214 40.0038V36.9978C17.1214 36.5838 16.8038 36.2478 16.4126 36.2478H15.3296C15.2559 36.0273 15.1715 35.8112 15.0766 35.6005L15.842 34.7905C15.9753 34.6495 16.0497 34.459 16.0497 34.2603C16.0497 34.0615 15.9753 33.8702 15.842 33.73L13.8334 31.6045C13.5676 31.3232 13.097 31.3232 12.8312 31.6045L12.0664 32.4137C11.8672 32.3132 11.6624 32.224 11.454 32.1453V31C11.454 30.586 11.1365 30.25 10.7452 30.25H7.90446C7.51322 30.25 7.19569 30.586 7.19569 31V32.1415C6.9866 32.2195 6.78176 32.3095 6.58118 32.41L5.81854 31.603C5.68529 31.462 5.50526 31.3833 5.31743 31.3833C5.12961 31.3833 4.94887 31.462 4.81633 31.603L2.80766 33.7285C2.67441 33.8695 2.59999 34.06 2.59999 34.2588C2.59999 34.4575 2.67441 34.6487 2.80766 34.789L3.56959 35.5952C3.47391 35.8082 3.38886 36.025 3.31443 36.247H2.2371C1.84585 36.247 1.52832 36.583 1.52832 36.997V40.003C1.52832 40.417 1.84585 40.753 2.2371 40.753ZM2.94587 37.747H3.83822C4.16142 37.747 4.44351 37.5152 4.52431 37.1845C4.63984 36.7112 4.81704 36.2582 5.05093 35.839C5.21537 35.5442 5.17001 35.1692 4.94178 34.9277L4.31026 34.2595L5.31672 33.1945L5.94824 33.8635C6.17576 34.105 6.52944 34.153 6.80941 33.979C7.20561 33.7323 7.633 33.5447 8.08024 33.4232C8.39352 33.3377 8.61182 33.0393 8.61182 32.6973V31.75H10.035V32.698C10.035 33.04 10.2533 33.3385 10.5659 33.424C11.0139 33.547 11.4405 33.7345 11.836 33.9812C12.1139 34.1545 12.4697 34.1072 12.6972 33.8657L13.3308 33.1945L14.3373 34.2595L13.7022 34.9315C13.474 35.173 13.4287 35.548 13.5931 35.8428C13.8256 36.2605 14.0021 36.712 14.1176 37.186C14.1984 37.5168 14.4805 37.7485 14.8037 37.7485H15.7038V39.2545H14.8058C14.4826 39.2545 14.2005 39.4855 14.1197 39.817C14.0042 40.2903 13.827 40.7425 13.5952 41.1603C13.4308 41.455 13.4761 41.83 13.7044 42.0715L14.3387 42.7428L13.3323 43.8077L12.6986 43.135C12.4711 42.8935 12.116 42.8455 11.8375 43.0195C11.4427 43.2663 11.0153 43.4538 10.5673 43.5768C10.2548 43.6623 10.0365 43.9607 10.0365 44.3027V45.25H8.61324V44.3035C8.61324 43.9615 8.39423 43.663 8.08166 43.5775C7.63442 43.4553 7.20632 43.2685 6.81082 43.0217C6.53086 42.8485 6.17718 42.8965 5.94966 43.1372L5.31814 43.8055L4.31168 42.7405L4.94249 42.073C5.17143 41.8315 5.21608 41.4565 5.05164 41.1617C4.81775 40.7417 4.64055 40.2895 4.52502 39.8163C4.44422 39.4855 4.16213 39.2538 3.83893 39.2538H2.94587V37.747Z" fill="#005586"/>
<path d="M9.32513 42.25C11.2792 42.25 12.869 40.5677 12.869 38.5C12.869 36.4323 11.2792 34.75 9.32513 34.75C7.37103 34.75 5.78125 36.4323 5.78125 38.5C5.78125 40.5677 7.37103 42.25 9.32513 42.25ZM9.32513 36.25C10.4974 36.25 11.4515 37.2595 11.4515 38.5C11.4515 39.7405 10.4974 40.75 9.32513 40.75C8.15281 40.75 7.1988 39.7405 7.1988 38.5C7.1988 37.2595 8.15281 36.25 9.32513 36.25Z" fill="#005586"/>
<path d="M45.4359 4.1995C45.3515 3.93325 45.1332 3.73825 44.871 3.69625L42.3066 3.28225L41.1535 0.682C41.0365 0.418 40.7863 0.25 40.5113 0.25C40.2363 0.25 39.9861 0.418 39.8699 0.68125L38.7167 3.2815L36.1523 3.6955C35.8894 3.73825 35.6718 3.9325 35.5874 4.19875C35.5031 4.465 35.5669 4.75975 35.7519 4.96075L37.628 6.9955L37.1843 9.8785C37.1404 10.162 37.2538 10.447 37.4756 10.6128C37.6975 10.7778 37.9888 10.7942 38.2269 10.6562L40.5113 9.31975L42.7964 10.6562C42.9034 10.7185 43.0218 10.75 43.1394 10.75C43.2826 10.75 43.4258 10.7035 43.5477 10.6128C43.7695 10.4478 43.8829 10.162 43.839 9.8785L43.3953 6.9955L45.2714 4.96075C45.4571 4.7605 45.5202 4.4665 45.4359 4.1995ZM42.1301 6.22C41.9728 6.39025 41.9019 6.6295 41.9381 6.86425L42.2046 8.596L40.8536 7.80625C40.7473 7.744 40.629 7.7125 40.5106 7.7125C40.3922 7.7125 40.2746 7.744 40.1676 7.80625L38.8166 8.596L39.0831 6.86425C39.1193 6.6295 39.0484 6.39025 38.891 6.22L37.7279 4.9585L39.3028 4.70425C39.5367 4.666 39.7373 4.50775 39.8373 4.28125L40.5113 2.7655L41.1839 4.28125C41.2846 4.50775 41.4852 4.666 41.7184 4.70425L43.2932 4.9585L42.1301 6.22Z" fill="#005586"/>
<path d="M34.3996 9.3073C34.0141 9.24505 33.6157 9.35305 33.3081 9.60805L27.7471 14.2116C28.0526 13.5898 28.1936 12.8916 28.1369 12.1761C28.0575 11.1778 27.6152 10.2726 26.8916 9.62605C26.1679 8.97955 25.2515 8.6713 24.3074 8.75455C23.364 8.8393 22.5085 9.3073 21.8975 10.0723C21.2873 10.8381 20.9946 11.8086 21.0739 12.8068C21.142 13.6528 21.4822 14.4216 22.0209 15.0328C21.1959 15.2488 20.4679 15.7656 19.9796 16.5043L14.3952 24.5698C14.0762 25.0521 14.0507 25.6686 14.3285 26.1786C14.6057 26.6878 15.1188 26.9713 15.6766 26.9248L17.3749 26.7726C17.7874 26.7358 18.163 26.5108 18.3948 26.1696L21.7664 21.4761L22.0216 24.6786L20.3467 36.8346C19.7145 36.9718 19.0795 37.0948 18.4408 37.1893L18.6372 38.6743C20.8613 38.3451 23.0564 37.7668 25.1607 36.9546C29.2433 35.3796 32.5065 33.1123 35.0226 30.8361L35.1814 30.7858L35.1594 30.7078C37.587 28.4863 39.3079 26.2686 40.3789 24.6868C40.5157 24.4843 40.549 24.2241 40.4675 23.9916C40.3867 23.7583 40.2017 23.5828 39.9741 23.5228L38.8812 23.2333L42.861 20.8941L43.8008 25.3701L42.8624 25.0393C42.5569 24.9313 42.2231 25.0551 42.0466 25.3378L41.929 25.5253C33.0189 39.8796 23.1145 43.3596 16.3741 43.7511L16.4513 45.2488C23.4703 44.8408 33.7412 41.2731 42.929 26.6436L44.5387 27.2113C44.7804 27.2976 45.0476 27.2376 45.2375 27.0568C45.4275 26.8761 45.5097 26.6008 45.4544 26.3376L44.0368 19.5876C43.9887 19.3566 43.8398 19.1631 43.6357 19.0663C43.4316 18.9703 43.197 18.9793 43.0006 19.0948L36.6216 22.8448C36.3672 22.9941 36.2254 23.2933 36.2637 23.5986C36.3013 23.9038 36.5125 24.1536 36.7946 24.2278L38.5984 24.7048C37.6635 25.9843 36.3729 27.5421 34.7122 29.1238L33.4485 24.6381C33.3308 24.2526 33.0664 23.9293 32.7383 23.7591L29.8245 22.1533L29.3687 18.4873L35.8583 13.2553C36.4586 12.7723 36.5961 11.8768 36.1709 11.2176L35.3515 9.94405C35.1332 9.60355 34.7859 9.37105 34.3996 9.3073ZM24.4265 10.2501C24.4874 10.2448 24.5484 10.2418 24.6093 10.2418C25.1104 10.2418 25.5903 10.4271 25.9773 10.7728C26.411 11.1606 26.6761 11.7036 26.7243 12.3028C26.7718 12.9021 26.5967 13.4848 26.2303 13.9438C25.8639 14.4028 25.3507 14.6841 24.7844 14.7343C24.2174 14.7861 23.6674 14.5993 23.2336 14.2116C22.7998 13.8238 22.534 13.2808 22.4865 12.6816C22.388 11.4448 23.2584 10.3543 24.4265 10.2501ZM25.3897 35.2506L26.8646 26.2438L29.4701 27.5818L31.0103 32.1568C29.368 33.3058 27.4976 34.3716 25.3897 35.2506ZM28.1844 17.5581C27.9824 17.7208 27.8782 17.9856 27.9108 18.2526L28.4679 22.7368C28.4984 22.9791 28.638 23.1913 28.8435 23.3038L32.0954 25.0828L33.5356 30.1956C33.1168 30.5571 32.6752 30.9156 32.2159 31.2711L30.7969 27.0561C30.6665 26.7066 30.4199 26.4238 30.1023 26.2596L26.6385 24.4611C26.4387 24.3576 26.2041 24.3598 26.0042 24.4663C25.805 24.5736 25.6654 24.7738 25.6278 25.0063L23.8545 35.8378C23.1868 36.0726 22.5121 36.2886 21.8295 36.4746L23.437 24.8113C23.4448 24.7543 23.4462 24.6973 23.442 24.6396L23.0245 19.4083C22.9997 19.0986 22.7977 18.8376 22.5163 18.7513C22.2342 18.6636 21.9316 18.7708 21.7544 19.0176L17.2565 25.2793L15.549 25.4443L21.1335 17.3788C21.4964 16.8306 22.0662 16.4833 22.697 16.4263L24.9035 16.2291H24.9049L27.7301 15.9763C27.8676 15.9636 27.9987 15.9096 28.1071 15.8196L34.1827 10.7901L35.0028 12.0636L28.1844 17.5581Z" fill="#005586"/>
<path d="M3.6543 1H5.07132V2.5H3.6543V1Z" fill="#005586"/>
<path d="M5.07227 2.5H6.48929V4H5.07227V2.5Z" fill="#005586"/>
<path d="M2.23633 2.5H3.65335V4H2.23633V2.5Z" fill="#005586"/>
<path d="M3.6543 4H5.07132V5.5H3.6543V4Z" fill="#005586"/>
<path d="M9.32422 3.25H10.7412V4.75H9.32422V3.25Z" fill="#005586"/>
<path d="M10.7422 4.75H12.1592V6.25H10.7422V4.75Z" fill="#005586"/>
<path d="M7.90723 4.75H9.32425V6.25H7.90723V4.75Z" fill="#005586"/>
<path d="M9.32422 6.25H10.7412V7.75H9.32422V6.25Z" fill="#005586"/>
<path d="M41.9277 41.5H43.3448V43H41.9277V41.5Z" fill="#005586"/>
<path d="M43.3457 43H44.7627V44.5H43.3457V43Z" fill="#005586"/>
<path d="M40.5107 43H41.9278V44.5H40.5107V43Z" fill="#005586"/>
<path d="M41.9277 44.5H43.3448V46H41.9277V44.5Z" fill="#005586"/>
</g>
<defs>
<clipPath id="clip0_153_7795">
<rect width="45.3616" height="48" fill="white" transform="translate(0.5)"/>
</clipPath>
</defs>
</svg>
