<svg width="33" height="28" viewBox="0 0 33 28" fill="none" xmlns="http://www.w3.org/2000/svg">
<path d="M0.682617 24C0.682617 26.208 2.47462 28 4.68262 28C6.89062 28 8.68262 26.208 8.68262 24C8.68262 22.072 7.30662 20.456 5.48262 20.08V14.4H15.8826V20.08C14.0586 20.448 12.6826 22.064 12.6826 24C12.6826 26.208 14.4746 28 16.6826 28C18.8906 28 20.6826 26.208 20.6826 24C20.6826 22.072 19.3066 20.456 17.4826 20.08V14.4H28.6826C29.1226 14.4 29.4826 14.04 29.4826 13.6V7.92C31.3066 7.552 32.6826 5.936 32.6826 4C32.6826 1.792 30.8906 0 28.6826 0C26.4746 0 24.6826 1.792 24.6826 4C24.6826 5.928 26.0586 7.544 27.8826 7.92V12.8H17.4826V7.92C19.3066 7.552 20.6826 5.936 20.6826 4C20.6826 1.792 18.8906 0 16.6826 0C14.4746 0 12.6826 1.792 12.6826 4C12.6826 5.928 14.0586 7.544 15.8826 7.92V12.8H5.48262V7.92C7.30662 7.552 8.68262 5.936 8.68262 4C8.68262 1.792 6.89062 0 4.68262 0C2.47462 0 0.682617 1.792 0.682617 4C0.682617 5.928 2.05862 7.544 3.88262 7.92V20.08C2.05862 20.456 0.682617 22.072 0.682617 24ZM26.2826 4C26.2826 2.68 27.3626 1.6 28.6826 1.6C30.0026 1.6 31.0826 2.68 31.0826 4C31.0826 5.32 30.0026 6.4 28.6826 6.4C27.3626 6.4 26.2826 5.32 26.2826 4ZM14.2826 4C14.2826 2.68 15.3626 1.6 16.6826 1.6C18.0026 1.6 19.0826 2.68 19.0826 4C19.0826 5.32 18.0026 6.4 16.6826 6.4C15.3626 6.4 14.2826 5.32 14.2826 4ZM16.6826 21.6C18.0026 21.6 19.0826 22.68 19.0826 24C19.0826 25.32 18.0026 26.4 16.6826 26.4C15.3626 26.4 14.2826 25.32 14.2826 24C14.2826 22.68 15.3626 21.6 16.6826 21.6ZM2.28262 4C2.28262 2.68 3.36262 1.6 4.68262 1.6C6.00262 1.6 7.08262 2.68 7.08262 4C7.08262 5.32 6.00262 6.4 4.68262 6.4C3.36262 6.4 2.28262 5.32 2.28262 4ZM4.68262 21.6C6.00262 21.6 7.08262 22.68 7.08262 24C7.08262 25.32 6.00262 26.4 4.68262 26.4C3.36262 26.4 2.28262 25.32 2.28262 24C2.28262 22.68 3.36262 21.6 4.68262 21.6Z" fill="white"/>
</svg>
