<svg width="51" height="49" viewBox="0 0 51 49" fill="none" xmlns="http://www.w3.org/2000/svg">
<g clip-path="url(#clip0_134_2592)">
<path d="M43.7901 7.14729C44.03 7.14729 44.27 7.0557 44.453 6.8727L46.0954 5.23029C46.4615 4.8642 46.4615 4.27057 46.0954 3.90438C45.7293 3.53838 45.1357 3.53838 44.7695 3.90438L43.1271 5.54679C42.761 5.91288 42.761 6.50651 43.1271 6.8727C43.3103 7.0557 43.5502 7.14729 43.7901 7.14729Z" fill="#005586"/>
<path d="M31.2973 6.8726C31.4804 7.0556 31.7203 7.1472 31.9603 7.1472C32.2002 7.1472 32.4402 7.0556 32.6232 6.8726C32.9893 6.50651 32.9893 5.91288 32.6232 5.5467L30.9808 3.90438C30.6148 3.53838 30.0211 3.53838 29.6549 3.90438C29.2888 4.27048 29.2888 4.8641 29.6549 5.23029L31.2973 6.8726Z" fill="#005586"/>
<path d="M37.8751 17.677C40.9367 17.677 43.4274 15.1863 43.4274 12.1247C43.4274 9.06311 40.9367 6.57227 37.8751 6.57227C34.8135 6.57227 32.3228 9.06302 32.3228 12.1247C32.3227 15.1863 34.8135 17.677 37.8751 17.677ZM37.8751 8.44736C39.9028 8.44736 41.5524 10.0971 41.5524 12.1248C41.5524 14.1525 39.9028 15.8021 37.8751 15.8021C35.8474 15.8021 34.1978 14.1525 34.1978 12.1248C34.1978 10.0971 35.8474 8.44736 37.8751 8.44736Z" fill="#005586"/>
<path d="M44.453 17.377C44.0869 17.011 43.4933 17.011 43.1271 17.377C42.761 17.7431 42.761 18.3368 43.1271 18.7029L44.7695 20.3454C44.9526 20.5284 45.1925 20.6199 45.4324 20.6199C45.6723 20.6199 45.9123 20.5284 46.0953 20.3454C46.4614 19.9793 46.4614 19.3856 46.0953 19.0194L44.453 17.377Z" fill="#005586"/>
<path d="M31.2973 17.377L29.6549 19.0194C29.2888 19.3855 29.2888 19.9792 29.6549 20.3454C29.838 20.5284 30.0779 20.6199 30.3178 20.6199C30.5578 20.6199 30.7978 20.5284 30.9808 20.3454L32.6232 18.7029C32.9893 18.3369 32.9893 17.7432 32.6232 17.377C32.2571 17.011 31.6634 17.011 31.2973 17.377Z" fill="#005586"/>
<path d="M45.3022 12.125C45.3022 12.6427 45.722 13.0625 46.2397 13.0625H48.5624C49.0802 13.0625 49.4999 12.6427 49.4999 12.125C49.4999 11.6073 49.0802 11.1875 48.5624 11.1875H46.2397C45.722 11.1875 45.3022 11.6073 45.3022 12.125Z" fill="#005586"/>
<path d="M37.875 4.69766C38.3928 4.69766 38.8125 4.27784 38.8125 3.76016V1.4375C38.8125 0.919812 38.3928 0.5 37.875 0.5C37.3572 0.5 36.9375 0.919812 36.9375 1.4375V3.76006C36.9375 4.27784 37.3572 4.69766 37.875 4.69766Z" fill="#005586"/>
<path d="M36.9375 20.4893V22.8119C36.9375 23.3296 37.3572 23.7494 37.875 23.7494C38.3928 23.7494 38.8125 23.3296 38.8125 22.8119V20.4893C38.8125 19.9716 38.3928 19.5518 37.875 19.5518C37.3572 19.5518 36.9375 19.9715 36.9375 20.4893Z" fill="#005586"/>
<path d="M27.1875 13.0625H29.5102C30.0279 13.0625 30.4477 12.6427 30.4477 12.125C30.4477 11.6073 30.0279 11.1875 29.5102 11.1875H27.1875C26.6697 11.1875 26.25 11.6073 26.25 12.125C26.25 12.6428 26.6697 13.0625 27.1875 13.0625Z" fill="#005586"/>
<path d="M48.5625 46.6247H35.6497V43.9997H46.5266C47.2332 43.9997 47.8846 43.6778 48.3139 43.1166C48.7431 42.5553 48.8831 41.8423 48.698 41.1604L45.136 28.0355C44.8707 27.0577 43.9778 26.3748 42.9646 26.3748H21.2337C20.2205 26.3748 19.3276 27.0577 19.0623 28.0355L17.2959 34.5438V20.3057L20.9941 22.4407C22.1546 23.1108 23.4788 23.4561 24.8075 23.456C25.4784 23.456 26.1505 23.368 26.8031 23.1892C27.3003 23.0531 27.593 22.536 27.4599 22.038C26.9352 20.0742 25.6767 18.4328 23.9164 17.4164L17.3897 13.6482V6.15738C17.3897 4.12462 16.5975 2.21409 15.1558 0.774572C14.7911 0.409793 14.2003 0.408387 13.8337 0.770916C12.3998 2.18916 11.5773 4.15921 11.5773 6.17595V13.6634L5.0769 17.4165C3.31647 18.4328 2.05798 20.0741 1.53214 22.0426C1.39873 22.5407 1.69273 23.0531 2.19017 23.1892C2.84285 23.368 3.51475 23.456 4.18581 23.456C5.51433 23.456 6.83873 23.1107 7.99926 22.4407L11.6711 20.3208V28.9528C11.6711 29.4705 12.0909 29.8903 12.6086 29.8903C13.1264 29.8903 13.5461 29.4705 13.5461 28.9528V19.2383L14.4967 18.6895L15.4211 19.2232V46.6248H13.5461V37.3905C13.5461 36.8728 13.1264 36.453 12.6086 36.453C12.0909 36.453 11.6711 36.8728 11.6711 37.3905V46.6248H2.43776C1.91998 46.6248 1.50026 47.0446 1.50026 47.5623C1.50026 48.08 1.91998 48.4998 2.43776 48.4998H48.5625C49.0803 48.4998 49.5 48.08 49.5 47.5623C49.5 47.0446 49.0803 46.6247 48.5625 46.6247ZM15.8346 15.3414C15.8346 16.0863 15.2285 16.6924 14.4834 16.6924C13.7384 16.6924 13.1323 16.0863 13.1323 15.3414C13.1323 14.5963 13.7384 13.9902 14.4834 13.9902C15.2285 13.9902 15.8346 14.5963 15.8346 15.3414ZM25.2981 21.5608C24.1347 21.6605 22.9497 21.4048 21.9315 20.817L16.6235 17.7525C17.1414 17.2924 17.5104 16.6687 17.6488 15.963L22.9788 19.0402C24.0052 19.6328 24.805 20.5071 25.2981 21.5608ZM14.4918 2.88815C15.1567 3.84055 15.5147 4.97136 15.5147 6.15738V12.2852C15.1906 12.1756 14.8441 12.1153 14.4834 12.1153C14.1228 12.1153 13.7763 12.1756 13.4522 12.2852V6.17595C13.4523 5.00014 13.8233 3.84543 14.4918 2.88815ZM7.06167 20.817C6.04346 21.4049 4.8579 21.6614 3.69456 21.5607C4.18684 20.5086 4.98718 19.6332 6.0143 19.0402L11.3205 15.9767C11.4619 16.6815 11.8339 17.3035 12.3538 17.7616L7.06167 20.817ZM25.0856 42.1247L25.5435 38.7498H31.1534V42.1247H25.0856ZM17.6717 42.1247C17.5104 42.1247 17.4158 42.0326 17.3738 41.9776C17.3317 41.9226 17.2675 41.8072 17.3098 41.6515L18.0973 38.7498H23.6513L23.1933 42.1247H17.6717ZM19.5221 33.4998H24.3637L23.9057 36.8748H18.6062L19.5221 33.4998ZM31.1533 28.2498V31.6248H26.5103L26.9682 28.2498H31.1533ZM37.2134 28.2498L37.6713 31.6248H33.0283V28.2498H37.2134ZM45.5922 36.8748H40.276L39.818 33.4998H44.6763L45.5922 36.8748ZM38.3837 36.8748H33.0283V33.4998H37.9258L38.3837 36.8748ZM31.1533 33.4998V36.8748H25.798L26.2559 33.4998H31.1533ZM33.0283 38.7498H38.6382L39.0961 42.1247H33.0283V38.7498ZM46.8246 41.9776C46.7826 42.0326 46.6879 42.1247 46.5267 42.1247H40.9884L40.5304 38.7498H46.1011L46.8886 41.6515C46.9308 41.8072 46.8666 41.9226 46.8246 41.9776ZM43.3265 28.5266L44.1673 31.6248H39.5635L39.1055 28.2498H42.9646C43.1335 28.2498 43.2823 28.3636 43.3265 28.5266ZM21.2337 28.2498H25.0761L24.6181 31.6248H20.031L20.8718 28.5266C20.9161 28.3636 21.0648 28.2498 21.2337 28.2498ZM17.2959 43.9685C17.4187 43.9889 17.5443 43.9997 17.6717 43.9997H28.5248V46.6247H17.2959V43.9685ZM30.3997 46.6247V43.9997H33.7747V46.6247H30.3997Z" fill="#005586"/>
<path d="M12.6084 34.1094C12.855 34.1094 13.0968 34.0099 13.2712 33.8346C13.4456 33.6603 13.5459 33.4184 13.5459 33.1719C13.5459 32.9253 13.4456 32.6834 13.2712 32.5091C13.0968 32.3347 12.855 32.2344 12.6084 32.2344C12.3618 32.2344 12.12 32.3346 11.9456 32.5091C11.7712 32.6835 11.6709 32.9253 11.6709 33.1719C11.6709 33.4184 11.7712 33.6603 11.9456 33.8346C12.12 34.01 12.3618 34.1094 12.6084 34.1094Z" fill="#005586"/>
</g>
<defs>
<clipPath id="clip0_134_2592">
<rect width="50" height="48" fill="white" transform="translate(0.5 0.5)"/>
</clipPath>
</defs>
</svg>
