<svg width="51" height="49" viewBox="0 0 51 49" fill="none" xmlns="http://www.w3.org/2000/svg">
<g clip-path="url(#clip0_165_8653)">
<path d="M47.9591 32.5448L47.9595 32.5456C48.7676 34.2135 49.4062 36.5611 49.9137 39.018C50.4215 41.4765 50.7995 44.0519 51.0839 46.1795M47.9591 32.5448L51.084 46.1801C51.084 46.1799 51.084 46.1797 51.0839 46.1795M47.9591 32.5448C47.1889 30.9922 45.759 29.8595 44.061 29.4438C46.3588 27.9328 47.5005 25.1983 46.9314 22.5306C47.6241 22.3351 48.0621 21.5916 47.9069 20.899C47.4787 18.8121 46.6209 17.197 45.376 16.0916C44.1433 14.997 42.5394 14.4097 40.6192 14.3518C39.8442 12.7979 38.2079 11.8369 36.4446 11.9032H8.93457C6.77026 11.9032 4.84143 13.2203 4.57638 14.9427L4.57637 14.9428L0.963338 38.4764C0.723825 39.7124 1.18314 40.8834 2.00438 41.7283C2.82497 42.5725 4.01244 43.0974 5.24325 43.0408H25.4341C25.6693 44.5072 26.9621 45.5901 28.4801 45.5814L28.4809 45.5814L36.8722 45.4587L36.9012 46.444C36.9012 46.4441 36.9012 46.4442 36.9012 46.4443L47.9591 32.5448ZM51.0839 46.1795C51.2267 47.1903 50.401 48.1105 49.3654 48.0999M51.0839 46.1795C51.0839 46.1794 51.0839 46.1794 51.0839 46.1794L49.3654 48.0999M49.3654 48.0999C49.3653 48.0999 49.3652 48.0999 49.365 48.0999M49.3654 48.0999L49.365 48.0999M49.365 48.0999L38.6313 48.0999H38.631V47.9999C37.7461 48.0024 37.0216 47.3098 37.0011 46.4416L49.365 48.0999ZM39.8728 29.4663L39.8704 29.4662C37.091 29.34 34.8124 27.2757 34.4527 24.581L45.7713 22.7469C46.5777 26.2642 43.5518 29.7218 39.8728 29.4663ZM30.3825 39.5705L29.9648 31.409H37.9458C37.5234 31.8995 37.187 32.4563 36.951 33.0566L36.9492 33.0594L36.9463 33.0674L36.9444 33.0713L36.9386 33.0836L36.9384 33.0852C36.9374 33.0875 36.9366 33.0894 36.9362 33.0905C36.9347 33.0943 36.933 33.0988 36.9312 33.1037C36.9282 33.112 36.9248 33.1218 36.9212 33.1325C36.9094 33.1677 36.8924 33.2208 36.871 33.2892C36.8281 33.4263 36.7667 33.6275 36.6921 33.8749C36.5427 34.3699 36.3397 35.0514 36.1238 35.7788C35.8994 36.535 35.6612 37.3408 35.4547 38.039C35.2766 38.6415 35.1221 39.1639 35.0207 39.5052L30.3825 39.5705ZM36.9342 33.1258L37.0278 33.1308C37.0223 33.1452 37.0132 33.1722 37.0008 33.2106C36.9942 33.209 36.9883 33.2071 36.9836 33.205C36.9695 33.1952 36.9503 33.1735 36.9443 33.1633C36.9351 33.1447 36.9343 33.1282 36.9342 33.1258ZM46.7444 21.1277L46.7442 21.1278L46.7455 21.1333C46.7773 21.2687 46.6786 21.4199 46.5401 21.4396L46.5382 21.4399L31.9918 23.7975C32.0387 23.7529 32.0872 23.7075 32.1366 23.6613L32.137 23.6609C32.4083 23.4042 32.6783 23.0953 32.8877 22.7814C33.0956 22.4698 33.2507 22.143 33.2786 21.8521L33.2788 21.8496C33.4142 19.9356 33.8763 18.5272 34.7207 17.5292C35.5639 16.5326 36.7999 15.9318 38.5122 15.6566L38.5122 15.6566L38.5149 15.6561C40.548 15.2719 42.407 15.5162 43.8541 16.4129C45.2994 17.3086 46.3471 18.8633 46.7444 21.1277ZM36.4464 13.0701L36.4492 13.07C37.5602 13.0393 38.6149 13.53 39.2938 14.3826C34.9148 14.6014 32.5774 17.4347 32.2532 20.3768H29.4L29.026 13.07L36.4464 13.0701ZM15.9807 20.3768H4.94091L5.74845 15.1176C5.8331 14.5664 6.22338 14.0552 6.80269 13.6791C7.38082 13.3038 8.13791 13.07 8.93457 13.07H16.3547L15.9807 20.3768ZM15.4164 31.409L14.8808 41.874H5.24093V41.8738L5.2351 41.8741C4.35708 41.9254 3.49301 41.5611 2.89251 40.961C2.29273 40.3616 1.96175 39.5335 2.13458 38.6572L2.13467 38.6572L2.13531 38.653L3.24742 31.409H15.4164ZM28.7779 31.409L29.1964 39.5871L28.379 39.5986L28.3784 39.5986C26.997 39.6254 25.8091 40.561 25.4799 41.874H16.0681L16.6032 31.409H28.7779ZM49.7802 46.7505L49.7795 46.7513C49.6762 46.8679 49.5255 46.9347 49.367 46.9333H49.3661L38.6322 46.9333C38.6321 46.9333 38.6319 46.9333 38.6318 46.9333C38.4335 46.9309 38.3134 46.8638 38.2347 46.7663C38.1518 46.6636 38.1051 46.5154 38.0818 46.3357C38.0586 46.1571 38.0599 45.9602 38.0629 45.768C38.0632 45.7535 38.0634 45.739 38.0636 45.7245C38.0659 45.587 38.0682 45.4508 38.06 45.3325C39.0291 45.0647 39.8048 44.3444 40.1287 43.4033L40.1288 43.4034L40.1298 43.3999L41.2832 39.6163C41.2832 39.6162 41.2832 39.6161 41.2833 39.6159C41.3407 39.4353 41.3145 39.2717 41.2328 39.1427C41.1527 39.016 41.0237 38.9294 40.8849 38.8887C40.7462 38.8481 40.5904 38.8513 40.4534 38.9137C40.3141 38.9773 40.201 39.0992 40.1481 39.281C40.1481 39.2811 40.148 39.2813 40.148 39.2815L39.0006 43.0469C38.7478 43.7746 38.0569 44.2709 37.2708 44.2859C37.2707 44.2859 37.2706 44.2859 37.2706 44.2859L28.4296 44.4148C26.0091 44.3693 25.9829 40.8502 28.3993 40.7655L28.4024 40.7655L28.4175 40.7653L28.4767 40.7645L28.7014 40.7613L29.5032 40.75L31.9364 40.7158L34.3696 40.6816L35.1715 40.6703L35.3961 40.6671L35.4553 40.6663L35.4705 40.6661L35.4743 40.666L35.4753 40.666L35.4755 40.666L35.4742 40.566L35.4756 40.666L35.4758 40.666C35.7342 40.662 35.9619 40.4934 36.0357 40.2473L36.0358 40.2472C36.1749 39.7817 36.4084 38.9907 36.6686 38.1091C37.2287 36.2117 37.9126 33.8947 38.0471 33.4991L38.0487 33.4964L38.0525 33.4859C38.7317 31.5828 40.5041 30.5494 42.3322 30.4557C44.1602 30.3621 46.0252 31.2089 46.8895 33.0474L46.8901 33.0485C47.6569 34.6308 48.272 36.9019 48.7657 39.3068C49.259 41.7097 49.6296 44.2385 49.9097 46.3321L49.9098 46.3327C49.9309 46.4835 49.8838 46.6361 49.7802 46.7505ZM28.3976 40.6656L28.4406 40.665C28.4396 40.715 28.4076 40.7541 28.3993 40.7634L28.3976 40.6656ZM30.3403 24.6565C30.3907 24.9739 30.7039 25.1912 31.0216 25.1371C31.0217 25.1371 31.0218 25.1371 31.022 25.137L33.2697 24.7728C33.6332 27.3172 35.4265 29.4216 37.8681 30.2424H29.9055L29.4604 21.5438H32.1286C32.1261 21.7945 32.0286 22.0166 31.8742 22.2301C31.7128 22.4533 31.4951 22.6596 31.2678 22.8751C31.2486 22.8932 31.2294 22.9114 31.2102 22.9297C30.7274 23.3882 30.2078 23.9032 30.3403 24.6565ZM17.1678 20.3768L17.5417 13.07H27.8393L28.2133 20.3768H17.1678ZM16.6625 30.2422L17.1082 21.5436H28.273L28.7182 30.2422H16.6625ZM3.4267 30.2422L4.76212 21.5436H15.9209L15.4759 30.2422H3.4267Z" fill="#005586" stroke="#005586" stroke-width="0.2"/>
</g>
<defs>
<clipPath id="clip0_165_8653">
<rect width="50" height="48" fill="white" transform="translate(0.5 0.5)"/>
</clipPath>
</defs>
</svg>
