<?xml version="1.0" encoding="UTF-8"?>
<svg xmlns="http://www.w3.org/2000/svg" version="1.1" viewBox="0 0 43 43">
  <defs>
    <style>
      .cls-1 {
        fill: none;
        stroke: #e31e24;
        stroke-linecap: round;
        stroke-linejoin: round;
      }
    </style>
  </defs>
  <!-- Generator: Adobe Illustrator 28.6.0, SVG Export Plug-In . SVG Version: 1.2.0 Build 709)  -->
  <g>
    <g id="Layer_1">
      <path class="cls-1" d="M21.1,27.5c-2.31,0-4.18-1.84-4.18-4.12s1.87-4.12,4.18-4.12,4.18,1.84,4.18,4.12-1.87,4.12-4.18,4.12Z"/>
      <path class="cls-1" d="M17.38,26.61c-1.25,0-2.25,1.02-2.25,2.24v4.81"/>
      <path class="cls-1" d="M25.06,26.61c1.25,0,2.25,1.02,2.25,2.24v4.81"/>
      <path class="cls-1" d="M22.39,28.17l.99,5.53-2.25,2.53-2.46-2.53,1.14-5.53"/>
      <path class="cls-1" d="M6.69,33.27c-2.31,0-4.17-1.84-4.17-4.11s1.87-4.11,4.17-4.11,4.17,1.84,4.17,4.11-1.87,4.11-4.17,4.11Z"/>
      <path class="cls-1" d="M2.97,32.39c-1.24,0-2.25,1.02-2.25,2.23v4.8"/>
      <path class="cls-1" d="M10.65,32.39c1.24,0,2.25,1.02,2.25,2.23v4.8"/>
      <path class="cls-1" d="M7.97,33.94l.99,5.53-2.24,2.52-2.45-2.52,1.13-5.53"/>
      <path class="cls-1" d="M35.51,33.18c-2.31,0-4.17-1.84-4.17-4.11s1.87-4.11,4.17-4.11,4.17,1.84,4.17,4.11-1.87,4.11-4.17,4.11Z"/>
      <path class="cls-1" d="M31.79,32.29c-1.24,0-2.25,1.02-2.25,2.23v4.8"/>
      <path class="cls-1" d="M39.47,32.29c1.24,0,2.25,1.02,2.25,2.23v4.8"/>
      <path class="cls-1" d="M36.79,33.85l.99,5.53-2.24,2.52-2.45-2.52,1.13-5.53"/>
      <path class="cls-1" d="M15.15,41.14c1.87.54,3.85.83,5.89.83,2.17,0,4.26-.33,6.23-.93"/>
      <path class="cls-1" d="M37.13,8.48C33.31,3.91,27.52.99,21.04.99s-11.99,2.77-15.81,7.15"/>
      <path class="cls-1" d="M17.59,8.39c0,1.81,1.49,3.27,3.33,3.27s3.33-1.46,3.33-3.27-1.49-3.27-3.33-3.27c-1.84,0-3.33,1.46-3.33,3.27Z"/>
      <path class="cls-1" d="M19.29,8.39c0,.89.73,1.6,1.63,1.6s1.63-.72,1.63-1.6-.73-1.6-1.63-1.6c-.89,0-1.63.71-1.63,1.6Z"/>
      <path class="cls-1" d="M22.21,12.34l2.14,2.1"/>
      <path class="cls-1" d="M20.93,13.61l2.14,2.1"/>
      <path class="cls-1" d="M23.07,15.71v-1.26h1.28"/>
      <path class="cls-1" d="M19.64,12.34l-2.14,2.1"/>
      <path class="cls-1" d="M20.92,13.61l-2.14,2.1"/>
      <path class="cls-1" d="M18.78,15.71v-1.26h-1.28"/>
      <path class="cls-1" d="M3.18,13.69c0,1.81,1.49,3.27,3.33,3.27s3.33-1.46,3.33-3.27-1.49-3.27-3.33-3.27-3.33,1.46-3.33,3.27Z"/>
      <path class="cls-1" d="M4.87,13.69c0,.89.73,1.6,1.63,1.6s1.63-.72,1.63-1.6-.73-1.6-1.63-1.6-1.63.71-1.63,1.6Z"/>
      <path class="cls-1" d="M7.8,17.65l2.14,2.1"/>
      <path class="cls-1" d="M6.52,18.92l2.14,2.1"/>
      <path class="cls-1" d="M8.66,21.02v-1.26h1.28"/>
      <path class="cls-1" d="M5.23,17.65l-2.14,2.1"/>
      <path class="cls-1" d="M6.51,18.92l-2.14,2.1"/>
      <path class="cls-1" d="M4.37,21.02v-1.26h-1.28"/>
      <path class="cls-1" d="M32.08,13.69c0,1.81,1.49,3.27,3.33,3.27s3.33-1.46,3.33-3.27-1.49-3.27-3.33-3.27-3.33,1.46-3.33,3.27Z"/>
      <path class="cls-1" d="M33.78,13.69c0,.89.73,1.6,1.63,1.6s1.63-.72,1.63-1.6-.73-1.6-1.63-1.6-1.63.71-1.63,1.6Z"/>
      <path class="cls-1" d="M36.7,17.65l2.14,2.1"/>
      <path class="cls-1" d="M35.41,18.92l2.14,2.1"/>
      <path class="cls-1" d="M37.55,21.02v-1.26h1.28"/>
      <path class="cls-1" d="M34.12,17.65l-2.14,2.1"/>
      <path class="cls-1" d="M35.41,18.92l-2.14,2.1"/>
      <path class="cls-1" d="M33.27,21.02v-1.26h-1.28"/>
    </g>
  </g>
</svg>