<svg width="51" height="49" viewBox="0 0 51 49" fill="none" xmlns="http://www.w3.org/2000/svg">
<path d="M32.5675 25.557C33.3514 25.3649 34.1797 25.5057 34.856 25.9459L44.4992 32.1765C45.5874 32.8505 45.9434 34.267 45.3031 35.3753C44.6628 36.4836 43.2578 36.8828 42.1304 36.2768L31.9133 31.0403C30.6767 30.4132 30.0527 29.002 30.421 27.6652L28.9187 26.7979C28.7689 26.9649 28.6045 27.1184 28.4274 27.2563L28.8813 38.2413C35.0867 39.0054 39.8296 42.2323 40.5035 46.2256C40.5821 46.6596 40.4634 47.106 40.1795 47.4436C39.8879 47.7956 39.4546 47.9995 38.9974 47.9998H13.1549C12.6973 48.0007 12.2631 47.7976 11.9705 47.4459C11.6884 47.1109 11.5689 46.6684 11.6442 46.2371C12.322 42.2346 17.0595 39.0047 23.2687 38.2436L23.7227 27.2586C23.5456 27.1206 23.3812 26.9672 23.2313 26.8001L21.7291 27.6675C22.0977 29.0042 21.4737 30.4157 20.2368 31.0426L10.0197 36.2791C8.89233 36.8851 7.48735 36.4859 6.84708 35.3776C6.20682 34.2693 6.56277 32.8528 7.65095 32.1788L17.2941 25.9482C18.4552 25.1915 19.9886 25.3566 20.9619 26.3432L22.468 25.4736C22.3321 25.0875 22.2603 24.6818 22.2556 24.2724C22.2579 22.4575 23.5344 20.8938 25.3121 20.5282V18.8105C23.9702 18.4609 23.0598 17.215 23.1344 15.8305L23.7075 4.3688C23.7075 3.06059 24.768 2 26.0763 2C27.3846 2 28.4451 3.0605 28.4451 4.3688L29.0182 15.8306C29.0928 17.2153 28.1824 18.4612 26.8405 18.8107V20.5276C28.6182 20.8932 29.8947 22.457 29.897 24.2718C29.8922 24.6811 29.8205 25.0869 29.6846 25.473L31.1877 26.341C31.5657 25.9567 32.0436 25.6852 32.5675 25.557ZM20.1162 27.7112C19.9237 27.3744 19.6003 27.1324 19.2229 27.0426C19.1126 27.0162 18.9994 27.0029 18.886 27.0029C18.6145 27.0038 18.3491 27.0834 18.1219 27.2321L8.47794 33.462C8.07555 33.6941 7.93753 34.2085 8.16959 34.6109C8.40173 35.0133 8.9161 35.1513 9.31849 34.9192L19.54 29.6802C19.8852 29.5031 20.1427 29.1922 20.2523 28.82C20.3619 28.4478 20.3141 28.047 20.12 27.7111H20.1162V27.7112ZM13.155 46.4718L39.0006 46.4916C38.4458 43.2059 34.3616 40.5146 28.9479 39.7895L29.0938 43.3389C29.1147 43.7573 28.9631 44.1659 28.6741 44.4693C28.3852 44.7726 27.9844 44.944 27.5655 44.9436H24.5855C24.1678 44.944 23.7682 44.7735 23.4795 44.4717C23.1908 44.1699 23.0382 43.763 23.0573 43.3458L23.204 39.7889C17.7917 40.5116 13.7067 43.2021 13.155 46.4718ZM24.5862 43.4153L27.5663 43.4084L26.9297 27.9893C26.3687 28.1278 25.7823 28.1278 25.2211 27.9893L24.5862 43.4153ZM27.4899 15.907L26.9168 4.44518C26.9168 3.98098 26.5405 3.60463 26.0763 3.60463C25.6121 3.60463 25.2357 3.98098 25.2357 4.44518L24.6611 15.907C24.6408 16.2947 24.7815 16.6735 25.05 16.9539C25.6169 17.5203 26.5355 17.5203 27.1024 16.9539C27.3709 16.6735 27.5116 16.2947 27.4913 15.907H27.4899ZM26.0763 21.9802C24.8102 21.9802 23.7839 23.0066 23.7839 24.2726C23.7839 25.5385 24.8103 26.5649 26.0763 26.5649C27.3423 26.5649 28.3686 25.5385 28.3686 24.2726C28.3686 23.0066 27.3423 21.9802 26.0763 21.9802ZM31.8997 28.8206C32.0083 29.1934 32.2664 29.5046 32.6126 29.6803L42.8297 34.9168C43.0899 35.0669 43.4106 35.0668 43.6708 34.9164C43.9309 34.766 44.0912 34.4884 44.091 34.1878C44.0909 33.8873 43.9305 33.6098 43.6701 33.4596L34.0231 27.2297C33.5256 26.9113 32.8827 26.9349 32.4099 27.2891C31.9372 27.6432 31.7338 28.2536 31.8997 28.8206Z" fill="#005586"/>
<path d="M48.2352 12.8507C48.5083 12.8505 48.7608 12.996 48.8975 13.2325C49.0341 13.4689 49.0342 13.7604 48.8976 13.9969C47.7126 16.057 45.5464 17.3577 43.1711 17.4356C40.7957 17.5134 38.5491 16.3572 37.2318 14.379H31.1953C30.7732 14.379 30.4312 14.0369 30.4312 13.6149C30.4312 13.1929 30.7733 12.8508 31.1953 12.8508H37.6598C37.9328 12.8508 38.185 12.9965 38.3215 13.2329C39.1461 14.6644 40.5869 15.6336 42.2236 15.8578C43.8602 16.082 45.5086 15.5361 46.6879 14.3792H42.9475C42.707 14.3792 42.4805 14.2659 42.3362 14.0736L40.0439 11.0171C39.8401 10.7454 39.8401 10.3718 40.0439 10.1001L42.3362 7.04345C42.4805 6.85099 42.707 6.73783 42.9475 6.73783H46.6878C45.5086 5.58092 43.8602 5.03497 42.2235 5.2592C40.5868 5.48342 39.146 6.45261 38.3214 7.88409C38.185 8.12051 37.9327 8.26617 37.6597 8.26617H30.8972C30.4752 8.26617 30.1331 7.92405 30.1331 7.50209C30.1331 7.08013 30.4752 6.73801 30.8972 6.73801H37.2318C38.5491 4.75985 40.7957 3.60368 43.1711 3.68142C45.5464 3.75917 47.7127 5.05973 48.8976 7.11983C49.0342 7.35634 49.0341 7.64785 48.8975 7.88427C48.7608 8.1207 48.5083 8.26626 48.2352 8.26599H43.3295L41.6103 10.5583L43.3295 12.8507L48.2352 12.8507Z" fill="#005586"/>
<path d="M3.91652 8.26513C3.64341 8.2654 3.39087 8.11983 3.25422 7.8834C3.11757 7.64698 3.11748 7.35548 3.25404 7.11896C4.43944 5.0606 6.60468 3.76122 8.97876 3.68338C11.3528 3.60563 13.5985 4.76054 14.9161 6.73688H21.2545C21.6765 6.73688 22.0186 7.07899 22.0186 7.50095C22.0186 7.92291 21.6764 8.26503 21.2545 8.26503H14.492C14.219 8.26503 13.9668 8.11937 13.8303 7.88295C13.0056 6.45147 11.5649 5.48228 9.9282 5.25806C8.29152 5.03383 6.64319 5.57979 5.46389 6.73669H9.20809C9.44861 6.73669 9.67511 6.84994 9.81941 7.04231L12.1117 10.0988C12.3155 10.3705 12.3155 10.7441 12.1117 11.0157L9.81941 14.0722C9.67511 14.2647 9.44861 14.3779 9.20809 14.3779H5.46389C6.6431 15.5348 8.29143 16.0807 9.9282 15.8565C11.5649 15.6323 13.0056 14.6631 13.8303 13.2316C13.9667 12.9952 14.219 12.8495 14.492 12.8495H20.9489C21.3709 12.8495 21.7129 13.1916 21.7129 13.6136C21.7129 14.0356 21.3708 14.3777 20.9489 14.3777H14.9162C13.5986 16.354 11.3529 17.5089 8.97885 17.4312C6.60477 17.3534 4.43962 16.054 3.25413 13.9956C3.11757 13.7591 3.11766 13.4676 3.25431 13.2311C3.39096 12.9947 3.6435 12.8491 3.91661 12.8494H8.82227L10.5415 10.5571L8.82227 8.26476H3.91652V8.26513Z" fill="#005586"/>
</svg>
