<?xml version="1.0" encoding="utf-8"?>
<!-- Generator: Adobe Illustrator 26.0.3, SVG Export Plug-In . SVG Version: 6.00 Build 0)  -->
<svg version="1.1" id="Layer_1" xmlns="http://www.w3.org/2000/svg" xmlns:xlink="http://www.w3.org/1999/xlink" x="0px" y="0px"
	 viewBox="0 0 46 49" style="enable-background:new 0 0 46 49;" xml:space="preserve">
<style type="text/css">
	.st0{clip-path:url(#SVGID_00000107559806340931334960000016366154335460352944_);}
	.st1{clip-path:url(#SVGID_00000046339020924038057400000001219676051436294297_);}
	.st2{fill:#E31E24;}
</style>
<g>
	<defs>
		<rect id="SVGID_1_" x="0.5" y="0.3" width="45.4" height="48"/>
	</defs>
	<clipPath id="SVGID_00000107590640723686738150000012978856897271983791_">
		<use xlink:href="#SVGID_1_"  style="overflow:visible;"/>
	</clipPath>
	<g style="clip-path:url(#SVGID_00000107590640723686738150000012978856897271983791_);">
		<g>
			<defs>
				<rect id="SVGID_00000149341123528571987460000005103327175091551897_" x="0.2" y="0.3" width="48" height="48"/>
			</defs>
			<clipPath id="SVGID_00000035496598049096500040000005128620302366584472_">
				<use xlink:href="#SVGID_00000149341123528571987460000005103327175091551897_"  style="overflow:visible;"/>
			</clipPath>
			<g style="clip-path:url(#SVGID_00000035496598049096500040000005128620302366584472_);">
				<path class="st2" d="M1.7,41.6h1.1C3,41.8,3,42,3.1,42.2L2.3,43c-0.1,0.1-0.2,0.3-0.2,0.5c0,0.2,0.1,0.4,0.2,0.5l2.1,2.1
					c0.3,0.3,0.8,0.3,1.1,0l0.8-0.8c0.2,0.1,0.4,0.2,0.7,0.3v1.1c0,0.4,0.3,0.8,0.8,0.8h3c0.4,0,0.8-0.3,0.8-0.8v-1.1
					c0.2-0.1,0.4-0.2,0.6-0.3l0.8,0.8c0.1,0.1,0.3,0.2,0.5,0.2c0.2,0,0.4-0.1,0.5-0.2l2.1-2.1c0.1-0.1,0.2-0.3,0.2-0.5
					c0-0.2-0.1-0.4-0.2-0.5l-0.8-0.8c0.1-0.2,0.2-0.4,0.3-0.6h1.1c0.4,0,0.8-0.3,0.8-0.8v-3c0-0.4-0.3-0.8-0.8-0.8h-1.1
					c-0.1-0.2-0.2-0.4-0.3-0.6l0.8-0.8c0.1-0.1,0.2-0.3,0.2-0.5c0-0.2-0.1-0.4-0.2-0.5L14,32.4c-0.3-0.3-0.8-0.3-1.1,0l-0.8,0.8
					c-0.2-0.1-0.4-0.2-0.6-0.3v-1.1c0-0.4-0.3-0.8-0.8-0.8h-3c-0.4,0-0.8,0.3-0.8,0.8V33c-0.2,0.1-0.4,0.2-0.7,0.3l-0.8-0.8
					c-0.1-0.1-0.3-0.2-0.5-0.2s-0.4,0.1-0.5,0.2l-2.1,2.1c-0.1,0.1-0.2,0.3-0.2,0.5c0,0.2,0.1,0.4,0.2,0.5l0.8,0.8
					C3,36.6,3,36.8,2.9,37.1H1.7c-0.4,0-0.7,0.3-0.7,0.8v3C1,41.2,1.3,41.6,1.7,41.6z M2.5,38.6h0.9c0.3,0,0.6-0.2,0.7-0.6
					c0.1-0.5,0.3-0.9,0.6-1.3c0.2-0.3,0.1-0.7-0.1-0.9l-0.7-0.7L5,34l0.7,0.7c0.2,0.2,0.6,0.3,0.9,0.1c0.4-0.2,0.9-0.4,1.3-0.6
					c0.3-0.1,0.6-0.4,0.6-0.7v-0.9H10v0.9c0,0.3,0.2,0.6,0.6,0.7c0.5,0.1,0.9,0.3,1.3,0.6c0.3,0.2,0.7,0.1,0.9-0.1l0.7-0.7l1.1,1.1
					l-0.7,0.7c-0.2,0.2-0.3,0.6-0.1,0.9c0.2,0.4,0.4,0.9,0.6,1.3c0.1,0.3,0.4,0.6,0.7,0.6h1v1.5h-1c-0.3,0-0.6,0.2-0.7,0.6
					c-0.1,0.5-0.3,0.9-0.6,1.3c-0.2,0.3-0.1,0.7,0.1,0.9l0.7,0.7l-1.1,1.1L12.8,44c-0.2-0.2-0.6-0.3-0.9-0.1
					c-0.4,0.2-0.9,0.4-1.3,0.6c-0.3,0.1-0.6,0.4-0.6,0.7v0.9H8.5v-0.9c0-0.3-0.2-0.6-0.6-0.7c-0.5-0.1-0.9-0.3-1.3-0.6
					c-0.3-0.2-0.7-0.1-0.9,0.1L5,44.6l-1.1-1.1l0.7-0.7c0.2-0.2,0.3-0.6,0.1-0.9c-0.2-0.4-0.4-0.9-0.6-1.3c-0.1-0.3-0.4-0.6-0.7-0.6
					H2.5V38.6z"/>
				<path class="st2" d="M9.2,43.1c2.1,0,3.8-1.7,3.8-3.8c0-2.1-1.7-3.8-3.8-3.8c-2.1,0-3.8,1.7-3.8,3.8C5.5,41.4,7.2,43.1,9.2,43.1
					z M9.2,37.1c1.2,0,2.3,1,2.3,2.2c0,1.2-1,2.2-2.3,2.2c-1.2,0-2.3-1-2.3-2.2C7,38.1,8,37.1,9.2,37.1z"/>
				<path class="st2" d="M47.4,5c-0.1-0.3-0.3-0.5-0.6-0.5l-2.7-0.4l-1.2-2.6c-0.1-0.3-0.4-0.4-0.7-0.4s-0.6,0.2-0.7,0.4l-1.2,2.6
					l-2.7,0.4c-0.3,0-0.5,0.2-0.6,0.5c-0.1,0.3,0,0.6,0.2,0.8l2,2l-0.5,2.9c0,0.3,0.1,0.6,0.3,0.7c0.2,0.2,0.5,0.2,0.8,0l2.4-1.3
					l2.4,1.3c0.1,0.1,0.2,0.1,0.4,0.1c0.2,0,0.3,0,0.4-0.1c0.2-0.2,0.4-0.5,0.3-0.7l-0.5-2.9l2-2C47.5,5.6,47.5,5.3,47.4,5z M44,7
					c-0.2,0.2-0.2,0.4-0.2,0.6L44,9.4l-1.4-0.8c-0.1-0.1-0.2-0.1-0.4-0.1c-0.1,0-0.2,0-0.4,0.1l-1.4,0.8l0.3-1.7
					c0-0.2,0-0.5-0.2-0.6l-1.2-1.3L41,5.5c0.2,0,0.5-0.2,0.6-0.4l0.7-1.5L43,5.1c0.1,0.2,0.3,0.4,0.6,0.4l1.7,0.3L44,7z"/>
				<path class="st2" d="M35.8,10.1c-0.4-0.1-0.8,0-1.2,0.3L28.7,15c0.3-0.6,0.5-1.3,0.4-2c-0.1-1-0.6-1.9-1.3-2.6
					c-0.8-0.6-1.7-1-2.7-0.9c-1,0.1-1.9,0.6-2.6,1.3c-0.6,0.8-1,1.7-0.9,2.7c0.1,0.8,0.4,1.6,1,2.2c-0.9,0.2-1.6,0.7-2.2,1.5
					l-5.9,8.1c-0.3,0.5-0.4,1.1-0.1,1.6c0.3,0.5,0.8,0.8,1.4,0.7l1.8-0.2c0.4,0,0.8-0.3,1.1-0.6l3.6-4.7l0.3,3.2l-1.8,12.2
					c-0.7,0.1-1.3,0.3-2,0.4l0.2,1.5c2.4-0.3,4.7-0.9,6.9-1.7c4.3-1.6,7.8-3.8,10.4-6.1l0.2-0.1l0-0.1c2.6-2.2,4.4-4.4,5.5-6
					c0.1-0.2,0.2-0.5,0.1-0.7c-0.1-0.2-0.3-0.4-0.5-0.5l-1.2-0.3l4.2-2.3l1,4.5l-1-0.3c-0.3-0.1-0.7,0-0.9,0.3l-0.1,0.2
					c-9.4,14.4-19.9,17.8-27,18.2l0.1,1.5c7.4-0.4,18.3-4,28-18.6l1.7,0.6c0.3,0.1,0.5,0,0.7-0.2c0.2-0.2,0.3-0.5,0.2-0.7L46,20.4
					c-0.1-0.2-0.2-0.4-0.4-0.5c-0.2-0.1-0.5-0.1-0.7,0l-6.8,3.8c-0.3,0.1-0.4,0.4-0.4,0.8c0,0.3,0.3,0.6,0.6,0.6l1.9,0.5
					c-1,1.3-2.4,2.8-4.1,4.4l-1.3-4.5c-0.1-0.4-0.4-0.7-0.8-0.9L30.9,23l-0.5-3.7l6.9-5.2c0.6-0.5,0.8-1.4,0.3-2l-0.9-1.3
					C36.5,10.4,36.2,10.2,35.8,10.1z M25.2,11.1c0.1,0,0.1,0,0.2,0c0.5,0,1,0.2,1.4,0.5c0.5,0.4,0.7,0.9,0.8,1.5
					c0.1,0.6-0.1,1.2-0.5,1.6c-0.4,0.5-0.9,0.7-1.5,0.8C25,15.6,24.4,15.4,24,15c-0.5-0.4-0.7-0.9-0.8-1.5
					C23.1,12.3,24,11.2,25.2,11.1z M26.2,36.1l1.6-9l2.8,1.3l1.6,4.6C30.4,34.1,28.5,35.2,26.2,36.1z M29.2,18.4
					c-0.2,0.2-0.3,0.4-0.3,0.7l0.6,4.5c0,0.2,0.2,0.5,0.4,0.6l3.4,1.8l1.5,5.1c-0.4,0.4-0.9,0.7-1.4,1.1L32,27.9
					c-0.1-0.3-0.4-0.6-0.7-0.8l-3.7-1.8c-0.2-0.1-0.5-0.1-0.7,0c-0.2,0.1-0.4,0.3-0.4,0.5l-1.9,10.8c-0.7,0.2-1.4,0.5-2.1,0.6
					l1.7-11.7c0-0.1,0-0.1,0-0.2l-0.4-5.2c0-0.3-0.2-0.6-0.5-0.7c-0.3-0.1-0.6,0-0.8,0.3l-4.8,6.3l-1.8,0.2l5.9-8.1
					c0.4-0.5,1-0.9,1.7-1l2.3-0.2h0l3-0.3c0.1,0,0.3-0.1,0.4-0.2l6.4-5l0.9,1.3L29.2,18.4z"/>
				<path class="st2" d="M3.2,1.8h1.5v1.5H3.2V1.8z"/>
				<path class="st2" d="M4.7,3.3h1.5v1.5H4.7V3.3z"/>
				<path class="st2" d="M1.7,3.3h1.5v1.5H1.7V3.3z"/>
				<path class="st2" d="M3.2,4.8h1.5v1.5H3.2V4.8z"/>
				<path class="st2" d="M9.2,4.1h1.5v1.5H9.2V4.1z"/>
				<path class="st2" d="M10.7,5.6h1.5v1.5h-1.5V5.6z"/>
				<path class="st2" d="M7.7,5.6h1.5v1.5H7.7V5.6z"/>
				<path class="st2" d="M9.2,7.1h1.5v1.5H9.2V7.1z"/>
				<path class="st2" d="M43.7,42.3h1.5v1.5h-1.5V42.3z"/>
				<path class="st2" d="M45.2,43.8h1.5v1.5h-1.5V43.8z"/>
				<path class="st2" d="M42.2,43.8h1.5v1.5h-1.5V43.8z"/>
				<path class="st2" d="M43.7,45.3h1.5v1.5h-1.5V45.3z"/>
			</g>
		</g>
	</g>
</g>
</svg>
