<svg width="36" height="42" viewBox="0 0 36 42" fill="none" xmlns="http://www.w3.org/2000/svg">
<path d="M17.6025 0C13.1802 0.00261603 8.92063 1.66877 5.67021 4.66742C2.41978 7.66607 0.41635 11.7778 0.0579645 16.1856C-0.300421 20.5934 1.01247 24.9747 3.73578 28.459C6.45909 31.9434 10.3935 34.2758 14.7574 34.9928L17.0179 38.9489C17.0772 39.0525 17.1628 39.1386 17.266 39.1985C17.3693 39.2584 17.4865 39.2899 17.6059 39.2899C17.7253 39.2899 17.8425 39.2584 17.9458 39.1985C18.049 39.1386 18.1346 39.0525 18.1939 38.9489L20.4545 34.9928C24.8189 34.2757 28.7537 31.9428 31.4771 28.4577C34.2004 24.9726 35.5128 20.5905 35.1536 16.1822C34.7943 11.7739 32.7896 7.66209 29.5379 4.66398C26.2861 1.66587 22.0254 0.000919376 17.6025 0ZM19.9295 33.7023C19.8273 33.7169 19.7298 33.7546 19.6445 33.8126C19.5591 33.8706 19.4881 33.9473 19.437 34.0369L17.6025 37.2472L15.7681 34.0369C15.7169 33.9473 15.6459 33.8706 15.5606 33.8126C15.4752 33.7546 15.3777 33.7169 15.2756 33.7023C11.2079 33.114 7.51398 31.0071 4.93705 27.8053C2.36013 24.6035 1.09147 20.5445 1.38635 16.4451C1.68123 12.3457 3.51777 8.51015 6.52642 5.71015C9.53506 2.91015 13.4925 1.35354 17.6025 1.35354C21.7125 1.35354 25.67 2.91015 28.6786 5.71015C31.6873 8.51015 33.5238 12.3457 33.8187 16.4451C34.1136 20.5445 32.8449 24.6035 30.268 27.8053C27.6911 31.0071 23.9971 33.114 19.9295 33.7023Z" fill="#005586"/>
<path d="M17.6031 4.06445C14.9235 4.06445 12.304 4.85905 10.076 6.34777C7.84798 7.83648 6.11145 9.95245 5.086 12.4281C4.06056 14.9037 3.79225 17.6279 4.31502 20.256C4.83779 22.8841 6.12815 25.2982 8.02292 27.193C9.9177 29.0878 12.3318 30.3781 14.9599 30.9009C17.5881 31.4237 20.3122 31.1554 22.7878 30.1299C25.2635 29.1045 27.3794 27.3679 28.8682 25.1399C30.3569 22.9119 31.1515 20.2925 31.1515 17.6128C31.1473 14.0209 29.7186 10.5772 27.1787 8.03724C24.6388 5.49732 21.1951 4.06858 17.6031 4.06445ZM17.6031 29.8064C15.1914 29.8064 12.8339 29.0912 10.8287 27.7514C8.82349 26.4116 7.26061 24.5072 6.33771 22.2791C5.41481 20.051 5.17334 17.5993 5.64383 15.234C6.11432 12.8687 7.27564 10.696 8.98094 8.9907C10.6862 7.2854 12.8589 6.12408 15.2242 5.65359C17.5896 5.1831 20.0413 5.42457 22.2694 6.34747C24.4974 7.27037 26.4018 8.83325 27.7416 10.8385C29.0815 12.8437 29.7966 15.2012 29.7966 17.6128C29.7929 20.8456 28.507 23.9449 26.2211 26.2308C23.9351 28.5167 20.8359 29.8026 17.6031 29.8064Z" fill="#005586"/>
<path d="M10.1504 40.6455H25.0536V42.0003H10.1504V40.6455Z" fill="#005586"/>
<path d="M26.3895 18.1259L24.3572 9.99688C24.3206 9.85027 24.2361 9.72009 24.117 9.62704C23.998 9.534 23.8512 9.48344 23.7001 9.4834H11.5066C11.3554 9.48344 11.2087 9.534 11.0896 9.62704C10.9706 9.72009 10.886 9.85027 10.8495 9.99688L8.8172 18.1259C8.80365 18.1795 8.79683 18.2346 8.79688 18.2899V20.9995C8.79688 21.1792 8.86825 21.3515 8.99529 21.4785C9.12233 21.6056 9.29463 21.6769 9.47429 21.6769H15.5711V23.0318C15.0321 23.0318 14.5152 23.2459 14.134 23.627C13.7529 24.0081 13.5388 24.5251 13.5388 25.064V26.4189C13.5388 26.5985 13.6102 26.7708 13.7372 26.8979C13.8643 27.0249 14.0366 27.0963 14.2162 27.0963H20.9904C21.1701 27.0963 21.3424 27.0249 21.4694 26.8979C21.5965 26.7708 21.6678 26.5985 21.6678 26.4189V25.064C21.6678 24.5251 21.4537 24.0081 21.0726 23.627C20.6915 23.2459 20.1746 23.0318 19.6356 23.0318V21.6769H25.7324C25.912 21.6769 26.0843 21.6056 26.2114 21.4785C26.3384 21.3515 26.4098 21.1792 26.4098 20.9995V18.2899C26.4098 18.2346 26.403 18.1795 26.3895 18.1259ZM24.1872 14.9028H22.1962L21.8575 13.5479H23.8485L24.1872 14.9028ZM20.8001 14.9028H18.2807V13.5479H20.462L20.8001 14.9028ZM18.2807 12.1931V10.8382H19.7846L20.1233 12.1931H18.2807ZM16.9259 12.1931H15.2418L15.4674 10.8382H16.9259V12.1931ZM16.9259 13.5479V14.9028H14.79L15.0156 13.5479H16.9259ZM13.4169 14.9028H11.0195L11.3582 13.5479H13.6425L13.4169 14.9028ZM13.1906 16.2576L12.965 17.6124H10.3421L10.6808 16.2576H13.1906ZM14.5644 16.2576H16.9259V17.6124H14.3382L14.5644 16.2576ZM18.2807 16.2576H21.1395L21.4782 17.6124H18.2807V16.2576ZM22.8736 17.6124L22.5349 16.2576H24.5259L24.8646 17.6124H22.8736ZM23.5097 12.1931H21.5188L21.1801 10.8382H23.171L23.5097 12.1931ZM14.0936 10.8382L13.8674 12.1931H11.6969L12.0356 10.8382H14.0936ZM20.313 25.064V25.7415H14.8936V25.064C14.8936 24.8844 14.965 24.7121 15.0921 24.585C15.2191 24.458 15.3914 24.3866 15.5711 24.3866H19.6356C19.8152 24.3866 19.9876 24.458 20.1146 24.585C20.2416 24.7121 20.313 24.8844 20.313 25.064ZM18.2807 23.0318H16.9259V21.6769H18.2807V23.0318ZM10.1517 20.3221V18.9673H25.0549V20.3221H10.1517Z" fill="#005586"/>
</svg>
