<svg width="51" height="49" viewBox="0 0 51 49" fill="none" xmlns="http://www.w3.org/2000/svg">
<g clip-path="url(#clip0_134_2580)">
<path d="M51.4282 19.4675C51.2726 18.854 50.7079 18.4125 50.072 18.4125C49.9306 18.4084 42.06 19.0941 41.9196 19.0992C40.6031 19.1643 39.6335 20.0352 38.7189 20.8878C38.3862 20.6782 37.9975 20.5683 37.6028 20.5734L29.9977 12.3091C29.4728 11.7383 28.5764 11.7058 28.0118 12.2379C27.5132 12.6906 27.4257 13.5096 27.8215 14.0549L32.4283 20.6721C33.1435 21.7801 34.3848 22.1819 35.5761 22.5533C35.5598 22.9745 35.684 23.416 35.9292 23.7721L32.6908 34.2239C32.3968 35.1049 33.0998 36.0603 34.0266 36.046C35.276 36.0501 35.4937 34.6563 35.9729 33.7915L35.9068 37.3045C34.8711 37.4694 33.871 37.7695 32.8749 38.0747C25.5008 40.7301 26.7329 35.926 20.7526 37.1753L20.5176 21.0496L28.0046 31.1177C28.3282 31.5532 28.8277 31.7831 29.3334 31.7831C30.539 31.8279 31.4058 30.3761 30.7801 29.3312L25.6239 19.9609C24.8019 18.2812 22.9156 17.625 21.3254 16.9128C21.2878 16.8111 21.244 16.7114 21.1932 16.6147L27.1633 2.80658C27.5214 1.97028 27.1338 0.996629 26.2995 0.63647C25.5609 0.302763 24.635 0.602895 24.226 1.2988L18.6883 10.4472C17.7198 11.9215 17.9833 13.7039 18.1522 15.3501C17.615 15.5159 17.1409 15.8547 16.8143 16.3105L1.96229 18.034C1.06087 18.1398 0.408718 18.9608 0.510458 19.8673C0.59185 20.668 1.31522 21.3273 2.121 21.3304C2.26649 21.3283 12.7783 21.5552 12.9187 21.5522C14.5516 21.6122 15.8803 20.6314 17.1246 19.7117L16.8621 37.6708C14.1507 37.275 12.8586 34.2656 9.57955 34.524V29.1826C9.76065 29.088 9.91529 28.9537 10.0333 28.791L13.3226 29.2935C13.6481 29.3454 13.9686 29.1175 14.0185 28.7818C14.0693 28.4481 13.8404 28.1368 13.5067 28.0859L10.2205 27.5843C10.0638 27.1031 9.61313 26.746 9.11053 26.6951L7.90186 23.5992C7.77977 23.2848 7.42572 23.1301 7.11134 23.2522C6.79697 23.3743 6.64232 23.7284 6.76441 24.0427L7.97308 27.1387C7.63937 27.5141 7.54475 28.0869 7.76044 28.5427L5.6819 31.1401C5.35633 31.5206 5.66562 32.1473 6.15804 32.1321C6.3371 32.1321 6.51413 32.0537 6.6352 31.9032L8.35867 29.7504V34.7122C6.27301 35.2199 4.54038 36.7735 3.03056 38.1826C2.44759 38.7269 3.27066 39.6191 3.85872 39.0789C5.20575 37.8407 6.60366 36.5262 8.35867 35.9799V36.6229C7.4949 36.5323 7.38706 37.8102 8.25693 37.8438H9.68129C10.5501 37.8102 10.4443 36.5323 9.57955 36.6229V35.7479C12.4405 35.4946 14.0164 38.7625 16.8448 38.8998L16.7227 47.2791H15.3716C14.5709 47.2923 14.5679 48.4858 15.3716 48.5H22.2513C22.588 48.5 22.8617 48.2263 22.8617 47.8896C22.8617 47.5528 22.588 47.2791 22.2513 47.2791H20.8991L20.7699 38.4186C24.9291 37.3473 25.2841 40.1217 28.9081 40.1197C31.2776 40.1176 33.5596 38.966 35.8824 38.5488L35.8244 41.6041H35.1773C34.3766 41.6173 34.3736 42.8107 35.1773 42.825H40.1361C40.4729 42.825 40.7466 42.5513 40.7466 42.2145C40.7028 41.4881 40.0069 41.6061 39.489 41.6041L39.428 38.3158C42.6471 38.4115 45.8529 39.3465 48.7616 40.0647C49.4555 40.0739 49.602 39.0412 48.9193 38.8642C46.1449 38.1195 42.7315 37.2048 39.4056 37.0939L39.1614 23.9878C39.253 23.885 39.3334 23.7731 39.4026 23.6541L50.3772 21.1757C51.1281 21.0251 51.6337 20.2061 51.4272 19.4675H51.4282ZM29.7637 30.1288C29.7759 30.5348 29.2174 30.724 28.9844 30.3903L27.4146 28.2792C27.7544 28.0391 28.0779 27.7868 28.3902 27.5202C28.4126 27.6128 29.8685 30.081 29.7647 30.1278L29.7637 30.1288ZM24.5536 20.55L27.7869 26.4265C27.4369 26.7368 27.0727 27.0268 26.6851 27.2994L20.8717 19.4817C21.1565 19.1511 21.357 18.734 21.4384 18.3046C22.6185 18.8235 23.9422 19.3159 24.5536 20.55ZM25.2689 1.92958C25.5385 1.47582 26.2496 1.837 26.0411 2.32332L24.9179 4.92277C24.5363 4.74473 24.1487 4.58296 23.7519 4.43747L25.2699 1.9306L25.2689 1.92958ZM19.7322 11.077L23.1059 5.50269C23.5576 5.65835 24.0012 5.83945 24.4326 6.04191L20.2867 15.6319C20.0089 15.4539 19.6935 15.3318 19.37 15.2738C19.2621 13.9359 18.9142 12.2674 19.7322 11.076V11.077ZM18.8399 16.456C21.067 16.5008 20.4759 19.79 18.3739 19.0585C17.0666 18.505 17.4237 16.5221 18.8399 16.456ZM1.8636 19.9976C1.58687 19.7615 1.74558 19.2803 2.1037 19.2477L4.72249 18.9435C4.75403 19.3647 4.80185 19.7707 4.86594 20.1665C4.69502 20.1217 1.89921 20.2133 1.8636 19.9976ZM15.1223 19.6293C14.462 20.0993 13.6491 20.3506 12.8393 20.3313L6.1092 20.1919C6.02781 19.7463 5.97084 19.2854 5.93625 18.8021L16.3402 17.5945C16.3096 17.9587 16.3564 18.326 16.4785 18.6729L15.1213 19.6293H15.1223ZM17.9436 47.2791L18.3373 20.3262C18.6507 20.3984 18.9712 20.4116 19.2866 20.3638C19.3751 26.4601 19.5918 41.366 19.6783 47.2791H17.9436ZM37.1297 23.2909C36.1805 22.5268 37.4492 21.1849 38.2661 22.0914C38.8959 22.827 37.906 23.8779 37.1297 23.2909ZM33.4315 19.9772L28.8237 13.357C28.7016 13.1912 28.9508 12.9734 29.1004 13.1372L36.3534 21.019C36.213 21.131 36.0879 21.2602 35.9811 21.4036C35.1051 21.1096 33.9463 20.8247 33.4315 19.9772ZM34.1874 34.7254C34.0978 34.9238 33.7845 34.7987 33.8567 34.5911L36.9628 24.5657C37.1684 24.6359 37.384 24.6735 37.6008 24.6766C37.7991 25.5444 38.0667 26.5893 37.617 27.4225C36.7767 29.2122 35.0349 32.9206 34.1884 34.7254H34.1874ZM37.0473 41.6041L37.2457 31.0842L38.0423 29.3882C38.0911 32.0354 38.2224 39.0565 38.2692 41.6041H37.0473ZM50.2236 19.907C50.1463 20.079 39.7892 22.2633 39.66 22.3457C39.6356 22.1646 39.5857 21.9876 39.5124 21.8177C40.2083 21.1981 41.0243 20.3404 42.0224 20.317L50.0598 19.6354C50.1982 19.614 50.303 19.8022 50.2226 19.907H50.2236Z" fill="#005586"/>
</g>
<defs>
<clipPath id="clip0_134_2580">
<rect width="50" height="48" fill="white" transform="translate(0.5 0.5)"/>
</clipPath>
</defs>
</svg>
