<svg width="47" height="49" viewBox="0 0 47 49" fill="none" xmlns="http://www.w3.org/2000/svg">
<path d="M47.5915 29.8679C47.3002 29.1648 46.62 28.7104 45.8586 28.7104L40.135 28.7114C40.135 28.7113 40.1349 28.711 40.1349 28.7104V3C40.1349 1.75937 39.1252 0.75 37.8841 0.75H21.5196C20.2785 0.75 19.2688 1.75937 19.2688 3V9.35996C18.1246 9.09398 16.933 8.95312 15.709 8.95312C7.04702 8.95312 0 15.9976 0 24.6562C0 33.3149 7.04702 40.3594 15.709 40.3594C17.217 40.3594 18.6759 40.1453 20.0574 39.7469L28.3756 48.062C28.7298 48.4161 29.2008 48.6111 29.7019 48.6111C30.2029 48.6111 30.674 48.4161 31.0282 48.062L47.1849 31.9113C47.7233 31.3731 47.8829 30.571 47.5915 29.8679ZM1.50056 24.6562C1.50056 16.8246 7.87441 10.4531 15.709 10.4531C23.5436 10.4531 29.9174 16.8246 29.9174 24.6562C29.9174 32.4879 23.5436 38.8594 15.709 38.8594C7.87441 38.8594 1.50056 32.4879 1.50056 24.6562ZM46.1239 30.8505L29.9671 47.0013C29.8715 47.0968 29.7599 47.1111 29.7019 47.1111C29.6438 47.1111 29.5322 47.0968 29.4366 47.0013L21.6319 39.1994C27.3664 36.8572 31.418 31.2212 31.418 24.6562C31.418 17.7666 26.9562 11.8992 20.7694 9.78923V3C20.7694 2.58646 21.1059 2.25 21.5196 2.25H37.8841C38.2978 2.25 38.6344 2.58646 38.6344 3V28.7104C38.6344 29.5375 39.3076 30.2104 40.1349 30.2104H45.8586C46.0848 30.2104 46.1764 30.3723 46.2052 30.4419C46.234 30.5115 46.2839 30.6907 46.1239 30.8505Z" fill="#005586"/>
<path d="M15.0364 20.0387H16.3816C17.2576 20.0387 17.9702 20.751 17.9702 21.6267C17.9702 22.0409 18.3061 22.3767 18.7205 22.3767C19.1349 22.3767 19.4708 22.0409 19.4708 21.6267C19.4708 19.95 18.1268 18.5821 16.4593 18.5406V17.8223C16.4593 17.4081 16.1234 17.0723 15.709 17.0723C15.2946 17.0723 14.9587 17.4081 14.9587 17.8223V18.5406C13.2912 18.5821 11.9473 19.95 11.9473 21.6267V22.3185C11.9473 24.0213 13.3331 25.4066 15.0364 25.4066H16.3816C17.2576 25.4066 17.9702 26.119 17.9702 26.9947V27.6864C17.9702 28.5621 17.2576 29.2745 16.3816 29.2745H15.0364C14.1605 29.2745 13.4478 28.5621 13.4478 27.6864V27.6218C13.4478 27.2076 13.1119 26.8718 12.6975 26.8718C12.2832 26.8718 11.9473 27.2076 11.9473 27.6218V27.6864C11.9473 29.3632 13.2912 30.731 14.9587 30.7725V31.4909C14.9587 31.9051 15.2946 32.2409 15.709 32.2409C16.1234 32.2409 16.4593 31.9051 16.4593 31.4909V30.7725C18.1268 30.731 19.4708 29.3632 19.4708 27.6864V26.9947C19.4708 25.2919 18.085 23.9066 16.3816 23.9066H15.0364C14.1605 23.9066 13.4478 23.1942 13.4478 22.3185V21.6267C13.4478 20.751 14.1605 20.0387 15.0364 20.0387Z" fill="#005586"/>
<path d="M15.7087 12.9014C9.22449 12.9014 3.94922 18.1747 3.94922 24.6565C3.94922 31.1382 9.22449 36.4116 15.7087 36.4116C22.1929 36.4116 27.4682 31.1382 27.4682 24.6565C27.4682 18.1747 22.1929 12.9014 15.7087 12.9014ZM15.7087 34.9116C10.0519 34.9116 5.44978 30.3111 5.44978 24.6565C5.44978 19.0018 10.0519 14.4014 15.7087 14.4014C21.3655 14.4014 25.9676 19.0018 25.9676 24.6565C25.9676 30.3111 21.3655 34.9116 15.7087 34.9116Z" fill="#005586"/>
</svg>
