<svg width="40" height="43" viewBox="0 0 40 43" fill="none" xmlns="http://www.w3.org/2000/svg">
<path d="M9.16015 0.5C7.89064 0.5 6.89595 1.23949 6.89595 2.18354V4.035H2.74668C2.01846 4.03585 1.32031 4.32551 0.805388 4.84045C0.290466 5.35539 0.00082339 6.05355 0 6.78177V39.7557C0.00116695 40.4836 0.291 41.1813 0.805919 41.6958C1.32084 42.2103 2.01879 42.4995 2.74668 42.5H37.2567C37.9842 42.4992 38.6818 42.2098 39.1963 41.6953C39.7107 41.1808 40.0001 40.4833 40.0009 39.7557V6.78177C40.0004 6.05387 39.7112 5.35589 39.1968 4.84095C38.6823 4.32601 37.9846 4.03617 37.2567 4.035H33.1048V2.18354C33.1048 1.23949 32.111 0.5 30.8431 0.5C29.5735 0.5 28.5789 1.23949 28.5789 2.18354V4.035H22.2647V2.18354C22.2647 1.23949 21.2701 0.5 20.0005 0.5C18.7309 0.5 17.7363 1.23949 17.7363 2.18354V4.035H11.4242V2.18354C11.4243 1.23949 10.4297 0.5 9.16015 0.5ZM8.27867 2.19383C8.32049 2.10326 8.63826 1.88272 9.16015 1.88272C9.68204 1.88272 9.99971 2.10326 10.0416 2.19383V4.035H8.27867V2.19383ZM1.38237 12.6765H38.6182V33.2488H33.4647C33.2813 33.2488 33.1055 33.3216 32.9758 33.4513C32.8461 33.5809 32.7733 33.7568 32.7733 33.9401V39.0939H2.74668C2.38499 39.0936 2.03824 38.9497 1.78252 38.6939C1.5268 38.4381 1.38301 38.0913 1.38272 37.7296L1.38237 12.6765ZM37.6402 34.6315L34.156 38.116V34.6313L37.6402 34.6315ZM37.2567 41.1173H2.74668C2.45328 41.1171 2.16774 41.0224 1.93231 40.8473C1.69689 40.6722 1.52409 40.426 1.43949 40.1451C1.84066 40.3631 2.29009 40.477 2.74668 40.4765H33.4647C33.648 40.4764 33.8239 40.4036 33.9536 40.274L38.6185 35.6091V39.7557C38.6181 40.1168 38.4744 40.4629 38.2191 40.7181C37.9638 40.9734 37.6177 41.1169 37.2567 41.1173ZM29.9617 2.19383C30.0029 2.10352 30.3203 1.88315 30.8432 1.88315C31.3647 1.88315 31.6815 2.10352 31.7222 2.19374V4.035H29.9618L29.9617 2.19383ZM19.119 2.19383C19.1609 2.10335 19.4786 1.88272 20.0005 1.88272C20.5224 1.88272 20.84 2.10326 20.882 2.19383V4.035H19.119V2.19383ZM20.0005 8.34778C20.1838 8.34778 20.3597 8.27494 20.4893 8.14528C20.619 8.01563 20.6918 7.83978 20.6918 7.65642C20.6918 7.47306 20.619 7.29721 20.4893 7.16756C20.3597 7.0379 20.1838 6.96506 20.0005 6.96506C19.4806 6.96506 19.1622 6.74417 19.119 6.65309V5.41772H28.579V6.66415C28.579 7.6082 29.5735 8.34769 30.8432 8.34769C31.0266 8.34769 31.2024 8.27485 31.3321 8.1452C31.4617 8.01554 31.5346 7.83969 31.5346 7.65633C31.5346 7.47297 31.4617 7.29712 31.3321 7.16747C31.2024 7.03781 31.0266 6.96498 30.8432 6.96498C30.3222 6.96498 30.0042 6.74426 29.9617 6.65343V5.41763H37.2567C37.618 5.41836 37.9643 5.56239 38.2195 5.81811C38.4748 6.07383 38.6181 6.42037 38.6182 6.78168V11.2938H1.38272V6.78177C1.38308 6.42013 1.5269 6.0734 1.78261 5.81767C2.03832 5.56194 2.38504 5.41811 2.74668 5.41772H6.89612V6.66415C6.89612 7.6082 7.89064 8.34769 9.16032 8.34769C9.34368 8.34769 9.51953 8.27485 9.64918 8.1452C9.77884 8.01554 9.85168 7.83969 9.85168 7.65633C9.85168 7.47297 9.77884 7.29712 9.64918 7.16747C9.51953 7.03781 9.34368 6.96498 9.16032 6.96498C8.64042 6.96498 8.32205 6.74409 8.27884 6.653V5.41772H17.7363V6.66415C17.7363 7.6082 18.7309 8.34778 20.0005 8.34778ZM14.2459 20.9003H17.7638C17.9472 20.9003 18.123 20.8275 18.2527 20.6978C18.3824 20.5682 18.4552 20.3923 18.4552 20.209V17.1051C18.4552 16.9218 18.3824 16.7459 18.2527 16.6163C18.123 16.4866 17.9472 16.4138 17.7638 16.4138H14.2459C14.0626 16.4138 13.8867 16.4866 13.7571 16.6163C13.6274 16.7459 13.5546 16.9218 13.5546 17.1051V20.209C13.5546 20.3923 13.6274 20.5682 13.7571 20.6978C13.8867 20.8275 14.0626 20.9003 14.2459 20.9003ZM14.9373 17.7965H17.0725V19.5176H14.9373V17.7965ZM22.2371 20.9003H25.7549C25.9383 20.9003 26.1141 20.8275 26.2438 20.6978C26.3734 20.5682 26.4463 20.3923 26.4463 20.209V17.1051C26.4463 16.9218 26.3734 16.7459 26.2438 16.6163C26.1141 16.4866 25.9383 16.4138 25.7549 16.4138H22.2371C22.0537 16.4138 21.8779 16.4866 21.7482 16.6163C21.6186 16.7459 21.5457 16.9218 21.5457 17.1051V20.209C21.5457 20.3923 21.6186 20.5682 21.7482 20.6978C21.8779 20.8275 22.0537 20.9003 22.2371 20.9003ZM22.9285 17.7965H25.0635V19.5176H22.9285V17.7965ZM6.2548 28.4946H9.77502C9.95838 28.4946 10.1342 28.4218 10.2639 28.2921C10.3935 28.1625 10.4664 27.9866 10.4664 27.8033V24.7019C10.4664 24.5185 10.3935 24.3426 10.2639 24.213C10.1342 24.0833 9.95838 24.0105 9.77502 24.0105H6.2548C6.07144 24.0105 5.89559 24.0833 5.76594 24.213C5.63628 24.3426 5.56344 24.5185 5.56344 24.7019V27.8033C5.56344 27.9866 5.63628 28.1625 5.76594 28.2921C5.89559 28.4218 6.07144 28.4946 6.2548 28.4946ZM6.94616 25.3932H9.08367V27.1119H6.94616V25.3932ZM14.2459 28.4946H17.7638C17.9472 28.4946 18.123 28.4218 18.2527 28.2921C18.3824 28.1625 18.4552 27.9866 18.4552 27.8033V24.7019C18.4552 24.5185 18.3824 24.3426 18.2527 24.213C18.123 24.0833 17.9472 24.0105 17.7638 24.0105H14.2459C14.0626 24.0105 13.8867 24.0833 13.7571 24.213C13.6274 24.3426 13.5546 24.5185 13.5546 24.7019V27.8033C13.5546 27.9866 13.6274 28.1625 13.7571 28.2921C13.8867 28.4218 14.0626 28.4946 14.2459 28.4946ZM14.9373 25.3932H17.0725V27.1119H14.9373V25.3932ZM22.2371 28.4946H25.7549C25.9383 28.4946 26.1141 28.4218 26.2438 28.2921C26.3734 28.1625 26.4463 27.9866 26.4463 27.8033V24.7019C26.4463 24.5185 26.3734 24.3426 26.2438 24.213C26.1141 24.0833 25.9383 24.0105 25.7549 24.0105H22.2371C22.0537 24.0105 21.8779 24.0833 21.7482 24.213C21.6186 24.3426 21.5457 24.5185 21.5457 24.7019V27.8033C21.5457 27.9866 21.6186 28.1625 21.7482 28.2921C21.8779 28.4218 22.0537 28.4946 22.2371 28.4946ZM22.9285 25.3932H25.0635V27.1119H22.9285V25.3932ZM6.2548 36.089H9.77502C9.95838 36.089 10.1342 36.0161 10.2639 35.8865C10.3935 35.7568 10.4664 35.581 10.4664 35.3976V32.2962C10.4664 32.1128 10.3935 31.937 10.2639 31.8073C10.1342 31.6776 9.95838 31.6048 9.77502 31.6048H6.2548C6.07144 31.6048 5.89559 31.6776 5.76594 31.8073C5.63628 31.937 5.56344 32.1128 5.56344 32.2962V35.3976C5.56344 35.581 5.63628 35.7568 5.76594 35.8865C5.89559 36.0161 6.07144 36.089 6.2548 36.089ZM6.94616 32.9875H9.08367V34.7062H6.94616V32.9875ZM14.2459 36.089H17.7638C17.9472 36.089 18.123 36.0161 18.2527 35.8865C18.3824 35.7568 18.4552 35.581 18.4552 35.3976V32.2962C18.4552 32.1128 18.3824 31.937 18.2527 31.8073C18.123 31.6776 17.9472 31.6048 17.7638 31.6048H14.2459C14.0626 31.6048 13.8867 31.6776 13.7571 31.8073C13.6274 31.937 13.5546 32.1128 13.5546 32.2962V35.3976C13.5546 35.581 13.6274 35.7568 13.7571 35.8865C13.8867 36.0161 14.0626 36.089 14.2459 36.089ZM14.9373 32.9875H17.0725V34.7062H14.9373V32.9875ZM6.2548 20.9003H9.77502C9.95838 20.9003 10.1342 20.8275 10.2639 20.6978C10.3935 20.5682 10.4664 20.3923 10.4664 20.209V17.1051C10.4664 16.9218 10.3935 16.7459 10.2639 16.6163C10.1342 16.4866 9.95838 16.4138 9.77502 16.4138H6.2548C6.07144 16.4138 5.89559 16.4866 5.76594 16.6163C5.63628 16.7459 5.56344 16.9218 5.56344 17.1051V20.209C5.56344 20.3923 5.63628 20.5682 5.76594 20.6978C5.89559 20.8275 6.07144 20.9003 6.2548 20.9003ZM6.94616 17.7965H9.08367V19.5176H6.94616V17.7965ZM33.7461 24.0105H30.2282C30.0449 24.0105 29.869 24.0833 29.7394 24.213C29.6097 24.3426 29.5369 24.5185 29.5369 24.7019V27.8033C29.5369 27.9866 29.6097 28.1625 29.7394 28.2921C29.869 28.4218 30.0449 28.4946 30.2282 28.4946H33.7461C33.9295 28.4946 34.1053 28.4218 34.235 28.2921C34.3647 28.1625 34.4375 27.9866 34.4375 27.8033V24.7019C34.4375 24.5185 34.3647 24.3426 34.235 24.213C34.1053 24.0833 33.9295 24.0105 33.7461 24.0105ZM33.0548 27.1119H30.9196V25.3932H33.0548V27.1119ZM22.2371 36.089H25.7549C25.9383 36.089 26.1141 36.0161 26.2438 35.8865C26.3734 35.7568 26.4463 35.581 26.4463 35.3976V32.2962C26.4463 32.1128 26.3734 31.937 26.2438 31.8073C26.1141 31.6776 25.9383 31.6048 25.7549 31.6048H22.2371C22.0537 31.6048 21.8779 31.6776 21.7482 31.8073C21.6186 31.937 21.5457 32.1128 21.5457 32.2962V35.3976C21.5457 35.581 21.6186 35.7568 21.7482 35.8865C21.8779 36.0161 22.0537 36.089 22.2371 36.089ZM22.9285 32.9875H25.0635V34.7062H22.9285V32.9875ZM29.6433 19.0924C29.5783 19.0286 29.5266 18.9525 29.4912 18.8686C29.4557 18.7847 29.4372 18.6946 29.4366 18.6036C29.4361 18.5125 29.4536 18.4222 29.488 18.3379C29.5225 18.2536 29.5733 18.1769 29.6375 18.1123C29.7017 18.0476 29.778 17.9963 29.8621 17.9613C29.9461 17.9263 30.0363 17.9082 30.1274 17.9081C30.2185 17.908 30.3087 17.9259 30.3928 17.9608C30.4769 17.9957 30.5533 18.0469 30.6176 18.1114L31.5073 18.9949L33.3165 16.8569C33.435 16.717 33.6042 16.6298 33.7869 16.6145C33.9697 16.5993 34.1509 16.6573 34.2909 16.7758C34.4309 16.8942 34.5181 17.0634 34.5333 17.2462C34.5485 17.4289 34.4905 17.6102 34.3721 17.7502L32.0791 20.4596C32.0174 20.5325 31.9413 20.5918 31.8555 20.6339C31.7697 20.6759 31.6761 20.6997 31.5807 20.7037C31.5708 20.7037 31.5607 20.7043 31.5509 20.7043C31.3683 20.7043 31.1932 20.6321 31.0637 20.5035L29.6433 19.0924Z" fill="#005586"/>
</svg>
