<svg width="46" height="49" viewBox="0 0 46 49" fill="none" xmlns="http://www.w3.org/2000/svg">
<g clip-path="url(#clip0_153_7902)">
<path d="M44.8156 9.74633C44.5873 9.6145 44.3036 9.6145 44.0752 9.74633C38.5942 12.9107 40.2195 11.9724 34.6673 15.1779C34.3639 15.3531 34.2348 15.7068 34.325 16.0218L31.1511 17.8501C30.2459 18.3728 29.1211 18.3728 28.2156 17.85L25.2659 16.1469C23.9429 15.3829 22.2989 15.383 20.9758 16.1469L16.928 18.4839C16.2344 18.439 15.5528 18.2326 14.9462 17.8826L11.6798 16.0002C11.7586 15.6873 11.6249 15.3469 11.332 15.1779L7.74915 13.1094C7.43818 12.93 7.04071 13.0363 6.86121 13.3473C6.68172 13.6582 6.78824 14.0557 7.09912 14.2352L7.41616 14.4183L4.49001 19.4866C4.31052 19.7974 4.41704 20.195 4.72792 20.3745C5.03742 20.5531 5.43558 20.4488 5.61585 20.1366L8.542 15.0683L10.1972 16.024L4.54886 25.8074L2.11352 24.4013V11.3568L4.39537 12.6742C4.70617 12.8535 5.10381 12.7472 5.2833 12.4363C5.4628 12.1254 5.35628 11.7279 5.04539 11.5484L1.92398 9.74633C1.6956 9.6145 1.41193 9.6145 1.18356 9.74633C0.955268 9.87815 0.813477 10.1239 0.813477 10.3875V24.7244C0.813477 24.9878 0.955095 25.2334 1.18364 25.3656L4.38324 27.2129C4.49738 27.2789 4.624 27.3125 4.75245 27.3125C4.93775 27.3125 5.12738 27.2421 5.27039 27.1025L7.5466 28.4142C7.27697 29.0503 7.31129 29.774 7.66603 30.3887L8.25539 31.4095C8.61264 32.0284 9.21838 32.4072 9.87897 32.4967C9.8086 32.9732 9.89215 33.4755 10.1511 33.924L10.7405 34.9447C11.2434 35.816 12.2576 36.2201 13.196 35.9846C13.215 36.3263 13.314 36.6612 13.4901 36.9662L14.0794 37.987C14.375 38.4989 14.8521 38.8651 15.423 39.018C15.9044 39.1472 16.4181 39.1145 16.8901 38.9049C16.9191 39.2189 17.0159 39.5257 17.1783 39.8069L17.7677 40.8277C18.0632 41.3396 18.5404 41.7058 19.1112 41.8587C19.6804 42.0114 20.2773 41.9339 20.7904 41.6376L21.8827 41.007C22.1743 40.8386 22.4286 40.6237 22.6378 40.3723L24.9421 41.7026C25.4615 42.0026 26.0649 42.0785 26.6414 41.9183C27.2184 41.7578 27.6958 41.3807 27.9855 40.8562L28.5556 39.8242C28.7052 39.5533 28.7913 39.2627 28.8187 38.9706L29.1498 39.1618C29.6685 39.4613 30.2719 39.5379 30.849 39.3774C31.4261 39.2169 31.9034 38.8398 32.1931 38.3154L32.7631 37.2834C32.9374 36.9678 33.0254 36.6257 33.035 36.2853C33.9085 36.4434 34.8552 36.0594 35.344 35.2129L35.9334 34.1921C36.1727 33.7777 36.2622 33.3172 36.2189 32.8737C36.3729 32.8633 36.5273 32.8365 36.6796 32.7932C37.2602 32.6283 37.7376 32.2447 38.0236 31.7131L38.5822 30.6748C38.9944 29.9086 38.9157 29.0163 38.4471 28.3531L40.6863 27.0573C40.9109 27.3171 41.2993 27.3956 41.6158 27.213L43.7563 25.9771L43.8041 26.0598C43.9701 26.3474 44.3117 26.4921 44.6369 26.4048C44.9601 26.3182 45.1857 26.0241 45.1857 25.6897V10.3875C45.1858 10.1239 45.0439 9.87815 44.8156 9.74633ZM43.8857 11.3569V23.6009L38.5838 14.4178L43.8857 11.3569ZM9.38132 30.7594L8.79196 29.7386C8.58196 29.3749 8.65207 28.9314 8.92465 28.6491C9.10068 28.4714 9.07173 28.5381 11.5499 27.0925C11.7859 26.9564 12.0437 26.8916 12.2984 26.8916C12.8179 26.8916 13.3238 27.161 13.6017 27.6424C14.0158 28.3596 13.7692 29.2801 13.0519 29.6943C12.8016 29.8388 10.8249 30.98 10.6281 31.0936C10.4169 31.2156 10.1711 31.2479 9.93557 31.1848C9.7 31.1216 9.50326 30.9707 9.38132 30.7594ZM11.8664 34.2947L11.277 33.274C11.0254 32.8382 11.1753 32.2789 11.6111 32.0272C12.556 31.4816 12.2185 31.6764 13.2598 31.0753C13.9772 30.6625 14.8963 30.9095 15.3099 31.6261C15.724 32.3433 15.4773 33.2638 14.7601 33.678L13.1131 34.6289C12.6774 34.8806 12.1181 34.7307 11.8664 34.2947ZM15.7595 37.7623C15.524 37.6992 15.3272 37.5482 15.2053 37.3371L14.6159 36.3163C14.4941 36.1052 14.4616 35.8592 14.5247 35.6237C14.5877 35.3884 14.7386 35.1917 14.9496 35.0698C14.9619 35.0627 14.8574 35.123 16.4861 34.1826C17.2004 33.7704 18.122 34.0121 18.538 34.7325C18.9521 35.4497 18.7054 36.3702 17.9882 36.7844L16.452 37.6712C16.241 37.793 15.9949 37.8254 15.7595 37.7623ZM21.2326 39.8811L20.1403 40.5117C19.9291 40.6336 19.6832 40.666 19.4478 40.6029C19.2123 40.5398 19.0155 40.3887 18.8935 40.1777L18.3042 39.1569C18.1823 38.9457 18.1499 38.6998 18.213 38.4643C18.2761 38.2288 18.4271 38.0321 18.6382 37.9101L19.7305 37.2795C20.0786 37.0785 20.4834 37.0257 20.8703 37.1295C21.2578 37.2333 21.5817 37.4818 21.7823 37.8294C22.1981 38.5492 21.9505 39.4667 21.2326 39.8811ZM41.4797 25.7904C41.4476 25.7434 41.4103 25.7019 41.3689 25.6661L40.2193 23.6749C40.0399 23.3639 39.6421 23.2576 39.3314 23.437C39.0205 23.6165 38.914 24.014 39.0935 24.3249L40.0248 25.9381L37.351 27.4855L32.448 24.6548C32.1369 24.4754 31.7395 24.5818 31.5601 24.8928C31.3806 25.2036 31.4871 25.6012 31.798 25.7807C32.3622 26.1065 36.5819 28.5427 37.0901 28.8361C37.5202 29.0844 37.6728 29.6215 37.4375 30.0588L36.8789 31.0971C36.7609 31.3164 36.564 31.4746 36.3246 31.5427C36.0849 31.6109 35.8343 31.5797 35.6187 31.4551C32.5227 29.6671 34.3448 30.7199 30.3758 28.4284C30.0647 28.249 29.6673 28.3553 29.4879 28.6663C29.3084 28.9772 29.4149 29.3747 29.7258 29.5542L34.4809 32.2996C34.911 32.5533 35.0578 33.1087 34.8077 33.542L34.2182 34.5628C34.0964 34.774 33.8995 34.925 33.6641 34.988C33.4287 35.0511 33.1826 35.0187 32.9715 34.8968C30.0395 33.2041 31.2948 33.9289 28.2238 32.1557C27.913 31.9763 27.5153 32.0826 27.3358 32.3936C27.1564 32.7045 27.2629 33.102 27.5738 33.2815C28.12 33.5969 30.7363 35.1076 31.2826 35.423C31.7103 35.67 31.864 36.2225 31.6252 36.6547L31.0553 37.6866C30.9358 37.9029 30.7389 38.0584 30.5009 38.1247C30.2629 38.191 30.014 38.1593 29.8 38.0358L28.0569 37.0295C28.0563 37.0291 28.0556 37.0287 28.055 37.0284C28.0277 37.0126 26.3069 36.0191 26.2765 36.0015L26.0592 35.8761C25.7481 35.6966 25.3507 35.803 25.1713 36.114C24.9918 36.4249 25.0983 36.8224 25.4092 37.0019C25.8244 37.2417 26.6368 37.7107 27.0751 37.9638C27.5029 38.2107 27.6564 38.7632 27.4177 39.1955L26.8476 40.2274C26.7282 40.4438 26.5313 40.5993 26.2933 40.6656C26.0552 40.7319 25.8065 40.7002 25.5924 40.5766L23.2137 39.2035C23.3721 38.5119 23.2651 37.797 22.9083 37.1793C22.5341 36.5311 21.9298 36.0674 21.2068 35.8737C20.8127 35.7681 20.4091 35.7496 20.0185 35.8152C20.0885 35.2343 19.9783 34.6269 19.6639 34.0824C19.0665 33.0477 17.9043 32.538 16.7893 32.7172C16.9577 31.3543 16.1125 30.0689 14.7859 29.6863C15.2113 28.8653 15.2231 27.8508 14.7275 26.9923C13.9549 25.6543 12.2379 25.1941 10.8997 25.9667C8.27081 27.4845 8.45559 27.3771 8.40515 27.4087L5.94416 25.9904L11.054 17.1401L14.2965 19.0088C14.6021 19.1852 14.9227 19.3331 15.2534 19.4514C14.6548 19.8208 14.4542 20.6045 14.8082 21.2174L15.0201 21.5844C16.0878 23.4338 18.4613 24.0697 20.3109 23.002L21.2397 22.4658C21.3789 22.3854 21.555 22.4072 21.6583 22.5178C22.3021 23.2072 23.2123 23.6026 24.1551 23.6026C25.0246 23.6026 25.8411 23.28 26.4667 22.7027L29.1172 24.2329C29.4277 24.4121 29.8254 24.3064 30.0051 23.995C30.1846 23.6841 30.0781 23.2866 29.7672 23.1071L27.2432 21.6498C27.3397 21.4465 27.4158 21.2335 27.4707 21.0121C27.5572 20.6636 27.3449 20.311 26.9964 20.2245C26.6478 20.138 26.2954 20.3503 26.2089 20.6988C26.1382 20.9836 26.0109 21.246 25.8306 21.4792C25.8284 21.482 25.8261 21.4848 25.8241 21.4877C25.4194 22.0057 24.8116 22.3026 24.1551 22.3026C23.5625 22.3026 23.0132 22.0639 22.6084 21.6306C22.0883 21.0737 21.2584 20.9542 20.5897 21.34L19.6611 21.8761C18.4323 22.5856 16.8553 22.1632 16.1461 20.9345L15.9342 20.5674C15.9322 20.5639 15.9334 20.5593 15.9369 20.5573C16.6179 20.1641 20.9444 17.6663 21.6257 17.2728C22.5479 16.7402 23.6935 16.7402 24.6158 17.2728L27.5655 18.9759C28.8718 19.73 30.4946 19.7302 31.8004 18.9765L34.9559 17.1588L37.5737 21.6928C37.7542 22.0053 38.1522 22.1094 38.4617 21.9307C38.7725 21.7512 38.8791 21.3537 38.6996 21.0428L35.8636 16.1308C35.8557 16.0897 35.8437 16.049 35.8275 16.0092L37.4578 15.0679L43.1063 24.8512L41.4797 25.7904Z" fill="#005586"/>
<path d="M15.5837 10.9072L16.3451 11.288C17.2121 11.7215 17.9284 12.4378 18.362 13.3049L18.7427 14.0662C18.87 14.3208 19.1258 14.479 19.4104 14.479C19.6948 14.479 19.951 14.3211 20.0782 14.0662L20.459 13.3049C20.8925 12.4378 21.6088 11.7214 22.4759 11.288L23.2373 10.9072C23.4917 10.78 23.6499 10.5243 23.65 10.2399C23.6501 9.95518 23.4921 9.69916 23.2372 9.57167L22.4759 9.19101C21.6088 8.75749 20.8926 8.04116 20.459 7.17412L20.0782 6.41272C19.951 6.15817 19.6952 6.00009 19.4106 6C19.1252 6 18.8698 6.15861 18.7426 6.41281L18.3619 7.17412C17.9284 8.04125 17.2121 8.75758 16.3451 9.19101L15.5834 9.57184C15.3288 9.69933 15.1708 9.95527 15.1709 10.24C15.1712 10.5244 15.3293 10.7803 15.5837 10.9072ZM22.6561 9.74423C22.6561 9.74423 22.6558 9.7444 22.6555 9.74457C22.6558 9.7444 22.656 9.7444 22.6561 9.74423ZM19.4104 7.97226C19.9366 8.92026 20.7295 9.7132 21.6776 10.2394C20.7296 10.7656 19.9366 11.5586 19.4104 12.5066C18.8843 11.5586 18.0913 10.7656 17.1433 10.2395C18.0913 9.7132 18.8843 8.92043 19.4104 7.97226Z" fill="#005586"/>
<path d="M25.1479 12.6872L25.7824 13.0044C26.4841 13.3553 27.0638 13.9349 27.4147 14.6365L27.7321 15.2715C27.8567 15.5203 28.107 15.6749 28.3853 15.6749C28.6636 15.6749 28.914 15.5203 29.0387 15.271L29.3559 14.6366C29.7069 13.9349 30.2865 13.3553 30.9883 13.0044C30.9975 12.9998 31.632 12.6825 31.623 12.687C31.8719 12.5624 32.0265 12.3121 32.0265 12.0338C32.0265 11.7555 31.8719 11.5051 31.6227 11.3803L30.9883 11.0631C30.2865 10.7122 29.7069 10.1326 29.3559 9.4308L29.0385 8.79603C28.9139 8.5472 28.6636 8.39258 28.3853 8.39258C28.107 8.39258 27.8566 8.5472 27.7319 8.79637L27.4147 9.4308C27.0638 10.1326 26.4841 10.7122 25.7824 11.0631L25.1476 11.3805C24.8988 11.5052 24.7441 11.7555 24.7441 12.0338C24.7441 12.3121 24.8988 12.5624 25.1479 12.6872ZM28.3853 10.3602C28.7989 11.042 29.3771 11.6202 30.059 12.0338C29.3773 12.4474 28.799 13.0256 28.3853 13.7074C27.9717 13.0258 27.3935 12.4475 26.7116 12.0338C27.3936 11.6202 27.9717 11.042 28.3853 10.3602Z" fill="#005586"/>
</g>
<defs>
<clipPath id="clip0_153_7902">
<rect width="45.3616" height="48" fill="white" transform="translate(0.5 0.5)"/>
</clipPath>
</defs>
</svg>
