<svg width="32" height="32" viewBox="0 0 32 32" fill="none" xmlns="http://www.w3.org/2000/svg">
<path d="M19.9066 20.3385C24.1969 20.3383 28.1359 17.5131 29.5247 13.4517C30.4918 10.6233 30.1514 7.45135 28.606 4.89313C28.4721 4.67134 28.1837 4.60016 27.9619 4.73414C27.7402 4.86817 27.669 5.15651 27.803 5.37824C28.186 6.01409 28.4897 6.68722 28.7141 7.39775L27.2247 6.77403C26.6669 6.54055 26.0216 6.71318 25.6552 7.1941L24.7876 8.33251C24.6857 8.4663 24.5103 8.51965 24.3511 8.46517L23.6492 8.22518C23.3136 8.11047 22.9533 8.13317 22.6346 8.28942L21.5455 8.82356C20.5451 9.31424 20.645 10.9098 21.6981 11.2721L22.6536 11.6009C22.7519 11.6347 22.8312 11.7047 22.877 11.798L23.5558 13.1823C23.7771 13.6333 24.2265 13.9181 24.7287 13.9255L26.3624 13.9498C26.5068 13.9519 26.6376 14.0331 26.7036 14.1617L27.4107 15.5393C26.3898 16.9698 24.925 18.1039 23.2921 18.7519C23.2409 18.6762 23.0303 18.3464 23.0702 18.2295L23.4606 17.0876C23.5536 16.8157 23.5351 16.5238 23.4085 16.2656L22.1849 13.7704C21.9236 13.2377 21.2776 13.0168 20.7449 13.2781C20.3669 13.476 19.4637 13.9802 19.196 14.0118L15.3587 13.4987C15.1987 13.4774 15.0041 13.0766 15.1919 12.9844C15.7246 12.7232 15.9455 12.0771 15.6843 11.5443L14.6731 9.48249C14.5415 9.21429 14.9554 8.96104 15.1604 9.03178L16.1977 9.3898C16.4996 9.49413 16.8372 9.47318 17.1237 9.33257L18.3647 8.72399C18.9627 8.43077 19.2106 7.70573 18.9173 7.10772L18.4987 6.25415C18.2055 5.6562 17.4804 5.40845 16.8824 5.70155C16.7912 5.74645 16.6837 5.73638 16.6023 5.6754L15.1443 4.58565C14.7848 4.31707 14.3096 4.26954 13.9041 4.46156L11.9783 5.3738C13.1237 3.47082 14.9497 2.08885 17.0323 1.36562C16.6347 2.14314 17.1798 3.38481 17.9932 3.65927L18.8817 3.95912C18.9966 3.99796 19.0933 4.08277 19.1467 4.19167L19.7933 5.51028C20.0278 5.98832 20.5041 6.2878 21.0365 6.29186L21.6774 6.2968C22.6422 6.2968 23.4331 5.28667 22.942 4.2853C22.8307 4.05838 22.9248 3.78324 23.1517 3.67184L25.2694 2.63325C25.7524 2.98083 26.2081 3.37887 26.6286 3.82677C26.8058 4.01572 27.1027 4.02511 27.2916 3.84779C27.4805 3.67047 27.4899 3.37356 27.3126 3.18467C24.3001 -0.0246072 19.3619 -0.923403 15.4074 1.01617C10.4342 3.45487 8.30463 9.65694 10.7488 14.6411C12.5158 18.2434 16.1415 20.3385 19.9066 20.3385ZM27.5384 13.7333C27.3136 13.2954 26.8684 13.0189 26.3763 13.0116L24.7426 12.9874C24.5952 12.9852 24.4632 12.9015 24.3982 12.7691L23.7193 11.3848C23.5636 11.0672 23.2935 10.8288 22.9589 10.7137L22.0034 10.385C21.6943 10.2785 21.6646 9.80999 21.9586 9.66588L23.0477 9.13173C23.1413 9.08589 23.2471 9.07913 23.3457 9.11284L24.0476 9.35284C24.5895 9.53804 25.1867 9.35659 25.5338 8.90106L26.4014 7.76265C26.509 7.62148 26.6984 7.57063 26.8623 7.63931L28.9937 8.53185C29.3665 10.6021 29.0005 12.7713 27.991 14.615L27.5384 13.7333ZM24.339 2.04456L22.7385 2.82946C22.0471 3.16859 21.7605 4.0069 22.0996 4.69836C22.2378 4.98019 21.9878 5.35854 21.6846 5.35854L21.0436 5.3536C20.869 5.35228 20.7126 5.25396 20.6357 5.09703L19.9889 3.77842C19.8262 3.44655 19.532 3.18842 19.1817 3.07014L18.2932 2.77023C18.0024 2.67209 17.726 2.06958 17.8675 1.79263L18.2442 1.05589C20.3357 0.670412 22.4853 1.02142 24.339 2.04456ZM11.3056 6.7305L14.3057 5.30931C14.3962 5.26647 14.5023 5.2771 14.5825 5.33709L16.0405 6.42684C16.4055 6.69948 16.8862 6.74439 17.2954 6.54386C17.4288 6.47844 17.5908 6.5336 17.6562 6.6672L18.0749 7.52078C18.1333 7.67508 18.0923 7.79536 17.9515 7.88161L16.7105 8.49019C16.6466 8.52153 16.5713 8.52628 16.5038 8.50289L15.4665 8.14487C14.4642 7.79836 13.3346 8.88405 13.8306 9.89555L14.8418 11.9573C14.8753 12.0257 14.847 12.1085 14.7788 12.142C14.2169 12.4861 14.0528 12.966 14.2863 13.5821L14.4107 13.8357C14.5694 14.1591 14.8772 14.3808 15.2342 14.4285L19.0714 14.9416C19.2831 14.97 19.4964 14.9353 19.688 14.8412L21.1579 14.1204C21.2368 14.0905 21.2983 14.1115 21.3424 14.1836L22.5661 16.6787C22.6916 16.9344 22.2876 17.6709 22.1824 17.9258C22.0604 18.2825 22.1938 18.7387 22.3933 19.056C21.5713 19.2876 20.7346 19.4003 19.905 19.4003C16.4872 19.4 13.1952 17.498 11.5911 14.2279C10.504 12.0111 10.4688 8.8265 11.3056 6.7305Z" fill="white"/>
<path d="M31.4998 20.8542C30.6946 19.8715 29.2022 19.7311 28.2278 20.5466L23.7577 24.2856C23.5295 23.2461 22.6012 22.4656 21.4942 22.4656H16.7169C16.0213 22.4656 15.3471 22.2443 14.8184 21.8425C12.6395 20.1869 9.44756 20.4645 7.58141 22.4656H5.54164V21.5975C5.54164 21.3383 5.33161 21.1284 5.07254 21.1284H0.4691C0.210032 21.1284 0 21.3383 0 21.5975V31.5318C0 31.7909 0.210032 32.0009 0.4691 32.0009H5.07254C5.33161 32.0009 5.54164 31.7909 5.54164 31.5318V30.6749H7.72183L11.1695 31.7114C11.8076 31.9035 12.4697 32.0009 13.1373 32.0009H20.8024C21.6829 32.0009 22.5325 31.6815 23.1943 31.1016L25.9714 28.6691C26.1663 28.4984 26.1859 28.202 26.0152 28.0071C25.8445 27.8122 25.5481 27.7925 25.3533 27.9634L22.5761 30.3959C22.0854 30.8259 21.4555 31.0627 20.8025 31.0627H13.1373C12.5614 31.0627 11.9903 30.9787 11.4397 30.813L7.92592 29.7565C7.92592 29.7565 6.25292 29.7367 5.54164 29.7367V27.5519C5.54164 27.2928 5.33161 27.0828 5.07254 27.0828C4.81347 27.0828 4.60344 27.2928 4.60344 27.5519V31.0627H0.938201V22.0666H4.60344V25.5073C4.60344 25.7664 4.81347 25.9764 5.07254 25.9764C5.33161 25.9764 5.54164 25.7664 5.54164 25.5073V23.4038H7.79082C7.92742 23.4038 8.05721 23.3443 8.14634 23.2408C9.64846 21.4952 12.4131 21.1933 14.2507 22.5895C14.9416 23.1147 15.8174 23.4039 16.7169 23.4039H21.4942C23.307 23.4039 23.2973 26.1614 21.4944 26.1614H15.4567C15.1977 26.1614 14.9876 26.3714 14.9876 26.6305C14.9876 26.8897 15.1977 27.0996 15.4567 27.0996H21.4944C22.4479 27.0996 23.3383 26.4702 23.6682 25.5836L28.8298 21.2661C29.5289 20.7861 30.1771 20.8471 30.7744 21.4492C31.2241 21.997 31.1507 22.8869 30.6171 23.3537L26.8912 26.6167C26.6963 26.7874 26.6767 27.0838 26.8474 27.2787C27.062 27.4763 27.2826 27.4909 27.5093 27.3226L31.235 24.0596C32.1488 23.2603 32.2699 21.7922 31.4998 20.8542Z" fill="white"/>
</svg>
