<svg width="36" height="44" viewBox="0 0 36 44" fill="none" xmlns="http://www.w3.org/2000/svg">
<path d="M28.7581 23.9951H30.099C30.3523 23.9951 30.5576 23.7898 30.5576 23.5366C30.5576 23.2833 30.3523 23.078 30.099 23.078H29.2157V22.1046C29.2157 21.8514 29.0104 21.6461 28.7571 21.6461C28.5039 21.6461 28.2986 21.8514 28.2986 22.1046V23.1383C27.5284 23.3419 26.9586 24.0438 26.9586 24.8775C26.9586 25.8698 27.7657 26.677 28.7581 26.677C29.2445 26.677 29.6405 27.0729 29.6405 27.5593C29.6405 28.0458 29.2445 28.4417 28.7581 28.4417H27.4171C27.1639 28.4417 26.9586 28.6471 26.9586 28.9003C26.9586 29.1535 27.1639 29.3589 27.4171 29.3589H28.2986V30.126C28.2986 30.3792 28.5039 30.5845 28.7572 30.5845C29.0104 30.5845 29.2157 30.3792 29.2157 30.126V29.2992C29.9868 29.0962 30.5576 28.3938 30.5576 27.5594C30.5576 26.567 29.7504 25.7599 28.7581 25.7599C28.2716 25.7599 27.8757 25.364 27.8757 24.8775C27.8757 24.391 28.2716 23.9951 28.7581 23.9951Z" fill="#005586" stroke="#005586" stroke-width="0.2"/>
<path d="M34.9853 26.1155C34.9853 22.6822 32.1923 19.8893 28.759 19.8893C25.3257 19.8893 22.5328 22.6822 22.5328 26.1155C22.5328 28.3652 23.7339 30.3364 25.5262 31.4298H23.5856C23.005 31.4298 22.5328 31.902 22.5328 32.4826V42.0473C22.5328 42.6278 23.005 43.1001 23.5856 43.1001H33.9324C34.513 43.1001 34.9853 42.6279 34.9853 42.0473V32.4826C34.9853 31.902 34.513 31.4298 33.9324 31.4298H31.9902C33.7831 30.3364 34.9853 28.3657 34.9853 26.1155ZM34.0682 32.4826V34.0477H30.466C30.2128 34.0477 30.0075 34.253 30.0075 34.5062C30.0075 34.7595 30.2128 34.9648 30.466 34.9648H34.0682V36.8067H30.466C30.2128 36.8067 30.0075 37.0121 30.0075 37.2653C30.0075 37.5185 30.2128 37.7238 30.466 37.7238H34.0682V39.5637H30.466C30.2128 39.5637 30.0075 39.769 30.0075 40.0223C30.0075 40.2755 30.2128 40.4808 30.466 40.4808H34.0682V42.0472C34.0682 42.122 34.0072 42.183 33.9324 42.183H23.5856C23.5109 42.183 23.4499 42.122 23.4499 42.0472V40.4808H27.052C27.3052 40.4808 27.5105 40.2755 27.5105 40.0223C27.5105 39.769 27.3052 39.5637 27.052 39.5637H23.4499V37.7238H27.052C27.3052 37.7238 27.5105 37.5185 27.5105 37.2653C27.5105 37.0121 27.3052 36.8067 27.052 36.8067H23.4499V34.9648H27.052C27.3052 34.9648 27.5105 34.7595 27.5105 34.5062C27.5105 34.253 27.3052 34.0477 27.052 34.0477H23.4499V32.4826C23.4499 32.4078 23.5109 32.3469 23.5856 32.3469H33.9324C34.0072 32.3469 34.0682 32.4079 34.0682 32.4826ZM28.759 31.4246C25.8316 31.4246 23.4499 29.0429 23.4499 26.1155C23.4499 23.1881 25.8316 20.8064 28.759 20.8064C31.6864 20.8064 34.0682 23.1881 34.0682 26.1155C34.0682 29.0429 31.6864 31.4246 28.759 31.4246Z" fill="#005586" stroke="#005586" stroke-width="0.2"/>
<mask id="path-3-outside-1_190_12328" maskUnits="userSpaceOnUse" x="0" y="4.25586" width="26" height="39" fill="black">
<rect fill="white" y="4.25586" width="26" height="39"/>
<path d="M20.6537 38.5505C20.8517 38.5505 21.0123 38.3899 21.0123 38.1919C21.0123 37.9939 20.8517 37.8334 20.6537 37.8334H18.4328V36.6998C18.4328 36.5018 18.2723 36.3413 18.0742 36.3413H15.3999C14.3008 36.3413 13.3132 36.9873 12.8839 37.9871C12.7023 38.4101 12.5949 38.8549 12.5571 39.3124H4.94836C3.71719 39.3124 2.7156 38.3108 2.7156 37.0796V32.9112C3.34698 33.3437 4.10971 33.5978 4.93114 33.5978H15.9409C18.1086 33.5978 19.8721 31.8343 19.8721 29.6667V18.2323C22.7789 17.5066 24.8613 14.8704 24.8613 11.8452C24.8613 8.21183 21.9054 5.25586 18.272 5.25586C14.8744 5.25586 12.0408 7.84883 11.7171 11.2015H4.93114C2.76351 11.2015 1 12.965 1 15.1326V29.6667C1 30.6682 1.37962 31.5806 1.9985 32.2755V37.0796C1.9985 38.7062 3.32181 40.0295 4.94834 40.0295H12.5585C12.6004 40.5366 12.7267 41.0269 12.9446 41.4896C13.3771 42.4074 14.3393 43.0006 15.3959 43.0006H18.0742C18.2723 43.0006 18.4328 42.84 18.4328 42.642V41.5075H20.6537C20.8517 41.5075 21.0123 41.347 21.0123 41.149C21.0123 40.951 20.8517 40.7904 20.6537 40.7904H18.4328V38.5505H20.6537ZM15.9409 32.8807H10.7946V30.8489H16.0604C16.6463 30.8489 17.1231 30.3722 17.1231 29.7862V22.7582H19.155V29.6667C19.155 31.4389 17.7131 32.8807 15.9409 32.8807ZM4.4661 22.7582H10.0775V30.1318H4.81169C4.62115 30.1318 4.4661 29.9768 4.4661 29.7862V22.7582ZM15.9409 11.9186C17.7131 11.9186 19.155 13.3604 19.155 15.1326V22.0411H17.1231V15.013C17.1231 14.4271 16.6464 13.9504 16.0605 13.9504H10.7945V11.9186H15.9409ZM16.0605 14.6675C16.251 14.6675 16.406 14.8225 16.406 15.013V22.0411H10.7946V14.6675H16.0605ZM10.0775 22.0411H4.4661V15.0131C4.4661 14.8225 4.62115 14.6675 4.81169 14.6675H10.0775V22.0411ZM10.7946 22.7582H16.406V29.7862C16.406 29.9768 16.2509 30.1318 16.0604 30.1318H10.7946V22.7582ZM18.272 5.97295C21.5099 5.97295 24.1442 8.60723 24.1442 11.8452C24.1442 14.4811 22.3717 16.7881 19.8721 17.4942V15.1326C19.8721 12.965 18.1086 11.2015 15.9409 11.2015H12.4366C12.7569 8.2476 15.2675 5.97295 18.272 5.97295ZM4.93114 11.9186H10.0775V13.9504H4.81169C4.22573 13.9504 3.749 14.4271 3.749 15.0131V22.0411H1.71711V15.1326C1.71711 13.3604 3.15895 11.9186 4.93114 11.9186ZM1.71711 22.7582H3.749V29.7862C3.749 30.3722 4.22573 30.8489 4.81169 30.8489H10.0775V32.8807H4.93114C3.15894 32.8807 1.71711 31.4389 1.71711 29.6667V22.7582ZM17.7157 42.2834H15.3959C14.6156 42.2834 13.908 41.8518 13.5933 41.1839C13.3696 40.7092 13.2563 40.2001 13.2563 39.6709C13.2563 39.1844 13.3527 38.713 13.5429 38.27C13.8589 37.534 14.5879 37.0584 15.4 37.0584H17.7157V42.2834Z"/>
</mask>
<path d="M20.6537 38.5505C20.8517 38.5505 21.0123 38.3899 21.0123 38.1919C21.0123 37.9939 20.8517 37.8334 20.6537 37.8334H18.4328V36.6998C18.4328 36.5018 18.2723 36.3413 18.0742 36.3413H15.3999C14.3008 36.3413 13.3132 36.9873 12.8839 37.9871C12.7023 38.4101 12.5949 38.8549 12.5571 39.3124H4.94836C3.71719 39.3124 2.7156 38.3108 2.7156 37.0796V32.9112C3.34698 33.3437 4.10971 33.5978 4.93114 33.5978H15.9409C18.1086 33.5978 19.8721 31.8343 19.8721 29.6667V18.2323C22.7789 17.5066 24.8613 14.8704 24.8613 11.8452C24.8613 8.21183 21.9054 5.25586 18.272 5.25586C14.8744 5.25586 12.0408 7.84883 11.7171 11.2015H4.93114C2.76351 11.2015 1 12.965 1 15.1326V29.6667C1 30.6682 1.37962 31.5806 1.9985 32.2755V37.0796C1.9985 38.7062 3.32181 40.0295 4.94834 40.0295H12.5585C12.6004 40.5366 12.7267 41.0269 12.9446 41.4896C13.3771 42.4074 14.3393 43.0006 15.3959 43.0006H18.0742C18.2723 43.0006 18.4328 42.84 18.4328 42.642V41.5075H20.6537C20.8517 41.5075 21.0123 41.347 21.0123 41.149C21.0123 40.951 20.8517 40.7904 20.6537 40.7904H18.4328V38.5505H20.6537ZM15.9409 32.8807H10.7946V30.8489H16.0604C16.6463 30.8489 17.1231 30.3722 17.1231 29.7862V22.7582H19.155V29.6667C19.155 31.4389 17.7131 32.8807 15.9409 32.8807ZM4.4661 22.7582H10.0775V30.1318H4.81169C4.62115 30.1318 4.4661 29.9768 4.4661 29.7862V22.7582ZM15.9409 11.9186C17.7131 11.9186 19.155 13.3604 19.155 15.1326V22.0411H17.1231V15.013C17.1231 14.4271 16.6464 13.9504 16.0605 13.9504H10.7945V11.9186H15.9409ZM16.0605 14.6675C16.251 14.6675 16.406 14.8225 16.406 15.013V22.0411H10.7946V14.6675H16.0605ZM10.0775 22.0411H4.4661V15.0131C4.4661 14.8225 4.62115 14.6675 4.81169 14.6675H10.0775V22.0411ZM10.7946 22.7582H16.406V29.7862C16.406 29.9768 16.2509 30.1318 16.0604 30.1318H10.7946V22.7582ZM18.272 5.97295C21.5099 5.97295 24.1442 8.60723 24.1442 11.8452C24.1442 14.4811 22.3717 16.7881 19.8721 17.4942V15.1326C19.8721 12.965 18.1086 11.2015 15.9409 11.2015H12.4366C12.7569 8.2476 15.2675 5.97295 18.272 5.97295ZM4.93114 11.9186H10.0775V13.9504H4.81169C4.22573 13.9504 3.749 14.4271 3.749 15.0131V22.0411H1.71711V15.1326C1.71711 13.3604 3.15895 11.9186 4.93114 11.9186ZM1.71711 22.7582H3.749V29.7862C3.749 30.3722 4.22573 30.8489 4.81169 30.8489H10.0775V32.8807H4.93114C3.15894 32.8807 1.71711 31.4389 1.71711 29.6667V22.7582ZM17.7157 42.2834H15.3959C14.6156 42.2834 13.908 41.8518 13.5933 41.1839C13.3696 40.7092 13.2563 40.2001 13.2563 39.6709C13.2563 39.1844 13.3527 38.713 13.5429 38.27C13.8589 37.534 14.5879 37.0584 15.4 37.0584H17.7157V42.2834Z" fill="#005586"/>
<path d="M20.6537 38.5505C20.8517 38.5505 21.0123 38.3899 21.0123 38.1919C21.0123 37.9939 20.8517 37.8334 20.6537 37.8334H18.4328V36.6998C18.4328 36.5018 18.2723 36.3413 18.0742 36.3413H15.3999C14.3008 36.3413 13.3132 36.9873 12.8839 37.9871C12.7023 38.4101 12.5949 38.8549 12.5571 39.3124H4.94836C3.71719 39.3124 2.7156 38.3108 2.7156 37.0796V32.9112C3.34698 33.3437 4.10971 33.5978 4.93114 33.5978H15.9409C18.1086 33.5978 19.8721 31.8343 19.8721 29.6667V18.2323C22.7789 17.5066 24.8613 14.8704 24.8613 11.8452C24.8613 8.21183 21.9054 5.25586 18.272 5.25586C14.8744 5.25586 12.0408 7.84883 11.7171 11.2015H4.93114C2.76351 11.2015 1 12.965 1 15.1326V29.6667C1 30.6682 1.37962 31.5806 1.9985 32.2755V37.0796C1.9985 38.7062 3.32181 40.0295 4.94834 40.0295H12.5585C12.6004 40.5366 12.7267 41.0269 12.9446 41.4896C13.3771 42.4074 14.3393 43.0006 15.3959 43.0006H18.0742C18.2723 43.0006 18.4328 42.84 18.4328 42.642V41.5075H20.6537C20.8517 41.5075 21.0123 41.347 21.0123 41.149C21.0123 40.951 20.8517 40.7904 20.6537 40.7904H18.4328V38.5505H20.6537ZM15.9409 32.8807H10.7946V30.8489H16.0604C16.6463 30.8489 17.1231 30.3722 17.1231 29.7862V22.7582H19.155V29.6667C19.155 31.4389 17.7131 32.8807 15.9409 32.8807ZM4.4661 22.7582H10.0775V30.1318H4.81169C4.62115 30.1318 4.4661 29.9768 4.4661 29.7862V22.7582ZM15.9409 11.9186C17.7131 11.9186 19.155 13.3604 19.155 15.1326V22.0411H17.1231V15.013C17.1231 14.4271 16.6464 13.9504 16.0605 13.9504H10.7945V11.9186H15.9409ZM16.0605 14.6675C16.251 14.6675 16.406 14.8225 16.406 15.013V22.0411H10.7946V14.6675H16.0605ZM10.0775 22.0411H4.4661V15.0131C4.4661 14.8225 4.62115 14.6675 4.81169 14.6675H10.0775V22.0411ZM10.7946 22.7582H16.406V29.7862C16.406 29.9768 16.2509 30.1318 16.0604 30.1318H10.7946V22.7582ZM18.272 5.97295C21.5099 5.97295 24.1442 8.60723 24.1442 11.8452C24.1442 14.4811 22.3717 16.7881 19.8721 17.4942V15.1326C19.8721 12.965 18.1086 11.2015 15.9409 11.2015H12.4366C12.7569 8.2476 15.2675 5.97295 18.272 5.97295ZM4.93114 11.9186H10.0775V13.9504H4.81169C4.22573 13.9504 3.749 14.4271 3.749 15.0131V22.0411H1.71711V15.1326C1.71711 13.3604 3.15895 11.9186 4.93114 11.9186ZM1.71711 22.7582H3.749V29.7862C3.749 30.3722 4.22573 30.8489 4.81169 30.8489H10.0775V32.8807H4.93114C3.15894 32.8807 1.71711 31.4389 1.71711 29.6667V22.7582ZM17.7157 42.2834H15.3959C14.6156 42.2834 13.908 41.8518 13.5933 41.1839C13.3696 40.7092 13.2563 40.2001 13.2563 39.6709C13.2563 39.1844 13.3527 38.713 13.5429 38.27C13.8589 37.534 14.5879 37.0584 15.4 37.0584H17.7157V42.2834Z" stroke="#005586" stroke-width="0.4" mask="url(#path-3-outside-1_190_12328)"/>
<path d="M12.4093 18.6756C12.4988 18.7651 12.6164 18.8099 12.7336 18.8099M12.4093 18.6756L12.48 18.6049L12.4093 18.6756C12.4093 18.6756 12.4093 18.6756 12.4093 18.6756ZM12.4093 18.6756C12.2302 18.4965 12.2302 18.2062 12.4093 18.0271L12.48 18.0978L12.4093 18.0271L13.6746 16.7618C13.8536 16.5828 14.144 16.5828 14.323 16.7618C14.323 16.7618 14.323 16.7618 14.323 16.7618M12.7336 18.8099L14.2523 17.3396C14.3924 17.1996 14.3924 16.9726 14.2523 16.8325L14.323 16.7618M12.7336 18.8099C12.8507 18.8099 12.9683 18.7651 13.0578 18.6756C13.0578 18.6756 13.0578 18.6756 13.0578 18.6756L14.323 17.4103L12.7336 18.8099ZM14.323 16.7618C14.5021 16.9409 14.5021 17.2312 14.323 17.4103L14.323 16.7618Z" fill="#005586" stroke="#005586" stroke-width="0.2"/>
<path d="M13.0421 19.9412C13.1316 20.0307 13.2492 20.0755 13.3664 20.0755M13.0421 19.9412L13.1129 19.8705L13.0422 19.9412C13.0421 19.9412 13.0421 19.9412 13.0421 19.9412ZM13.0421 19.9412C12.863 19.7621 12.863 19.4718 13.0421 19.2927M13.3664 20.0755L14.8851 18.6052C15.0252 18.4652 15.0252 18.2382 14.8851 18.0982L14.9558 18.0275M13.3664 20.0755C13.4835 20.0755 13.6011 20.0307 13.6906 19.9412C13.6906 19.9412 13.6906 19.9412 13.6906 19.9412L14.9558 18.676L13.3664 20.0755ZM13.0421 19.2927L13.1128 19.3634L13.0422 19.2927M13.0421 19.2927C13.0421 19.2927 13.0422 19.2927 13.0422 19.2927M13.0421 19.2927L13.0422 19.2927M13.0422 19.2927L14.3074 18.0275C14.3074 18.0275 14.3074 18.0275 14.3074 18.0275C14.4864 17.8484 14.7768 17.8484 14.9558 18.0274C14.9558 18.0275 14.9558 18.0275 14.9558 18.0275M14.9558 18.0275C15.1349 18.2066 15.1349 18.4969 14.9558 18.6759L14.9558 18.0275Z" fill="#005586" stroke="#005586" stroke-width="0.2"/>
<path d="M6.548 18.6756C6.45852 18.7651 6.34095 18.8099 6.22379 18.8099C6.10663 18.8099 5.98907 18.7651 5.89958 18.6756C5.89957 18.6756 5.89957 18.6756 5.89956 18.6756M6.548 18.6756L5.97028 18.0978C5.83022 18.2378 5.83022 18.4648 5.97028 18.6049L5.89956 18.6756M6.548 18.6756C6.54801 18.6756 6.54801 18.6756 6.54802 18.6756M6.548 18.6756L6.54802 18.6756M5.89956 18.6756C5.72046 18.4965 5.72046 18.2062 5.89957 18.0271L5.89956 18.6756ZM7.1648 16.7618L5.89958 18.0271L7.1648 16.7618ZM7.1648 16.7618C7.16481 16.7618 7.16481 16.7618 7.16482 16.7618C7.34381 16.5828 7.63424 16.5828 7.81324 16.7618M7.1648 16.7618L7.81324 16.7618M6.54802 18.6756L7.81324 17.4103L6.54802 18.6756ZM7.81326 16.7618C7.99236 16.9409 7.99236 17.2312 7.81325 17.4103L7.81326 16.7618ZM7.81326 16.7618C7.81326 16.7618 7.81325 16.7618 7.81324 16.7618M7.81326 16.7618L7.81324 16.7618" fill="#005586" stroke="#005586" stroke-width="0.2"/>
<path d="M6.53237 19.9412C6.62185 20.0307 6.73943 20.0755 6.85659 20.0755M6.53237 19.9412L6.60309 19.8705L6.53239 19.9412C6.53238 19.9412 6.53237 19.9412 6.53237 19.9412ZM6.53237 19.9412C6.35327 19.7621 6.35327 19.4718 6.53238 19.2927M6.85659 20.0755L8.37535 18.6052C8.51541 18.4652 8.51541 18.2382 8.37535 18.0982L8.44608 18.0275M6.85659 20.0755C6.97377 20.0755 7.09132 20.0307 7.18081 19.9412C7.18081 19.9412 7.18082 19.9412 7.18082 19.9412L8.44605 18.676L6.85659 20.0755ZM6.53238 19.2927L6.60306 19.3634L6.53239 19.2927M6.53238 19.2927C6.53238 19.2927 6.53239 19.2927 6.53239 19.2927M6.53238 19.2927L6.53239 19.2927M6.53239 19.2927L7.79761 18.0275C7.79762 18.0275 7.79762 18.0275 7.79763 18.0275C7.97662 17.8484 8.26705 17.8484 8.44605 18.0274C8.44606 18.0275 8.44607 18.0275 8.44608 18.0275M8.44608 18.0275C8.62517 18.2066 8.62517 18.4969 8.44606 18.6759L8.44608 18.0275Z" fill="#005586" stroke="#005586" stroke-width="0.2"/>
<path d="M6.548 26.9236C6.45852 27.0131 6.34095 27.0579 6.22379 27.0579C6.10663 27.0579 5.98907 27.0131 5.89958 26.9236C5.89957 26.9236 5.89957 26.9236 5.89956 26.9236M6.548 26.9236L5.97028 26.3458C5.83022 26.4859 5.83022 26.7129 5.97028 26.8529L5.89956 26.9236M6.548 26.9236C6.54801 26.9236 6.54801 26.9236 6.54802 26.9236M6.548 26.9236L6.54802 26.9236M5.89956 26.9236C5.72046 26.7445 5.72046 26.4542 5.89957 26.2751L5.89956 26.9236ZM7.1648 25.0099L5.89958 26.2751L7.1648 25.0099ZM7.1648 25.0099C7.16481 25.0099 7.16481 25.0099 7.16482 25.0099C7.34381 24.8308 7.63424 24.8308 7.81324 25.0099M7.1648 25.0099L7.81324 25.0099M6.54802 26.9236L7.81324 25.6584L6.54802 26.9236ZM7.81326 25.0099C7.99236 25.189 7.99236 25.4793 7.81325 25.6584L7.81326 25.0099ZM7.81326 25.0099C7.81326 25.0099 7.81325 25.0099 7.81324 25.0099M7.81326 25.0099L7.81324 25.0099" fill="#005586" stroke="#005586" stroke-width="0.2"/>
<path d="M6.53236 28.1882C6.62185 28.2778 6.73944 28.3226 6.85659 28.3226M6.53236 28.1882L6.60309 28.1176L6.53239 28.1883C6.53238 28.1883 6.53237 28.1882 6.53236 28.1882ZM6.53236 28.1882C6.35327 28.0092 6.35328 27.7188 6.53238 27.5398L6.60306 27.6105L6.53239 27.5398L7.79761 26.2745C7.97661 26.0955 8.26705 26.0955 8.44605 26.2745C8.44606 26.2745 8.44607 26.2745 8.44608 26.2745M6.85659 28.3226L8.37535 26.8523C8.51541 26.7123 8.51541 26.4853 8.37535 26.3452L8.44608 26.2745M6.85659 28.3226C6.97377 28.3226 7.09132 28.2778 7.18081 28.1883C7.18081 28.1883 7.18082 28.1883 7.18082 28.1883L8.44605 26.923L6.85659 28.3226ZM8.44608 26.2745C8.62517 26.4536 8.62517 26.7439 8.44606 26.923L8.44608 26.2745Z" fill="#005586" stroke="#005586" stroke-width="0.2"/>
<path d="M13.6746 25.0099C13.8536 24.8308 14.144 24.8308 14.323 25.0099C14.323 25.0099 14.323 25.0099 14.323 25.0099L14.2523 25.0806L13.6746 25.0099ZM13.6746 25.0099L12.4093 26.2751C12.4093 26.2751 12.4093 26.2751 12.4093 26.2751C12.2302 26.4542 12.2302 26.7445 12.4093 26.9236L13.6746 25.0099ZM13.6746 25.0099L13.6746 25.0099L13.7453 25.0806L13.6746 25.0099ZM14.323 25.6584L14.2523 25.5877L14.323 25.6584L13.0578 26.9236C13.0578 26.9236 13.0578 26.9236 13.0578 26.9236C12.9683 27.0131 12.8507 27.0579 12.7336 27.0579C12.6164 27.0579 12.4988 27.0131 12.4093 26.9236L14.323 25.6584Z" fill="#005586" stroke="#005586" stroke-width="0.2"/>
<path d="M13.0422 27.5398L14.3074 26.2745C14.3074 26.2745 14.3074 26.2745 14.3074 26.2745C14.4864 26.0955 14.7768 26.0955 14.9558 26.2745C14.9558 26.2745 14.9558 26.2745 14.9558 26.2745M13.0422 27.5398L14.8851 26.8523C15.0252 26.7123 15.0252 26.4853 14.8851 26.3452L14.9558 26.2745M13.0422 27.5398L13.1128 27.6105L13.0421 27.5398M13.0422 27.5398L13.0421 27.5398M14.9558 26.2745C15.1349 26.4536 15.1349 26.7439 14.9558 26.923L14.9558 26.2745ZM13.0421 28.1882C13.1316 28.2778 13.2492 28.3226 13.3664 28.3226C13.4835 28.3226 13.6011 28.2778 13.6906 28.1883C13.6906 28.1883 13.6906 28.1883 13.6906 28.1883L14.9558 26.923L13.0421 27.5398M13.0421 28.1882L13.1129 28.1176L13.0422 28.1883C13.0421 28.1883 13.0421 28.1882 13.0421 28.1882ZM13.0421 28.1882C12.863 28.0092 12.863 27.7188 13.0421 27.5398" fill="#005586" stroke="#005586" stroke-width="0.2"/>
<path d="M17.7199 4.49272L17.7199 4.4927L18.2729 2.8196L18.8259 4.49269L18.8259 4.49271C18.9054 4.73312 19.1646 4.86355 19.4052 4.78416L19.4052 4.78414C19.6457 4.70466 19.7762 4.44532 19.6967 4.20483L19.6018 4.23622L19.6967 4.20483L18.7083 1.21462L18.7083 1.21461C18.6462 1.02684 18.4707 0.9 18.2729 0.9C18.0751 0.9 17.8996 1.02684 17.8375 1.21461L17.8375 1.21462L16.849 4.20483L16.9439 4.23618L16.849 4.20483C16.7696 4.44531 16.9001 4.70466 17.1405 4.78414C17.1882 4.79988 17.2367 4.8074 17.2845 4.8074C17.4768 4.8074 17.6561 4.68552 17.7199 4.49272Z" fill="#005586" stroke="#005586" stroke-width="0.2"/>
<path d="M28.9046 11.4101L28.9046 11.4101C29.0924 11.4722 29.2192 11.6476 29.2193 11.8454C29.2193 12.0432 29.0925 12.2187 28.9047 12.2808M28.9046 11.4101L28.8733 12.1859M28.9046 11.4101L25.8203 10.391L25.8203 10.3909C25.5799 10.3117 25.3205 10.442 25.241 10.6825C25.1616 10.9229 25.2921 11.1823 25.5326 11.2618L25.5326 11.2618L27.3 11.8458L28.9046 11.4101ZM28.9047 12.2808L28.8733 12.1859M28.9047 12.2808L28.9048 12.2808L28.8733 12.1859M28.9047 12.2808L25.7898 13.3115L25.7584 13.2165M28.8733 12.1859L25.7584 13.2165M25.7584 13.2165L25.7898 13.3115M25.7584 13.2165L25.7898 13.3115M25.7898 13.3115C25.7421 13.3273 25.6935 13.3348 25.6457 13.3348L25.6457 13.2348V13.3348L25.7898 13.3115Z" fill="#005586" stroke="#005586" stroke-width="0.2"/>
<path d="M20.6587 18.3828L20.6588 18.3828C20.8273 18.1938 21.1171 18.177 21.3062 18.3455M20.6587 18.3828L21.2397 18.4201M20.6587 18.3828C20.4903 18.5719 20.507 18.8618 20.6961 19.0302M20.6587 18.3828L20.6961 19.0302M21.3062 18.3455L21.2397 18.4201M21.3062 18.3455L21.3062 18.3455L21.2397 18.4201M21.3062 18.3455L22.7855 19.6633M21.2397 18.4201L22.8195 19.8275L22.7855 19.6633M22.7855 19.6633L22.3869 17.7367L22.3869 17.7367C22.3357 17.4887 22.495 17.2461 22.7431 17.1947L22.7431 17.1947C22.9915 17.1434 23.2337 17.303 23.285 17.5508L23.285 17.5509L23.9644 20.8347L23.9644 20.8348C24.0044 21.0284 23.9159 21.2259 23.7446 21.3248M22.7855 19.6633L22.9107 19.7749L23.7446 21.3248M23.7446 21.3248L23.6946 21.2382L23.7447 21.3248C23.7447 21.3248 23.7446 21.3248 23.7446 21.3248ZM20.6961 19.0302C20.6961 19.0303 20.6961 19.0303 20.6961 19.0303L20.6961 19.0302Z" fill="#005586" stroke="#005586" stroke-width="0.2"/>
<path d="M15.7277 5.16754L15.7277 5.16754C15.5592 5.35667 15.2694 5.37337 15.0803 5.2049C15.0803 5.2049 15.0803 5.2049 15.0803 5.20489L13.7584 4.02721L14.1205 5.77723L14.1205 5.77725C14.1717 6.02524 14.0124 6.26787 13.7643 6.31918M15.7277 5.16754L13.3335 2.42046C13.1859 2.28888 12.9705 2.26689 12.7992 2.36572L12.7992 2.36573C12.628 2.46458 12.5394 2.66209 12.5794 2.85573L12.5794 2.85577L13.2224 5.96307L13.2224 5.96309C13.2672 6.17986 13.4581 6.32876 13.6711 6.32876C13.7018 6.32876 13.7331 6.32566 13.7643 6.31918M15.7277 5.16754C15.8962 4.97847 15.8795 4.68858 15.6904 4.52014C15.6903 4.52013 15.6903 4.52013 15.6903 4.52013L13.3335 2.42048L15.7277 5.16754ZM13.7643 6.31918L13.7441 6.22126M13.7643 6.31918C13.7643 6.31918 13.7644 6.31918 13.7644 6.31918L13.7441 6.22126M13.7441 6.22126C13.7196 6.22634 13.6951 6.22876 13.6711 6.22876C13.5046 6.22876 13.3554 6.11223 13.3203 5.94281L14.0226 5.79749C14.0626 5.99142 13.938 6.18113 13.7441 6.22126Z" fill="#005586" stroke="#005586" stroke-width="0.2"/>
<path d="M22.7855 4.0271L21.4642 5.20313L21.4642 5.20315C21.275 5.37144 20.9853 5.3547 20.8168 5.1655L20.8168 5.16549C20.6485 4.97635 20.6652 4.68648 20.8545 4.51809C20.8545 4.51809 20.8545 4.51808 20.8545 4.51808L23.2113 2.42031L23.2113 2.4203C23.359 2.2889 23.5744 2.26685 23.7456 2.36583L22.7855 4.0271ZM22.7855 4.0271L22.4223 5.77697L22.4223 5.77698C22.3709 6.02494 22.5301 6.26767 22.7781 6.31914L22.7782 6.31916L22.7855 4.0271ZM23.9651 2.85601L23.9651 2.85602L23.3203 5.96333L23.9651 2.85601ZM23.9651 2.85601C24.0053 2.66241 23.9169 2.46482 23.7456 2.36585L23.9651 2.85601ZM22.8718 6.32877C23.0845 6.32871 23.2753 6.17994 23.3203 5.96333L22.8718 6.32877Z" fill="#005586" stroke="#005586" stroke-width="0.2"/>
<path d="M26.0894 16.3585L24.814 14.9284C24.6454 14.7394 24.662 14.4495 24.851 14.281M26.0894 16.3585L27.6662 17.2687L27.7528 17.3187C27.7528 17.3187 27.7528 17.3187 27.7528 17.3187C27.8517 17.1474 27.8296 16.9319 27.6978 16.7843L25.4984 14.318C25.4984 14.318 25.4984 14.318 25.4984 14.318C25.3299 14.129 25.04 14.1124 24.851 14.281M26.0894 16.3585L24.1823 15.963L26.0894 16.3585ZM24.851 14.281L24.9176 14.3556L24.851 14.281C24.851 14.281 24.851 14.281 24.851 14.281ZM27.2625 17.5385C27.2936 17.5449 27.3248 17.5481 27.3557 17.5481L24.1822 15.963C23.9337 15.9112 23.6915 16.0711 23.6401 16.3189C23.5887 16.5668 23.748 16.8095 23.996 16.861L27.2625 17.5385Z" fill="#005586" stroke="#005586" stroke-width="0.2"/>
<path d="M11.6376 9.34693C11.8266 9.17842 11.8433 8.88858 11.6747 8.69953C11.6747 8.69953 11.6747 8.69953 11.6747 8.69953L10.4564 7.33266L11.571 9.27229M11.6376 9.34693L11.571 9.27229M11.6376 9.34693C11.6376 9.34693 11.6376 9.34693 11.6376 9.34693L11.571 9.27229M11.6376 9.34693C11.5502 9.42482 11.4411 9.46318 11.3326 9.46318C11.2066 9.46318 11.0808 9.41141 10.9902 9.30974L11.0648 9.2432M11.571 9.27229C11.5027 9.33322 11.4175 9.36318 11.3326 9.36318C11.2339 9.36318 11.1356 9.32268 11.0648 9.2432M11.0648 9.2432L10.9902 9.30971M11.0648 9.2432L10.9902 9.30971M10.9902 9.30971L8.8483 6.90682M10.9902 9.30971L8.8483 6.90682M8.8483 6.90682L8.92292 6.8403L8.8483 6.90682L8.8483 6.90682ZM12.4102 6.80142L12.4102 6.80142L12.2442 7.60149C12.4382 7.64164 12.6279 7.51711 12.6681 7.32324L12.7661 7.34355C12.7661 7.34355 12.7661 7.34355 12.7661 7.34355C12.8175 7.09559 12.6582 6.85289 12.4102 6.80142ZM8.88006 6.4224L8.88006 6.4224L8.88006 6.4224Z" fill="#005586" stroke="#005586" stroke-width="0.2"/>
<path d="M24.3189 7.69949L24.3189 7.69949C24.0709 7.75092 23.8282 7.59157 23.7768 7.34361C23.7254 7.09564 23.8847 6.85293 24.1327 6.80151C24.1327 6.80151 24.1327 6.80151 24.1327 6.80151L27.261 6.15283C27.261 6.15283 27.261 6.15282 27.261 6.15282L27.2611 6.15281L27.2814 6.25072L24.3189 7.69949ZM24.3189 7.69949L26.0884 7.33257M24.3189 7.69949L26.0884 7.33257M25.5526 9.31176L25.5526 9.31177C25.462 9.41338 25.3362 9.46517 25.2102 9.46517C25.1017 9.46517 24.9926 9.4268 24.9052 9.34887M25.5526 9.31176L24.9052 9.34887M25.5526 9.31176L27.6964 6.90695M25.5526 9.31176L27.6964 6.90695M24.9052 9.34887C24.7162 9.18035 24.6996 8.89053 24.8681 8.70149L26.0884 7.33257M24.9052 9.34887L26.0884 7.33257M27.6964 6.90695C27.6964 6.90694 27.6964 6.90694 27.6964 6.90694L27.6964 6.90695Z" fill="#005586" stroke="#005586" stroke-width="0.2"/>
</svg>
