<svg width="46" height="49" viewBox="0 0 46 49" fill="none" xmlns="http://www.w3.org/2000/svg">
<g clip-path="url(#clip0_153_7875)">
<path d="M9.16417 39.3227C9.94912 40.0377 11.0308 38.9345 10.2857 38.1635C8.30074 36.2431 5.97171 33.142 4.6943 31.0668C4.42011 30.6227 4.00936 28.6163 3.75022 24.4249C3.5599 21.3389 3.53516 18.2959 3.62764 17.498C3.6857 17.0185 3.90505 16.7819 4.03624 16.7733C4.16742 16.7647 4.49215 17.0066 4.68892 17.7615C5.15021 19.5604 6.02978 23.4184 6.35451 24.8528C3.2685 26.8378 8.68676 31.5679 9.55449 32.3431C9.71648 32.4829 9.92733 32.5525 10.1407 32.5368C10.354 32.5211 10.5524 32.4212 10.6921 32.2593C10.8319 32.0973 10.9015 31.8864 10.8858 31.6731C10.8701 31.4597 10.7702 31.2614 10.6083 31.1216C9.31794 30.0302 6.36311 26.9227 7.16741 26.2464C7.90719 25.7905 8.70611 26.3668 11.0502 29.0507C11.5943 29.6743 12.2878 29.9689 13.0211 30.2797C13.9792 30.6861 14.9685 31.1055 15.9512 32.3539C17.7932 34.6936 17.6147 38.5904 17.6115 38.6667C17.6055 38.7727 17.6205 38.8787 17.6556 38.9788C17.6906 39.0789 17.745 39.1711 17.8157 39.2502C17.8864 39.3293 17.972 39.3937 18.0676 39.4397C18.1631 39.4857 18.2668 39.5124 18.3727 39.5184C18.4786 39.5243 18.5847 39.5093 18.6848 39.4743C18.7849 39.4392 18.8771 39.3848 18.9562 39.3141C19.0353 39.2434 19.0997 39.1578 19.1457 39.0623C19.1917 38.9667 19.2184 38.863 19.2243 38.7571C19.2351 38.5721 19.4545 34.1915 17.2222 31.356C15.9835 29.7829 14.6921 29.2356 13.6545 28.7947C13.048 28.5378 12.5685 28.3345 12.2685 27.9904C10.7491 26.2517 9.38245 24.6894 7.93299 24.4958C7.61042 23.0528 6.72225 19.1776 6.25666 17.3604C5.81903 15.6572 4.76957 15.1109 3.93409 15.1647C2.94162 15.2303 2.1771 16.0916 2.03194 17.3066C1.75883 19.2636 2.26635 30.7367 3.32226 31.9119C4.65129 34.0732 7.08354 37.3119 9.16417 39.3227Z" fill="#005586"/>
<path d="M9.58653 47.5095V41.5955H19.2349V47.5095C19.2349 47.7234 19.3198 47.9285 19.4711 48.0797C19.6223 48.231 19.8274 48.3159 20.0413 48.3159C20.2552 48.3159 20.4603 48.231 20.6116 48.0797C20.7628 47.9285 20.8478 47.7234 20.8478 47.5095V40.7869C20.8478 40.573 20.7628 40.3679 20.6116 40.2167C20.4603 40.0654 20.2552 39.9805 20.0413 39.9805H8.78008C8.5662 39.9805 8.36107 40.0654 8.20984 40.2167C8.0586 40.3679 7.97363 40.573 7.97363 40.7869V47.5095C8.01127 48.5761 9.54889 48.5772 9.58653 47.5095Z" fill="#005586"/>
<path d="M41.022 15.1696C40.1833 15.1158 39.1371 15.6621 38.7005 17.3653C38.2339 19.1825 37.35 23.0577 37.0231 24.5007C35.5737 24.6932 34.207 26.2566 32.6887 27.9953C32.3876 28.3394 31.9081 28.5426 31.3016 28.7996C30.2694 29.2405 28.9791 29.7856 27.7393 31.3609C25.507 34.1964 25.7253 38.577 25.7361 38.762C25.748 38.9758 25.8445 39.1762 26.0042 39.319C26.1639 39.4617 26.3738 39.5352 26.5877 39.5232C26.8016 39.5113 27.0019 39.4148 27.1447 39.2551C27.2875 39.0954 27.3609 38.8855 27.349 38.6716C27.349 38.6329 27.149 34.72 29.0081 32.3588C29.9909 31.1104 30.9812 30.691 31.9382 30.2846C32.6715 29.9738 33.3651 29.6792 33.9091 29.0555C36.2543 26.3674 37.0521 25.7953 37.7919 26.2513C38.5446 26.8695 35.9435 29.7641 34.3511 31.1265C34.2682 31.1948 34.1999 31.279 34.15 31.3741C34.1001 31.4692 34.0697 31.5733 34.0606 31.6803C34.0515 31.7873 34.0638 31.895 34.0969 31.9971C34.13 32.0993 34.1832 32.1938 34.2533 32.2752C34.3233 32.3565 34.409 32.423 34.5051 32.4708C34.6013 32.5186 34.706 32.5467 34.8132 32.5535C34.9204 32.5603 35.0278 32.5456 35.1292 32.5103C35.2306 32.475 35.324 32.4199 35.4038 32.348C36.2715 31.5727 41.6898 26.8426 38.6038 24.8577C38.9263 23.4233 39.8091 19.5653 40.2704 17.7663C40.4672 17.0137 40.7801 16.776 40.922 16.7782C41.064 16.7803 41.2736 17.0233 41.3306 17.5018C41.4252 18.3018 41.3984 21.3437 41.208 24.4298C40.95 28.6233 40.5382 30.6276 40.265 31.0717C38.9199 33.2588 36.6995 36.2996 34.7715 38.1684C34.2511 38.6598 34.6188 39.5663 35.3328 39.5544C35.5419 39.5545 35.7429 39.4731 35.893 39.3275C37.921 37.3652 40.2403 34.1942 41.6381 31.9211C42.1758 31.0534 42.5693 28.5684 42.8209 24.533C43.0048 21.5653 43.0553 18.3276 42.9349 17.3158C42.7844 16.0965 42.0199 15.2352 41.022 15.1696Z" fill="#005586"/>
<path d="M36.1833 48.3159C36.3972 48.3159 36.6023 48.231 36.7536 48.0797C36.9048 47.9285 36.9898 47.7234 36.9898 47.5095V40.7869C36.9899 40.681 36.9691 40.576 36.9287 40.4781C36.8882 40.3802 36.8288 40.2913 36.7539 40.2164C36.679 40.1414 36.59 40.082 36.4921 40.0416C36.3942 40.0011 36.2893 39.9803 36.1833 39.9805H24.9178C24.7039 39.9805 24.4988 40.0654 24.3475 40.2167C24.1963 40.3679 24.1113 40.573 24.1113 40.7869V47.5095C24.1113 47.7234 24.1963 47.9285 24.3475 48.0797C24.4988 48.231 24.7039 48.3159 24.9178 48.3159C25.1317 48.3159 25.3368 48.231 25.488 48.0797C25.6393 47.9285 25.7242 47.7234 25.7242 47.5095V41.5955H35.3726V47.5095C35.3726 47.6157 35.3936 47.721 35.4344 47.8191C35.4752 47.9172 35.535 48.0063 35.6103 48.0812C35.6856 48.1562 35.775 48.2155 35.8734 48.2558C35.9717 48.296 36.0771 48.3165 36.1833 48.3159Z" fill="#005586"/>
<path d="M26.6445 43.0474C26.6445 43.2861 26.7394 43.515 26.9081 43.6838C27.0769 43.8525 27.3058 43.9474 27.5445 43.9474C28.737 43.9033 28.737 42.1914 27.5445 42.1484C27.4264 42.1483 27.3094 42.1714 27.2002 42.2166C27.091 42.2617 26.9918 42.3279 26.9082 42.4113C26.8246 42.4948 26.7583 42.594 26.7131 42.7031C26.6678 42.8122 26.6445 42.9292 26.6445 43.0474Z" fill="#005586"/>
<path d="M16.5146 43.0474C16.5146 43.2861 16.6095 43.515 16.7783 43.6838C16.947 43.8525 17.176 43.9474 17.4146 43.9474C18.6071 43.9033 18.6071 42.1914 17.4146 42.1484C17.2965 42.1483 17.1795 42.1714 17.0703 42.2166C16.9611 42.2617 16.8619 42.3279 16.7783 42.4113C16.6947 42.4948 16.6284 42.594 16.5832 42.7031C16.5379 42.8122 16.5146 42.9292 16.5146 43.0474Z" fill="#005586"/>
<path d="M22.5508 0.84375C15.0003 0.84375 8.8584 6.98996 8.8584 14.5351C9.61108 32.6995 35.4938 32.6942 36.2432 14.5351C36.2432 6.98996 30.1002 0.84375 22.5508 0.84375ZM33.0551 8.57813C32.6701 8.63834 31.6755 8.74479 31.6228 9.81683C31.6228 10.2276 31.811 10.4781 31.9551 10.7201C32.082 10.9803 31.983 11.4588 31.9551 11.7953C31.8701 12.7104 31.8024 13.4329 31.4594 14.2093C31.0884 15.0491 30.9787 15.3587 31.1562 16.2856C31.2701 16.8802 31.1443 17.7985 30.8024 18.8738C30.7271 19.1082 30.6551 19.3426 30.582 19.577C29.9045 21.9179 29.0325 24.1802 26.9443 25.5017C27.0141 24.8989 27.0475 24.2924 27.0443 23.6856C27.1357 21.5942 26.7884 19.8222 24.5358 18.6265C23.8261 18.206 23.3884 17.9222 23.3229 17.4211C23.2207 16.6448 23.5777 15.8136 24.1734 15.4437C24.9261 14.9792 26.04 14.7383 26.6347 15.205C26.7472 15.2995 26.8492 15.4058 26.939 15.5222C27.2164 15.8555 27.6347 16.3587 28.5691 16.2813C29.4669 16.2071 29.8314 15.7297 30.125 15.3458C30.1949 15.2544 30.2669 15.1609 30.3497 15.0663C31.0508 14.2641 31.2529 13.6028 31.5078 12.7652C31.5424 12.6485 31.5503 12.5255 31.5309 12.4053C31.5115 12.2851 31.4653 12.1708 31.3957 12.0709C31.326 11.971 31.2348 11.8881 31.1288 11.8283C31.0227 11.7685 30.9045 11.7333 30.783 11.7254C30.6239 11.7157 30.4744 11.7179 30.3433 11.72C29.8497 11.7136 29.8583 11.7652 29.6572 11.3824C29.5009 11.04 29.2623 10.7415 28.9626 10.5136C28.2787 10.0222 27.8744 10.0835 27.4056 10.3469C27.3431 10.3843 27.2785 10.4181 27.2121 10.448C27.1626 10.4631 27.1379 10.4555 27.1207 10.419C27.071 10.3003 26.9938 10.1951 26.8955 10.1121C26.7971 10.0291 26.6805 9.97062 26.5551 9.94156C25.3992 9.67705 24.7401 10.6405 24.2583 11.3394C23.9669 11.7695 23.639 12.2448 23.3981 12.2211C23.3465 12.2061 23.1831 12.0749 23.0422 11.7846C22.9146 11.5485 22.8558 11.2814 22.8723 11.0136C23.2551 10.8749 23.6777 10.8362 24.0766 10.5598C24.6476 10.2254 24.6669 9.85016 24.6927 9.24909C24.6901 9.16502 24.7014 9.0811 24.7261 9.0007C24.8938 8.83081 25.2207 8.72221 25.5669 8.60716C26.0616 8.44264 26.6777 8.23834 27.1519 7.73834C27.8927 6.9577 27.7873 6.30502 27.6583 5.98459C27.5583 5.73513 27.211 5.14696 26.1712 5.09857C25.9228 5.08674 25.7099 5.11255 25.4594 5.10717C26.0261 4.23836 27.239 4.17062 28.2497 3.88567C30.2602 4.96782 31.9254 6.59397 33.0551 8.57813ZM24.3551 13.5878C25.1594 13.1114 25.4992 12.2824 26.0594 11.6373C26.3286 11.8736 26.6649 12.02 27.0213 12.056C27.3777 12.0921 27.7365 12.016 28.0476 11.8383C28.1264 11.9261 28.1906 12.0259 28.2379 12.134C28.4626 12.6372 28.9669 13.1738 29.6239 13.2835C29.4809 13.6362 29.0959 14.048 28.8519 14.3663C28.6078 14.6846 28.5949 14.6716 28.3508 14.6749C28.2922 14.617 28.2373 14.5556 28.1863 14.491C27.3153 13.2975 25.697 13.0942 24.3551 13.5878ZM19.4218 6.17599C19.3705 6.00395 19.3062 5.83608 19.2293 5.67384C19.5121 5.22653 19.7616 4.82223 19.7368 4.43943C19.667 3.52331 18.8444 3.37385 18.3605 3.20611C19.0408 2.9539 19.7426 2.76388 20.4573 2.63837C20.4293 3.09858 20.1562 3.56847 20.0272 4.09535C19.7971 4.83943 19.9315 5.95771 19.7756 6.6405C19.6332 6.5059 19.5137 6.349 19.4218 6.17599ZM15.081 5.05448L15.096 5.07599C14.9121 5.59104 14.5992 6.89319 15.596 7.06093C15.6928 7.13727 15.9025 7.43189 16.0476 7.89963C16.1347 8.18028 16.0261 8.92329 15.8057 9.55662C15.5293 10.3824 15.4444 11.6254 15.1379 12.5018C14.6175 12.1082 13.6971 11.691 12.2229 12.5254C11.71 12.8157 11.5982 13.2308 11.5777 13.4523C11.5111 14.1523 12.0853 14.6351 12.5046 14.9953C12.7264 15.1998 12.9653 15.3851 13.2186 15.5491C13.5412 15.7716 13.5691 15.7641 13.639 16.0136C13.7562 16.3953 13.9014 16.8738 14.31 17.1168C14.9347 17.4824 15.6218 17.1749 16.1831 17.034C17.2369 16.8577 18.1885 17.0663 18.7315 17.5899C19.6186 18.4501 19.5422 19.2168 18.4089 20.8888C17.3885 22.4039 16.9885 23.7146 16.6057 25.049C16.1969 24.8174 15.802 24.5621 15.4229 24.2845C15.6089 23.5673 15.5982 23.0544 15.3154 22.2071C15.0164 21.291 14.3949 20.6028 13.9541 19.8093C13.5767 19.1103 13.4853 18.5469 13.4509 17.7523C13.4025 16.6555 13.0207 15.877 12.2197 15.2308C11.7068 14.7932 10.9154 14.5415 10.4777 14.1136C10.54 12.3597 10.9841 10.6404 11.7792 9.07581C12.5742 7.51118 13.701 6.13884 15.081 5.05448ZM10.5713 16.0888C11.3165 16.4684 11.8369 16.8974 11.8412 17.8189C11.8853 18.8039 12.0165 19.6082 12.538 20.5727C12.9541 21.3576 13.6283 22.0781 13.8455 22.9006C12.0514 21.0402 10.9035 18.652 10.5713 16.0888ZM18.0745 25.7544C18.4756 24.263 19.0132 22.8028 19.739 21.791C20.468 20.7157 21.9852 18.4867 19.853 16.4265C18.8229 15.3835 16.8422 15.0663 15.21 15.6276C15.0487 14.9147 14.5799 14.4824 14.1046 14.1975C13.885 14.0509 13.6775 13.8869 13.4842 13.7071C13.9293 13.5577 14.1111 13.7243 14.3584 13.9501C14.567 14.1405 14.881 14.4286 15.3455 14.4039C16.9358 14.2265 16.9358 11.319 17.3283 10.0824C17.4637 9.69533 17.8809 8.362 17.5874 7.41684C17.4885 7.09426 17.1756 6.24158 16.568 5.77169C16.7616 5.20072 16.8218 4.70933 16.4089 4.13836C16.5401 4.06094 16.6713 3.9846 16.8057 3.91255C17.0207 4.39105 17.5046 4.63943 17.9024 4.75341C17.3852 5.47061 17.61 6.01039 17.8627 6.58996C18.0315 7.2448 18.868 8.16307 19.5186 8.41038C19.6697 8.46746 19.8345 8.47795 19.9917 8.44049C21.4121 8.09856 21.4508 6.62114 21.4755 5.6448C21.4863 5.23943 21.4971 4.82008 21.5831 4.53083C21.7874 3.79428 22.1067 3.33406 22.0734 2.46632C23.3244 2.41649 24.5756 2.5616 25.782 2.89643C24.8949 3.20933 23.0508 4.72438 24.0368 6.08566C24.5745 6.79641 25.368 6.73082 25.897 6.71792C25.696 6.87383 25.4003 6.97276 25.0669 7.08351C23.8852 7.44157 23.0648 7.98673 23.0788 9.27597C22.4992 9.4706 21.8024 9.49102 21.3971 10.3663C21.0885 11.0964 21.3379 12.077 21.7196 12.7254C22.2272 13.5856 22.9927 13.9889 23.8476 13.791C22.3917 14.4093 21.51 15.9878 21.7282 17.6351C21.9788 19.3641 23.4691 19.7243 24.5142 20.5458C25.4207 21.3179 25.454 22.148 25.4357 23.6705C25.4519 24.5426 25.3454 25.3974 25.2121 26.3211C22.83 26.8538 20.3427 26.6563 18.0745 25.7544ZM30.9959 23.1619C31.4734 22.1566 31.8035 21.0974 32.1271 20.0555C32.5174 18.8222 32.9873 17.3835 32.7454 15.9835C32.654 15.5061 32.654 15.5061 32.9389 14.8609C33.3884 13.8448 33.4766 12.9254 33.5658 11.9448C33.6282 11.3093 33.7131 10.7727 33.4583 10.1437C33.5633 10.1233 33.6668 10.0957 33.768 10.0609C35.6239 14.4157 34.3551 20.0361 30.9959 23.1619Z" fill="#005586"/>
</g>
<defs>
<clipPath id="clip0_153_7875">
<rect width="45.3616" height="48" fill="white" transform="translate(0.5 0.5)"/>
</clipPath>
</defs>
</svg>
