<svg width="46" height="48" viewBox="0 0 46 48" fill="none" xmlns="http://www.w3.org/2000/svg">
<path fill-rule="evenodd" clip-rule="evenodd" d="M28.5067 29.1281C28.6173 29.3847 28.8613 29.5586 29.14 29.5793C29.1588 29.5807 29.1773 29.5813 29.196 29.5813C29.4541 29.5813 29.6959 29.4483 29.8334 29.2268L31.6512 26.2985L35.0286 26.9899C35.3027 27.0458 35.5847 26.9452 35.7611 26.7285C35.9376 26.5119 35.9788 26.2151 35.8683 25.9585L33.3601 20.137C33.4368 20.1044 33.5153 20.071 33.598 20.0356C34.8915 19.4819 35.6482 18.1715 35.4813 16.7749C35.4502 16.5155 35.4213 16.2847 35.3953 16.0775C35.2911 15.2464 35.2387 14.8292 35.2949 14.5105C35.3512 14.1917 35.5431 13.8176 35.9255 13.0722C36.0208 12.8863 36.127 12.6794 36.2449 12.4462C36.8797 11.1909 36.6168 9.70072 35.5908 8.73828C35.4004 8.5595 35.2297 8.40134 35.0766 8.25921C34.4622 7.68959 34.1539 7.40365 33.9921 7.12334C33.8301 6.84303 33.7366 6.43315 33.5503 5.61659C33.5037 5.41296 33.452 5.18609 33.3923 4.93165C33.0714 3.56215 31.9118 2.58959 30.5069 2.5115C30.246 2.49696 30.0136 2.48543 29.805 2.47503C28.968 2.4334 28.548 2.4125 28.2437 2.30178C27.9395 2.19106 27.6043 1.93718 26.9363 1.43131C26.7699 1.30512 26.5843 1.16468 26.3751 1.00812C25.2486 0.165309 23.7351 0.165215 22.6085 1.00812C22.3994 1.16468 22.2138 1.30512 22.0473 1.43131C21.3794 1.93718 21.0442 2.19106 20.74 2.30178C20.4357 2.4125 20.0156 2.4334 19.1787 2.47503C18.97 2.48543 18.7377 2.49696 18.4768 2.5115C17.0719 2.58959 15.9122 3.56225 15.5914 4.93165C15.5317 5.18609 15.4799 5.41287 15.4334 5.61659C15.2471 6.43315 15.1536 6.84312 14.9916 7.12334C14.8297 7.40365 14.5214 7.68959 13.9071 8.25921C13.7539 8.40134 13.5833 8.5595 13.3929 8.73828C12.3669 9.70081 12.104 11.191 12.7387 12.4463C12.8566 12.6793 12.9628 12.8862 13.058 13.0721C13.4404 13.8175 13.6324 14.1916 13.6887 14.5104C13.7449 14.829 13.6925 15.2462 13.5883 16.0772C13.5623 16.2845 13.5333 16.5154 13.5023 16.7749C13.3354 18.1715 14.0921 19.4819 15.3856 20.0356C15.6259 20.1385 15.8403 20.2288 16.0328 20.3099C16.0913 20.3346 16.1469 20.358 16.2011 20.3809L13.1243 26.9869C13.0063 27.2402 13.039 27.538 13.2089 27.7598C13.379 27.9815 13.6582 28.0907 13.9336 28.0422L17.3299 27.4491L19.062 30.4287C19.1967 30.6604 19.4441 30.8019 19.7106 30.8019C19.7218 30.8019 19.7333 30.8016 19.7446 30.8011C20.0239 30.7885 20.2729 30.6217 20.3909 30.3685L23.4529 23.7939C23.9441 23.6463 24.2419 23.572 24.492 23.572C24.8158 23.572 25.2177 23.6959 26.0185 23.9429C26.1111 23.9715 26.2092 24.0018 26.3121 24.0333L28.5067 29.1281ZM31.4399 24.7241C31.1321 24.6612 30.8175 24.7965 30.6518 25.0633L29.3162 27.2149L28.0411 24.2553C28.9163 24.1339 29.7174 23.6437 30.2294 22.8609C30.3724 22.6422 30.4987 22.4468 30.6121 22.2713C31.0666 21.5676 31.2947 21.2144 31.5428 21.0063C31.6541 20.9129 31.7939 20.8286 31.9836 20.7345L33.9214 25.232L31.4399 24.7241ZM19.6366 28.4327L18.364 26.2435C18.2061 25.9719 17.8957 25.8276 17.5862 25.8815L15.0909 26.3172L17.5273 21.0864C17.745 21.3026 17.9698 21.6504 18.371 22.2714C18.4844 22.4469 18.6106 22.6422 18.7536 22.8609C19.3867 23.8287 20.4608 24.35 21.5712 24.2789L19.6366 28.4327ZM24.4915 22.0712C23.9809 22.0712 23.4701 22.2174 22.5225 22.5097C22.3253 22.5705 22.1059 22.6382 21.8588 22.7128C21.1445 22.9285 20.4182 22.6647 20.0094 22.0399C19.8681 21.824 19.7434 21.631 19.6315 21.4577C18.5555 19.7922 18.4428 19.6977 16.615 18.9277C16.4249 18.8476 16.2132 18.7584 15.9759 18.6567C15.2895 18.3628 14.9032 17.694 14.9918 16.9528C15.0225 16.6966 15.0511 16.4685 15.0768 16.2639C15.3235 14.2968 15.2979 14.1519 14.3928 12.3875C14.2986 12.2039 14.1939 11.9997 14.0775 11.7695C13.7406 11.1033 13.8748 10.3428 14.4193 9.83196C14.6076 9.65543 14.776 9.49925 14.9273 9.3589C16.3814 8.0105 16.4549 7.88309 16.8961 5.95025C16.942 5.74906 16.9931 5.52509 17.052 5.27375C17.2222 4.547 17.8141 4.05059 18.5597 4.00915C18.8174 3.99481 19.0469 3.98337 19.253 3.97315C21.2339 3.87453 21.3724 3.82418 22.9532 2.6269C23.1177 2.50231 23.3009 2.36356 23.5075 2.20896C24.1054 1.76168 24.8778 1.76168 25.4756 2.20896C25.6823 2.36356 25.8654 2.50231 26.0299 2.6269C27.6108 3.82418 27.7492 3.87453 29.7301 3.97315C29.9362 3.98337 30.1657 3.99481 30.4235 4.00915C31.1691 4.05059 31.7608 4.547 31.9312 5.27375C31.99 5.525 32.0412 5.74897 32.087 5.95015C32.5282 7.883 32.6017 8.0105 34.0558 9.35881C34.2071 9.49915 34.3756 9.65534 34.5638 9.83187C35.1083 10.3427 35.2423 11.1032 34.9055 11.7694C34.7892 11.9997 34.6843 12.2041 34.59 12.3877C33.6851 14.1519 33.6595 14.2968 33.9064 16.2641C33.932 16.4687 33.9607 16.6966 33.9912 16.9527C34.0799 17.6939 33.6936 18.3628 33.0071 18.6567C32.7699 18.7582 32.5581 18.8474 32.368 18.9276C30.5403 19.6976 30.4276 19.7922 29.3516 21.4576C29.2397 21.631 29.1151 21.8239 28.9737 22.0399C28.5651 22.6646 27.8394 22.9288 27.1243 22.7128C26.8773 22.6382 26.6577 22.5704 26.4606 22.5097C25.5128 22.2174 25.002 22.0712 24.4915 22.0712ZM31.9377 12.3304C31.9377 8.22603 28.5974 4.88693 24.4915 4.88693C20.3857 4.88693 17.0453 8.22603 17.0453 12.3304C17.0453 16.4348 20.3857 19.774 24.4915 19.774C28.5973 19.774 31.9377 16.4349 31.9377 12.3304ZM24.4914 18.274C21.2129 18.274 18.5458 15.6077 18.5458 12.3304C18.5458 9.05318 21.2129 6.38693 24.4914 6.38693C27.7698 6.38693 30.4371 9.05318 30.4371 12.3304C30.4372 15.6077 27.7698 18.274 24.4914 18.274ZM28.6121 10.562L23.4887 15.2098C23.3454 15.3399 23.1649 15.4045 22.9846 15.4045C22.7922 15.4045 22.6001 15.3309 22.454 15.1848L20.3446 13.0762C20.0516 12.7833 20.0516 12.3085 20.3446 12.0156C20.6377 11.7227 21.1126 11.7227 21.4057 12.0156L23.0097 13.619L27.6037 9.45134C27.9105 9.17309 28.385 9.19596 28.6635 9.50272C28.9419 9.80928 28.919 10.2837 28.6121 10.562ZM42.8557 35.1354C43.8447 34.147 44.3469 32.9 44.3081 31.5293L43.9428 18.6356C43.9067 17.3623 42.6405 16.2215 41.275 16.2215C41.2619 16.2215 41.2489 16.2216 41.2358 16.2218C40.5697 16.2325 38.3977 16.5912 38.4135 20.7586L38.4402 27.7626C38.4409 27.9227 38.4307 28.0782 38.4099 28.2298C38.357 28.1667 38.3004 28.1049 38.24 28.0445C37.3139 27.1189 35.7974 27.1072 34.7874 28.0178C34.7622 28.0404 34.7386 28.0647 34.7168 28.0904C33.5866 29.4262 32.198 30.5962 31.082 31.5362C30.6907 31.8659 30.3211 32.1773 30.0177 32.4507C28.7451 33.5972 28.5752 35.177 28.5769 36.5711L28.5829 41.5591L27.9359 41.5536C27.4978 41.5496 27.085 41.7173 26.7718 42.025C26.4585 42.3327 26.2839 42.7432 26.2801 43.1805L26.2633 45.1317C26.2596 45.569 26.4271 45.9823 26.735 46.2955C27.0428 46.6086 27.4534 46.7831 27.8909 46.7868L38.0306 46.8739C38.0353 46.8739 38.0401 46.874 38.0449 46.874C38.4771 46.874 38.8849 46.7068 39.1947 46.4024C39.5079 46.0947 39.6825 45.6843 39.6862 45.247L39.703 43.2958C39.7068 42.8585 39.5393 42.4452 39.2314 42.132C38.9236 41.8189 38.513 41.6444 38.0755 41.6407L37.2413 41.6336V40.7477L42.8557 35.1354ZM38.2025 43.283L38.1857 45.2341C38.1853 45.2812 38.1621 45.3138 38.1427 45.3328C38.1234 45.352 38.0932 45.3743 38.0433 45.3741L27.9036 45.287C27.8567 45.2866 27.824 45.2635 27.805 45.2441C27.7859 45.2247 27.7633 45.1917 27.7638 45.1447L27.7806 43.1936C27.781 43.1465 27.8041 43.1139 27.8236 43.0948C27.8427 43.076 27.8753 43.0536 27.9216 43.0536H27.9229H27.923L38.0626 43.1407C38.1392 43.1414 38.2032 43.2065 38.2025 43.283ZM30.0835 41.5722L30.0775 36.5694C30.0756 35.0417 30.3494 34.1713 31.0224 33.565C31.3072 33.3083 31.6509 33.0187 32.0489 32.6834C33.1961 31.7169 34.6212 30.5164 35.8255 29.1029C36.2467 28.7498 36.8217 28.7482 37.1789 29.1053C37.5591 29.4852 37.5596 29.9373 37.1821 30.449C36.5855 31.1193 35.9583 31.7265 35.2946 32.3685C34.976 32.6768 34.6464 32.9955 34.314 33.3279C34.0211 33.6207 34.0211 34.0956 34.3141 34.3885C34.4606 34.5349 34.6525 34.6081 34.8446 34.6081C35.0367 34.6081 35.2287 34.5349 35.3751 34.3884C35.6988 34.0648 36.0237 33.7504 36.3381 33.4464C37.0316 32.7756 37.6865 32.142 38.328 31.4185C38.3314 31.4146 38.8305 30.8043 38.8305 30.8043C39.5818 29.8797 39.945 28.8829 39.9408 27.7571L39.914 20.753C39.907 18.8967 40.4227 17.7351 41.2598 17.7217C41.265 17.7216 41.27 17.7216 41.275 17.7216C41.8322 17.7216 42.4295 18.2086 42.4428 18.6781L42.8081 31.5718C42.8353 32.5333 42.4943 33.3755 41.7946 34.0748L35.9604 39.9068C35.8198 40.0474 35.7407 40.2382 35.7407 40.437V41.6207L30.0835 41.5722ZM28.5024 43.9563C28.6261 43.6452 28.9788 43.4932 29.2901 43.6169C29.6013 43.7406 29.7534 44.0932 29.6297 44.4043C29.5059 44.7155 29.1532 44.8675 28.842 44.7437C28.5306 44.62 28.3786 44.2675 28.5024 43.9563ZM20.2464 42.0252C19.9331 41.7173 19.5194 41.5504 19.0821 41.5538L18.4352 41.5593L18.4412 36.5712C18.4429 35.1771 18.2731 33.5973 17.0005 32.4508C16.6972 32.1774 16.3275 31.8661 15.9362 31.5365C14.8204 30.5964 13.4316 29.4264 12.3014 28.0906C12.2796 28.0648 12.2561 28.0406 12.231 28.018C11.2204 27.1074 9.70382 27.1192 8.77826 28.0447C8.71777 28.1051 8.66122 28.1668 8.60832 28.23C8.58741 28.0784 8.57737 27.923 8.57803 27.7629L8.60476 20.7587C8.62051 16.5912 6.44855 16.2327 5.78239 16.2219C5.76926 16.2217 5.75641 16.2216 5.74319 16.2216C4.37778 16.2216 3.1114 17.3625 3.07548 18.6357L2.71009 31.5295C2.67136 32.9002 3.17358 34.1471 4.16244 35.1355L9.77688 40.7479V41.6337L8.94267 41.6409C8.50516 41.6446 8.09457 41.8191 7.78677 42.1322C7.47887 42.4453 7.31137 42.8587 7.31512 43.296L7.33191 45.2472C7.33566 45.6845 7.51019 46.0948 7.82344 46.4026C8.13321 46.707 8.54099 46.8742 8.97324 46.8742C8.97802 46.8742 8.9829 46.8742 8.98759 46.8741L19.1272 46.787C19.5648 46.7832 19.9753 46.6088 20.2831 46.2957C20.591 45.9825 20.7585 45.5692 20.7548 45.1318L20.738 43.1807C20.7343 42.7434 20.5596 42.3329 20.2464 42.0252ZM11.2774 40.437C11.2774 40.2381 11.1984 40.0474 11.0577 39.9068L5.22343 34.0747C4.5238 33.3754 4.1828 32.5333 4.20999 31.5718L4.57538 18.678C4.58879 18.2042 5.20074 17.7135 5.75829 17.7217C6.59541 17.7351 7.11114 18.8967 7.1041 20.7529L7.07738 27.7571C7.07316 28.8829 7.43629 29.8797 8.18892 30.8059L8.6706 31.3954C8.67388 31.3994 8.68682 31.4146 8.6902 31.4185C9.33178 32.142 9.98668 32.7756 10.6801 33.4464C10.9945 33.7505 11.3194 34.0648 11.6431 34.3884C11.7896 34.5348 11.9816 34.6081 12.1737 34.6081C12.3656 34.6081 12.5577 34.5349 12.7041 34.3885C12.9972 34.0956 12.9972 33.6207 12.7042 33.3279C12.3718 32.9956 12.0423 32.6768 11.7237 32.3685C11.06 31.7264 10.4327 31.1193 9.83616 30.449C9.45876 29.9374 9.45914 29.4853 9.83934 29.1054C10.1968 28.7482 10.7716 28.7498 11.1928 29.1029C12.397 30.5165 13.822 31.717 14.9694 32.6835C15.3673 33.0189 15.711 33.3084 15.996 33.5652C16.6689 34.1713 16.9426 35.0418 16.9407 36.5695L16.9347 41.5722L11.2775 41.6208L11.2774 40.437ZM19.2131 45.2442C19.194 45.2636 19.1614 45.2867 19.1144 45.2871L8.97474 45.3742C8.92682 45.3743 8.89465 45.3521 8.87533 45.3329C8.85591 45.3139 8.83275 45.2814 8.83238 45.2342L8.81559 43.2831C8.81512 43.236 8.83772 43.203 8.85676 43.1837C8.8758 43.1644 8.90843 43.1412 8.95542 43.1408L19.095 43.0537H19.0964C19.1427 43.0537 19.1754 43.0761 19.1945 43.0949C19.2139 43.114 19.2371 43.1466 19.2374 43.1936L19.2542 45.1448C19.2547 45.1918 19.2321 45.2247 19.2131 45.2442ZM18.5158 43.9563C18.6396 44.2675 18.4875 44.62 18.1763 44.7437C17.865 44.8675 17.5123 44.7155 17.3886 44.4043C17.2648 44.0932 17.4168 43.7407 17.7281 43.6169C18.0393 43.4932 18.392 43.6452 18.5158 43.9563Z" fill="#005586"/>
</svg>
