<svg width="51" height="49" viewBox="0 0 51 49" fill="none" xmlns="http://www.w3.org/2000/svg">
<g clip-path="url(#clip0_134_2563)">
<path d="M33.6478 35.6942C34.1098 35.8195 34.3708 35.65 34.5163 35.4677L42.7663 25.1477C42.8983 24.9827 42.9545 24.7697 42.9208 24.562C42.8878 24.3535 42.7678 24.1682 42.5915 24.052L36.9725 20.3717L37.6768 13.3247C37.7098 12.994 37.5215 12.6812 37.2133 12.556C36.908 12.43 36.5525 12.5215 36.3448 12.7825L28.0948 23.1025C27.9628 23.2675 27.9065 23.4805 27.9403 23.6882C27.9733 23.8967 28.0933 24.082 28.2695 24.1982L33.8885 27.8785L33.1843 34.9255C33.1513 35.2562 33.3395 35.569 33.6478 35.6942ZM29.7815 23.3942L35.9315 15.7007L35.4343 20.6755C35.4065 20.9537 35.5363 21.2237 35.7695 21.3782L41.0795 24.8567L34.9295 32.5502L35.4268 27.5755C35.4545 27.2972 35.3248 27.0272 35.0915 26.8727L29.7815 23.3942Z" fill="#005586"/>
<path d="M25.6807 0.5C12.4469 0.5 1.68066 11.2662 1.68066 24.5C1.68066 37.7337 12.4469 48.5 25.6807 48.5C38.9144 48.5 49.6807 37.7337 49.6807 24.5C49.6807 11.2662 38.9144 0.5 25.6807 0.5ZM25.6807 47C13.2742 47 3.18066 36.9065 3.18066 24.5C3.18066 12.0935 13.2742 2 25.6807 2C38.0872 2 48.1807 12.0935 48.1807 24.5C48.1807 36.9065 38.0872 47 25.6807 47Z" fill="#005586"/>
<path d="M22.3634 22.6499L16.9334 14.3399C16.6567 13.9154 15.9547 13.9154 15.6779 14.3399L10.2487 22.6491C9.54966 23.7141 9.18066 24.9509 9.18066 26.2251C9.18066 28.0004 9.89991 29.6451 11.2034 30.8541C12.5144 32.0766 14.3264 32.7501 16.3057 32.7501C20.3677 32.7501 23.4307 29.9451 23.4307 26.2251C23.4307 24.9516 23.0617 23.7141 22.3634 22.6499ZM16.3057 31.2501C14.7074 31.2501 13.2592 30.7199 12.2257 29.7554C11.2297 28.8321 10.6807 27.5781 10.6807 26.2251C10.6807 25.2441 10.9649 24.2924 11.5034 23.4704L16.3057 16.1211L21.1087 23.4711C21.6464 24.2924 21.9307 25.2441 21.9307 26.2251C21.9307 29.0894 19.5119 31.2501 16.3057 31.2501Z" fill="#005586"/>
<path d="M17.706 23.137C17.4135 23.428 17.412 23.902 17.7015 24.196C17.7105 24.2057 18.6157 25.1432 18.6157 26.518C18.6157 27.3985 17.6737 27.7922 16.7407 27.7922C16.326 27.7922 15.9907 28.1275 15.9907 28.5422C15.9907 28.957 16.326 29.2922 16.7407 29.2922C18.696 29.2922 20.1157 28.1252 20.1157 26.518C20.1157 24.5035 18.8175 23.1902 18.762 23.1355C18.4695 22.8445 17.9992 22.846 17.706 23.137Z" fill="#005586"/>
<path d="M30.4612 4.82693C30.2534 4.77443 30.0337 4.81793 29.8574 4.93943L25.6807 7.83743L21.5039 4.93943C21.3284 4.81793 21.1087 4.77368 20.9002 4.82693C11.7914 7.02293 5.43066 15.1132 5.43066 24.5002C5.43066 33.8872 11.7914 41.9774 20.9002 44.1734C21.1079 44.2259 21.3277 44.1832 21.5039 44.0609L25.6807 41.1629L29.8574 44.0609C29.9842 44.1487 30.2182 44.2349 30.4612 44.1734C32.9467 43.5742 35.2687 42.5197 37.3634 41.0384C37.7017 40.7999 37.7827 40.3319 37.5427 39.9929C37.3049 39.6554 36.8347 39.5744 36.4972 39.8137C34.6492 41.1194 32.6107 42.0682 30.4327 42.6344L26.4299 39.8572V9.14243L30.4327 6.36518C38.6909 8.51093 44.4299 15.9202 44.4299 24.5002C44.4299 29.3647 42.5752 33.9749 39.2077 37.4812C38.9212 37.7797 38.9309 38.2544 39.2294 38.5417C39.5272 38.8274 40.0019 38.8192 40.2899 38.5199C43.9267 34.7332 45.9299 29.7539 45.9299 24.5009C45.9299 15.1139 39.5692 7.02368 30.4604 4.82768L30.4612 4.82693ZM20.9279 42.6352C12.6697 40.4894 6.93066 33.0802 6.93066 24.5002C6.93066 15.9202 12.6697 8.51168 20.9279 6.36518L24.9307 9.14243V39.8579L20.9279 42.6352Z" fill="#005586"/>
</g>
<defs>
<clipPath id="clip0_134_2563">
<rect width="50" height="48" fill="white" transform="translate(0.5 0.5)"/>
</clipPath>
</defs>
</svg>
