<svg width="43" height="42" viewBox="0 0 43 42" fill="none" xmlns="http://www.w3.org/2000/svg">
<path d="M39.8644 40.5763V6.40676H41.2882C41.477 6.40676 41.658 6.33176 41.7915 6.19826C41.925 6.06475 42 5.88369 42 5.69489V0.711837C42 0.613105 41.9795 0.515454 41.9397 0.425088C41.8999 0.334722 41.8418 0.253619 41.769 0.186931C41.6962 0.120242 41.6103 0.0694281 41.5168 0.037717C41.4233 0.00600594 41.3242 -0.00590861 41.2259 0.00273042L17.0225 2.13832C16.8451 2.1539 16.6801 2.23535 16.5598 2.36661C16.4396 2.49787 16.3729 2.66942 16.3729 2.84743V5.69489C16.3729 5.88369 16.4479 6.06475 16.5814 6.19826C16.7149 6.33176 16.896 6.40676 17.0848 6.40676H18.5085V17.7966H19.9322V6.40676H38.4407V40.5763H33.7757C34.0351 40.1544 34.1715 39.6684 34.1695 39.1731C34.1695 38.155 33.6364 37.6181 33.2472 37.2261C32.8994 36.8758 32.7458 36.7042 32.7458 36.3051C32.7458 34.5363 31.7677 32.7458 29.8983 32.7458C28.029 32.7458 27.0509 34.5363 27.0509 36.3051C27.0509 36.7042 26.8972 36.8758 26.5495 37.2261C26.1602 37.6181 25.6271 38.155 25.6271 39.1731C25.6251 39.6683 25.7614 40.1543 26.0207 40.5763H18.5085V31.322C18.5085 31.1332 18.4335 30.9522 18.3 30.8187C18.1665 30.6852 17.9854 30.6102 17.7966 30.6102H13.5254C13.3366 30.6102 13.1556 30.6852 13.0221 30.8187C12.8886 30.9522 12.8136 31.1332 12.8136 31.322V40.5763H10.678V28.0058L19.2204 24.2685L27.7627 28.0058V32.0339H29.1865V28.6287L30.3248 29.127C30.4332 29.1744 30.5516 29.1941 30.6695 29.1842C30.7874 29.1744 30.9009 29.1353 30.9999 29.0705C31.0989 29.0058 31.1802 28.9174 31.2364 28.8133C31.2927 28.7093 31.3221 28.5928 31.3221 28.4746V24.9152C31.3221 24.7768 31.2817 24.6415 31.206 24.5256C31.1302 24.4098 31.0223 24.3186 30.8956 24.2631L19.5057 19.28C19.4157 19.2407 19.3186 19.2203 19.2204 19.2203C19.1221 19.2203 19.025 19.2407 18.935 19.28L7.54515 24.2631C7.41836 24.3186 7.31049 24.4098 7.23474 24.5256C7.15899 24.6415 7.11865 24.7768 7.11865 24.9152V28.4746C7.11865 28.5928 7.14811 28.7092 7.20437 28.8132C7.26063 28.9173 7.34192 29.0056 7.4409 29.0703C7.53987 29.1351 7.65341 29.1741 7.77125 29.184C7.8891 29.1938 8.00754 29.1741 8.11588 29.1267L9.25424 28.6284V40.5763H4.27119V28.4746H5.69492V27.0508H1.42373V11.3898H17.0848V9.96608H12.3966L9.75762 7.32711C9.69151 7.26101 9.61304 7.20857 9.52667 7.1728C9.4403 7.13703 9.34773 7.11862 9.25424 7.11862H3.55932C3.37053 7.11862 3.18946 7.19362 3.05596 7.32712C2.92246 7.46062 2.84746 7.64169 2.84746 7.83049V9.96608H0.711865C0.523067 9.96608 0.342001 10.0411 0.2085 10.1746C0.0749998 10.3081 0 10.4891 0 10.6779V27.7627C0 27.9515 0.0749998 28.1326 0.2085 28.2661C0.342001 28.3996 0.523067 28.4746 0.711865 28.4746H2.84746V40.5763H0V42H42.7119V40.5763H39.8644ZM17.7966 3.49923L40.5763 1.48928V4.98303H17.7966V3.49923ZM8.54238 27.3861V25.3808L19.2204 20.7092L29.8983 25.3808V27.3861L29.1865 27.0747V27.0508H29.132L19.5057 22.8394C19.4157 22.8 19.3186 22.7797 19.2204 22.7797C19.1221 22.7797 19.025 22.8 18.935 22.8394L9.3087 27.0508H9.25424V27.0747L8.54238 27.3861ZM4.27119 8.54235H8.95944L10.3832 9.96608H4.27119V8.54235ZM14.2373 32.0339H17.0848V40.5763H14.2373V32.0339ZM28.4746 40.5763C28.0825 40.5763 27.0509 40.1448 27.0509 39.1731C27.0509 38.7591 27.2069 38.5846 27.5598 38.2291C27.9459 37.8402 28.4746 37.3077 28.4746 36.3051C28.4746 34.6158 29.4059 34.1695 29.8983 34.1695C31.0245 34.1695 31.3221 35.5665 31.3221 36.3051C31.3221 37.3077 31.8507 37.8402 32.2367 38.2291C32.5896 38.585 32.7457 38.7591 32.7457 39.1731C32.7458 40.1448 31.714 40.5763 31.3221 40.5763H28.4746Z" fill="#005586"/>
<path d="M20.6435 32.0342C20.4547 32.0342 20.2736 32.1092 20.1401 32.2427C20.0066 32.3762 19.9316 32.5572 19.9316 32.746V36.3054C19.9316 36.4942 20.0066 36.6752 20.1401 36.8087C20.2736 36.9422 20.4547 37.0172 20.6435 37.0172H24.9147C25.1035 37.0172 25.2846 36.9422 25.4181 36.8087C25.5516 36.6752 25.6266 36.4942 25.6266 36.3054V32.746C25.6266 32.5572 25.5516 32.3762 25.4181 32.2427C25.2846 32.1092 25.1035 32.0342 24.9147 32.0342H20.6435ZM24.2028 35.5935H21.3554V33.4579H24.2028V35.5935Z" fill="#005586"/>
<path d="M16.3729 27.7627H14.9492V29.1864H16.3729V27.7627Z" fill="#005586"/>
<path d="M10.6782 21.3559V14.2372H17.085V12.8135H3.55952C3.37072 12.8135 3.18966 12.8885 3.05616 13.022C2.92266 13.1555 2.84766 13.3365 2.84766 13.5253V24.9152C2.84766 25.104 2.92266 25.285 3.05616 25.4185C3.18966 25.552 3.37072 25.627 3.55952 25.627H5.69512V24.2033H4.27139V14.2372H9.25444V21.3559H10.6782Z" fill="#005586"/>
<path d="M22.7802 14.2369H27.0514C27.2402 14.2369 27.4213 14.1619 27.5548 14.0284C27.6883 13.8949 27.7633 13.7138 27.7633 13.525V9.25386C27.7633 9.06506 27.6883 8.88399 27.5548 8.75049C27.4213 8.61699 27.2402 8.54199 27.0514 8.54199H22.7802C22.5914 8.54199 22.4104 8.61699 22.2769 8.75049C22.1434 8.88399 22.0684 9.06506 22.0684 9.25386V13.525C22.0684 13.7138 22.1434 13.8949 22.2769 14.0284C22.4104 14.1619 22.5914 14.2369 22.7802 14.2369ZM23.4921 9.96572H26.3395V12.8132H23.4921V9.96572Z" fill="#005586"/>
<path d="M31.3212 14.2369H35.5924C35.7812 14.2369 35.9623 14.1619 36.0958 14.0284C36.2293 13.8949 36.3043 13.7138 36.3043 13.525V9.25386C36.3043 9.06506 36.2293 8.88399 36.0958 8.75049C35.9623 8.61699 35.7812 8.54199 35.5924 8.54199H31.3212C31.1324 8.54199 30.9514 8.61699 30.8179 8.75049C30.6844 8.88399 30.6094 9.06506 30.6094 9.25386V13.525C30.6094 13.7138 30.6844 13.8949 30.8179 14.0284C30.9514 14.1619 31.1324 14.2369 31.3212 14.2369ZM32.0331 9.96572H34.8806V12.8132H32.0331V9.96572Z" fill="#005586"/>
<path d="M22.0684 19.2205H23.4921V17.7968H26.3395V21.3561H27.7633V17.0849C27.7633 16.8961 27.6883 16.715 27.5548 16.5815C27.4213 16.448 27.2402 16.373 27.0514 16.373H22.7802C22.5914 16.373 22.4104 16.448 22.2769 16.5815C22.1434 16.715 22.0684 16.8961 22.0684 17.0849V19.2205Z" fill="#005586"/>
<path d="M30.6094 21.3561C30.6094 21.5449 30.6844 21.726 30.8179 21.8595C30.9514 21.993 31.1324 22.068 31.3212 22.068H35.5924C35.7812 22.068 35.9623 21.993 36.0958 21.8595C36.2293 21.726 36.3043 21.5449 36.3043 21.3561V17.0849C36.3043 16.8961 36.2293 16.715 36.0958 16.5815C35.9623 16.448 35.7812 16.373 35.5924 16.373H31.3212C31.1324 16.373 30.9514 16.448 30.8179 16.5815C30.6844 16.715 30.6094 16.8961 30.6094 17.0849V21.3561ZM32.0331 17.7968H34.8806V20.6442H32.0331V17.7968Z" fill="#005586"/>
<path d="M32.7461 28.4743V29.898H35.5936C35.7824 29.898 35.9634 29.823 36.0969 29.6895C36.2304 29.556 36.3054 29.375 36.3054 29.1862V24.915C36.3054 24.7262 36.2304 24.5451 36.0969 24.4116C35.9634 24.2781 35.7824 24.2031 35.5936 24.2031H32.7461V25.6269H34.8817V28.4743H32.7461Z" fill="#005586"/>
<path d="M7.11904 30.6104H5.69531V32.0341H7.11904V30.6104Z" fill="#005586"/>
</svg>
