<svg width="53" height="41" viewBox="0 0 53 41" fill="none" xmlns="http://www.w3.org/2000/svg">
<mask id="mask0_408_6" style="mask-type:luminance" maskUnits="userSpaceOnUse" x="0" y="0" width="53" height="41">
<path d="M53 0H0V41H53V0Z" fill="white"/>
</mask>
<g mask="url(#mask0_408_6)">
<path d="M4.70588 37.6632C1.76471 34.4279 0 30.8985 0 25.0161C0 14.722 7.35294 5.60432 17.6471 0.898438L20.2941 4.72197C10.5882 10.0161 8.52941 16.7808 7.94118 21.1926C9.41177 20.3102 11.4706 20.0161 13.5294 20.3102C18.8235 20.8985 22.9412 25.0161 22.9412 30.6043C22.9412 33.2514 21.7647 35.8985 20 37.9573C17.9412 40.0161 15.5882 40.8985 12.6471 40.8985C9.41177 40.8985 6.47059 39.4279 4.70588 37.6632ZM34.1177 37.6632C31.1765 34.4279 29.4118 30.8985 29.4118 25.0161C29.4118 14.722 36.7647 5.60432 47.0588 0.898438L49.7059 4.72197C40 10.0161 37.9412 16.7808 37.3529 21.1926C38.8235 20.3102 40.8824 20.0161 42.9412 20.3102C48.2353 20.8985 52.3529 25.0161 52.3529 30.6043C52.3529 33.2514 51.1765 35.8985 49.4118 37.9573C47.6471 40.0161 45 40.8985 42.0588 40.8985C38.8235 40.8985 35.8824 39.4279 34.1177 37.6632Z" fill="#005586"/>
</g>
</svg>
