<svg id="Layer_1" data-name="Layer 1" xmlns="http://www.w3.org/2000/svg" xmlns:xlink="http://www.w3.org/1999/xlink" viewBox="0 0 51 49"><defs><style>.cls-1{fill:none;}.cls-2{fill:#e31e24;}.cls-3{clip-path:url(#clip-path);}</style><clipPath id="clip-path"><rect class="cls-1" x="2.5" width="46" height="49"/></clipPath></defs><path class="cls-2" d="M22.69,46.26a2.58,2.58,0,0,0-1.1-.15c-1.35-.12-2.7-.3-4-.53a.69.69,0,1,1,.23-1.34,41.66,41.66,0,0,0,4.17.52,45.88,45.88,0,0,0,9.73-.26,46.19,46.19,0,0,0,4.66-.91.7.7,0,0,1,.94.47c.1.39-.15.72-.63.85a42.67,42.67,0,0,1-8,1.27c-.09,0-.21-.06-.26.08H28c-.14-.15-.28-.11-.43,0h-3.9c-.12-.11-.23-.15-.34,0Z"/><path class="cls-2" d="M27.53,46.26c.15-.11.29-.15.43,0Z"/><path class="cls-2" d="M23.29,46.26c.11-.15.22-.11.34,0Z"/><g class="cls-3"><path class="cls-2" d="M47.5,18.65c-.16.09-.12.27-.15.41a6.12,6.12,0,0,1-12-.49,7,7,0,0,1,1-4.47c.67-1.2,1.51-2.28,2.25-3.44a12.52,12.52,0,0,0,2-4.25c.07-.33.1-.67.14-1a.7.7,0,0,1,.67-.64.66.66,0,0,1,.69.62,9.61,9.61,0,0,0,1.7,4.55c.8,1.26,1.66,2.49,2.46,3.76a7.59,7.59,0,0,1,1.2,3.09s0,0,.08.08ZM41.41,8.43c-.13,0-.13.13-.16.2A22.53,22.53,0,0,1,39.32,12c-.56.82-1.12,1.63-1.64,2.47a5.8,5.8,0,0,0-1,4A4.75,4.75,0,1,0,46,16.61a10.49,10.49,0,0,0-1.72-3.42,35.36,35.36,0,0,1-2.18-3.38C41.87,9.35,41.64,8.89,41.41,8.43Z"/><path class="cls-2" d="M37.3,28.75a28,28,0,0,1,3.15,1.13,14.3,14.3,0,0,1,4.42,2.8,5.57,5.57,0,0,1,1.94,4.22A4.56,4.56,0,0,1,46.24,39a.68.68,0,0,1-1,.37.66.66,0,0,1-.25-1,3.56,3.56,0,0,0-.52-4.07A8.64,8.64,0,0,0,42,32.23a20,20,0,0,0-4.76-2.06,16.19,16.19,0,0,1-.39,2.14,11.55,11.55,0,0,1-22.63-1.84,13.62,13.62,0,0,1,1.84-8,58,58,0,0,1,3.15-4.88,49.07,49.07,0,0,0,4.4-7.38,15.92,15.92,0,0,0,1.42-5.46.67.67,0,0,1,.66-.69.66.66,0,0,1,.7.65A17.85,17.85,0,0,0,29,12.44c1.32,2.36,2.88,4.56,4.4,6.79a25.71,25.71,0,0,1,3.23,5.94A13.46,13.46,0,0,1,37.3,28.75ZM25.75,8.56a21.25,21.25,0,0,1-1,2.49,51.88,51.88,0,0,1-4.38,7.3A45.53,45.53,0,0,0,17,23.68,11.64,11.64,0,0,0,15.71,31a10.21,10.21,0,1,0,19.6-5.38A24.6,24.6,0,0,0,32.21,20c-1.61-2.37-3.27-4.72-4.65-7.24A23.94,23.94,0,0,1,25.75,8.56Z"/><path class="cls-2" d="M25.76,43.54A33,33,0,0,1,15.36,42a13,13,0,0,1-4.18-2.18,5.84,5.84,0,0,1-.93-.93,3.33,3.33,0,0,1,0-4.4,8.22,8.22,0,0,1,2.94-2.18.66.66,0,0,1,.9.31.65.65,0,0,1-.31.9,11.5,11.5,0,0,0-1.72,1.08c-1.74,1.4-1.73,3,.06,4.33A13.55,13.55,0,0,0,17,41.07a34.46,34.46,0,0,0,12.75.87A27.12,27.12,0,0,0,37,40.23a8.36,8.36,0,0,0,2.81-1.71,2.21,2.21,0,0,0,0-3.49,7.56,7.56,0,0,0-2-1.4c-.51-.27-.67-.62-.46-1s.59-.45,1.1-.19a8.82,8.82,0,0,1,2.41,1.71,3.44,3.44,0,0,1,0,5.16,10.61,10.61,0,0,1-4,2.45,28.93,28.93,0,0,1-8.49,1.7C27.52,43.51,26.64,43.56,25.76,43.54Z"/><path class="cls-2" d="M4,12.87a6.35,6.35,0,0,1,1-3.2C5.66,8.58,6.38,7.51,7,6.41a6.78,6.78,0,0,0,1-3.05.58.58,0,0,1,.63-.6c.4,0,.68.18.71.56A7.89,7.89,0,0,0,10.8,7c.68,1.12,1.5,2.16,2.08,3.34a5.1,5.1,0,0,1-.08,5.11,4.77,4.77,0,0,1-5,2.2,4.84,4.84,0,0,1-3.78-4C4,13.41,4,13.14,4,12.87ZM8.76,6.05a36.9,36.9,0,0,1-2.49,4.12c-.14.23-.27.46-.39.7a4.89,4.89,0,0,0-.48,1.44A3.49,3.49,0,0,0,8,16.25a3.41,3.41,0,0,0,4-2.34,3.94,3.94,0,0,0-.4-3.11C10.75,9.2,9.54,7.81,8.76,6.05Z"/><path class="cls-2" d="M4.69,36.44a5.79,5.79,0,0,1,2-3.78,14,14,0,0,1,3.8-2.51A.68.68,0,1,1,11,31.38a13.53,13.53,0,0,0-3.1,2A4.7,4.7,0,0,0,6,36.8a.65.65,0,0,1-.72.62C4.9,37.39,4.67,37.08,4.69,36.44Z"/><path class="cls-2" d="M33.92,28.57a8.82,8.82,0,0,1-1.12,4.06,3.51,3.51,0,0,1-1.08,1.19.73.73,0,0,1-1,0c-.32-.28-.27-.6-.11-1a5.34,5.34,0,0,0-1.9-6.83,4.66,4.66,0,0,0-1.42-.64.66.66,0,0,0-.89.66v.09c0,.4,0,.81-.44,1s-.73-.16-1-.44l-3-3c-.46-.46-.47-.77,0-1.23,1.05-1.05,2.11-2.1,3.15-3.15a.73.73,0,0,1,.87-.26.72.72,0,0,1,.42.8c0,.17,0,.34,0,.51a.69.69,0,0,0,.68.76A8.2,8.2,0,0,1,31.37,23,7.17,7.17,0,0,1,33.92,28.57Zm-1.49.73a.52.52,0,0,0,.1-.4A5.67,5.67,0,0,0,32,26a6.17,6.17,0,0,0-4.79-3.38,2.35,2.35,0,0,1-1.92-1.22l-1.86,1.86L25.19,25l.1.07a2.06,2.06,0,0,1,2.8-.84A6.83,6.83,0,0,1,32.43,29.3Z"/><path class="cls-2" d="M17.59,28.39a8.58,8.58,0,0,1,1.18-4,3.47,3.47,0,0,1,1-1.08.72.72,0,0,1,1,0c.32.27.27.6.11,1a5.24,5.24,0,0,0,.54,5.56A5.13,5.13,0,0,0,24,31.69c.71.24,1.09,0,1.09-.78a1.13,1.13,0,0,1,.11-.65.65.65,0,0,1,1-.12c1.16,1.13,2.29,2.27,3.43,3.42a.63.63,0,0,1,0,.95q-1.68,1.71-3.39,3.39a.62.62,0,0,1-.74.14.65.65,0,0,1-.42-.67c.05-1.09,0-1.24-1.26-1.52a7.24,7.24,0,0,1-6-5.42A7.49,7.49,0,0,1,17.59,28.39Zm1.48-.52c-.13.13-.1.3-.11.45a6,6,0,0,0,5.16,6.21,2.43,2.43,0,0,1,2.12,1.26l1.86-1.85L27.18,33l-.94-1a2.09,2.09,0,0,1-2.83.88A6.81,6.81,0,0,1,19.07,27.87Z"/></g></svg>