<?xml version="1.0" encoding="utf-8"?>
<!-- Generator: Adobe Illustrator 26.0.3, SVG Export Plug-In . SVG Version: 6.00 Build 0)  -->
<svg version="1.1" id="Layer_1" xmlns="http://www.w3.org/2000/svg" xmlns:xlink="http://www.w3.org/1999/xlink" x="0px" y="0px"
	 viewBox="0 0 46 49" style="enable-background:new 0 0 46 49;" xml:space="preserve">
<style type="text/css">
	.st0{fill:#E31E24;}
	.st1{clip-path:url(#SVGID_00000101819439061482881140000016468602571876111541_);fill:#E31E24;}
</style>
<path class="st0" d="M20.2,46.3c-0.3-0.2-0.7-0.1-1.1-0.2c-1.4-0.1-2.7-0.3-4-0.5c-0.5-0.1-0.7-0.4-0.6-0.8c0.1-0.4,0.4-0.6,0.9-0.5
	c1.4,0.2,2.8,0.4,4.2,0.5c3.3,0.2,6.5,0.2,9.7-0.3c1.6-0.2,3.1-0.5,4.7-0.9c0.5-0.1,0.8,0.1,0.9,0.5c0.1,0.4-0.1,0.7-0.6,0.8
	c-2.6,0.7-5.3,1.1-8,1.3c-0.1,0-0.2-0.1-0.3,0.1c-0.1,0-0.3,0-0.4,0c-0.1-0.1-0.3-0.1-0.4,0c-1.3,0-2.6,0-3.9,0
	c-0.1-0.1-0.2-0.1-0.3,0C20.6,46.3,20.4,46.3,20.2,46.3z"/>
<path class="st0" d="M25,46.3c0.1-0.1,0.3-0.1,0.4,0C25.3,46.3,25.2,46.3,25,46.3z"/>
<path class="st0" d="M20.8,46.3c0.1-0.1,0.2-0.1,0.3,0C21,46.3,20.9,46.3,20.8,46.3z"/>
<g>
	<defs>
		<rect id="SVGID_1_" width="46" height="49"/>
	</defs>
	<clipPath id="SVGID_00000104700026284021406790000003896454487980539298_">
		<use xlink:href="#SVGID_1_"  style="overflow:visible;"/>
	</clipPath>
	<path style="clip-path:url(#SVGID_00000104700026284021406790000003896454487980539298_);fill:#E31E24;" d="M45,18.6
		c-0.2,0.1-0.1,0.3-0.2,0.4c-0.7,2.9-3.3,4.9-6.3,4.8c-2.9-0.1-5.3-2.4-5.7-5.3c-0.2-1.6,0.2-3.1,1-4.5c0.7-1.2,1.5-2.3,2.2-3.4
		c0.9-1.3,1.7-2.7,2-4.3c0.1-0.3,0.1-0.7,0.1-1c0.1-0.4,0.3-0.6,0.7-0.6c0.4,0,0.7,0.2,0.7,0.6c0.1,1.7,0.8,3.2,1.7,4.5
		c0.8,1.3,1.7,2.5,2.5,3.8c0.6,0.9,1,2,1.2,3.1c0,0,0,0.1,0.1,0.1C45,17.5,45,18.1,45,18.6z M38.9,8.4c-0.1,0-0.1,0.1-0.2,0.2
		c-0.5,1.2-1.2,2.3-1.9,3.3c-0.6,0.8-1.1,1.6-1.6,2.5c-0.8,1.2-1.2,2.5-1,4c0.4,2.7,2.9,4.4,5.6,3.9c2.6-0.5,4.3-3.2,3.7-5.8
		c-0.3-1.3-1-2.4-1.7-3.4c-0.8-1.1-1.6-2.2-2.2-3.4C39.4,9.4,39.1,8.9,38.9,8.4z"/>
	<path style="clip-path:url(#SVGID_00000104700026284021406790000003896454487980539298_);fill:#E31E24;" d="M34.8,28.7
		c1.1,0.3,2.1,0.7,3.2,1.1c1.6,0.7,3.1,1.6,4.4,2.8c1.2,1.2,2,2.5,1.9,4.2c0,0.7-0.2,1.5-0.6,2.1c-0.2,0.4-0.6,0.6-0.9,0.4
		c-0.4-0.2-0.5-0.6-0.3-1c0.7-1.5,0.5-2.8-0.5-4.1c-0.7-0.9-1.5-1.5-2.5-2.1c-1.5-0.9-3.1-1.5-4.8-2.1c-0.1,0.7-0.2,1.4-0.4,2.1
		c-1.5,5.2-6.3,8.7-11.7,8.5c-5.6-0.3-10.3-4.7-10.9-10.3c-0.3-2.9,0.5-5.5,1.8-8c0.9-1.7,2.1-3.3,3.1-4.9c1.6-2.4,3.2-4.7,4.4-7.4
		c0.8-1.7,1.3-3.6,1.4-5.5c0-0.4,0.3-0.7,0.7-0.7c0.4,0,0.7,0.2,0.7,0.7c0.2,2.8,1.2,5.3,2.5,7.7c1.3,2.4,2.9,4.6,4.4,6.8
		c1.3,1.9,2.5,3.8,3.2,5.9C34.5,26.3,34.7,27.5,34.8,28.7z M23.2,8.6c-0.3,0.9-0.6,1.7-1,2.5c-1.2,2.6-2.8,4.9-4.4,7.3
		c-1.2,1.7-2.4,3.4-3.4,5.3c-1.2,2.3-1.8,4.7-1.3,7.3c1.1,6.3,7.7,10.1,13.6,7.8c5.3-2,7.9-7.7,6-13.2c-0.7-2.1-1.9-3.9-3.1-5.7
		c-1.6-2.4-3.3-4.7-4.7-7.2C24.3,11.4,23.7,10.1,23.2,8.6z"/>
	<path style="clip-path:url(#SVGID_00000104700026284021406790000003896454487980539298_);fill:#E31E24;" d="M23.3,43.5
		c-3.5,0-7-0.4-10.4-1.5c-1.5-0.5-2.9-1.2-4.2-2.2c-0.3-0.3-0.7-0.6-0.9-0.9c-1.1-1.4-1.1-3,0-4.4c0.8-1,1.8-1.6,2.9-2.2
		c0.4-0.2,0.7,0,0.9,0.3c0.2,0.3,0.1,0.7-0.3,0.9c-0.6,0.3-1.2,0.7-1.7,1.1c-1.7,1.4-1.7,3,0.1,4.3c1.4,1.1,3.1,1.7,4.9,2.1
		c4.2,1.1,8.4,1.4,12.8,0.9c2.5-0.3,4.9-0.8,7.3-1.7c1-0.4,2-0.9,2.8-1.7c1.1-1.1,1.2-2.3,0-3.5c-0.6-0.6-1.3-1-2-1.4
		c-0.5-0.3-0.7-0.6-0.5-1c0.2-0.4,0.6-0.5,1.1-0.2c0.9,0.5,1.7,1,2.4,1.7c1.6,1.6,1.6,3.5,0,5.2c-1.1,1.2-2.5,1.9-4,2.4
		c-2.7,1-5.6,1.5-8.5,1.7C25,43.5,24.1,43.6,23.3,43.5z"/>
	<path style="clip-path:url(#SVGID_00000104700026284021406790000003896454487980539298_);fill:#E31E24;" d="M1.5,12.9
		c0-1.2,0.4-2.2,1-3.2c0.7-1.1,1.4-2.2,2.1-3.3c0.6-0.9,1-1.9,1-3.1c0-0.4,0.2-0.6,0.6-0.6c0.4,0,0.7,0.2,0.7,0.6
		C7,4.7,7.6,5.8,8.3,7c0.7,1.1,1.5,2.2,2.1,3.3c0.8,1.7,0.9,3.4-0.1,5.1c-1,1.7-3,2.6-5,2.2c-1.9-0.4-3.5-2-3.8-3.9
		C1.5,13.4,1.5,13.1,1.5,12.9z M6.3,6c-0.7,1.5-1.7,2.8-2.5,4.1c-0.1,0.2-0.3,0.5-0.4,0.7c-0.2,0.5-0.4,0.9-0.5,1.4
		c-0.3,1.8,0.8,3.5,2.6,3.9c1.7,0.4,3.5-0.6,4-2.3c0.3-1.1,0.1-2.1-0.4-3.1C8.3,9.2,7,7.8,6.3,6z"/>
	<path style="clip-path:url(#SVGID_00000104700026284021406790000003896454487980539298_);fill:#E31E24;" d="M2.2,36.4
		c0.1-1.5,0.9-2.7,2-3.8c1.1-1.1,2.4-1.9,3.8-2.5c0.4-0.2,0.8-0.1,1,0.3c0.2,0.4,0,0.7-0.4,0.9c-1.1,0.5-2.2,1.1-3.1,2
		c-1,0.9-1.8,2-1.9,3.5c0,0.4-0.4,0.7-0.7,0.6C2.4,37.4,2.2,37.1,2.2,36.4z"/>
	<path style="clip-path:url(#SVGID_00000104700026284021406790000003896454487980539298_);fill:#E31E24;" d="M31.4,28.6
		c-0.1,1.4-0.4,2.8-1.1,4.1c-0.3,0.5-0.6,0.9-1.1,1.2c-0.3,0.2-0.6,0.3-1,0c-0.3-0.3-0.3-0.6-0.1-1c1.2-2.5,0.4-5.4-1.9-6.8
		c-0.4-0.3-0.9-0.5-1.4-0.6c-0.5-0.1-0.9,0.1-0.9,0.7c0,0,0,0.1,0,0.1c0,0.4,0,0.8-0.4,1c-0.5,0.2-0.7-0.2-1-0.4c-1-1-2-2-3-3
		c-0.5-0.5-0.5-0.8,0-1.2c1-1.1,2.1-2.1,3.1-3.2c0.2-0.2,0.5-0.4,0.9-0.3c0.4,0.2,0.4,0.4,0.4,0.8c0,0.2,0,0.3,0,0.5
		c0,0.5,0.2,0.7,0.7,0.8c1.6,0.2,3,0.8,4.3,1.8C30.6,24.5,31.3,26.3,31.4,28.6z M29.9,29.3C30,29.2,30,29,30,28.9
		c0.1-1-0.1-2-0.6-2.9c-1-2-2.7-3-4.8-3.4c-0.9-0.2-1.6-0.5-1.9-1.2c-0.6,0.6-1.2,1.2-1.9,1.9c0.6,0.6,1.2,1.2,1.8,1.8
		c0,0,0.1,0,0.1,0.1c0.8-1.1,1.6-1.3,2.8-0.8C27.9,25.2,29.3,26.9,29.9,29.3z"/>
	<path style="clip-path:url(#SVGID_00000104700026284021406790000003896454487980539298_);fill:#E31E24;" d="M15.1,28.4
		c0.1-1.3,0.4-2.7,1.2-4c0.3-0.4,0.6-0.8,1-1.1c0.3-0.2,0.6-0.3,1,0c0.3,0.3,0.3,0.6,0.1,1c-0.9,2-0.7,3.8,0.5,5.6
		c0.6,0.9,1.5,1.5,2.6,1.9c0.7,0.2,1.1,0,1.1-0.8c0-0.2,0-0.5,0.1-0.7c0.2-0.4,0.7-0.4,1-0.1c1.2,1.1,2.3,2.3,3.4,3.4
		c0.3,0.3,0.3,0.7,0,1c-1.1,1.1-2.3,2.3-3.4,3.4c-0.2,0.2-0.5,0.3-0.7,0.1c-0.3-0.1-0.4-0.4-0.4-0.7c0.1-1.1,0-1.2-1.3-1.5
		c-3-0.6-5.1-2.3-6-5.4C15.2,29.8,15.1,29.2,15.1,28.4z M16.6,27.9c-0.1,0.1-0.1,0.3-0.1,0.4c-0.1,3.1,2,5.7,5.2,6.2
		c0.9,0.1,1.8,0.4,2.1,1.3c0.6-0.6,1.2-1.2,1.9-1.9c-0.3-0.3-0.6-0.6-0.9-0.9c-0.3-0.3-0.6-0.6-0.9-1c-0.8,1.1-1.6,1.4-2.8,0.9
		C18.6,32,17.2,30.3,16.6,27.9z"/>
</g>
</svg>
