<?xml version="1.0" encoding="utf-8"?>
<!-- Generator: Adobe Illustrator 26.0.3, SVG Export Plug-In . SVG Version: 6.00 Build 0)  -->
<svg version="1.1" id="Layer_1" xmlns="http://www.w3.org/2000/svg" xmlns:xlink="http://www.w3.org/1999/xlink" x="0px" y="0px"
	 viewBox="0 0 46 49" style="enable-background:new 0 0 46 49;" xml:space="preserve">
<style type="text/css">
	.st0{clip-path:url(#SVGID_00000140692577703471987710000013976239745917625021_);fill:#E31E24;}
</style>
<g>
	<defs>
		<rect id="SVGID_1_" width="46" height="49"/>
	</defs>
	<clipPath id="SVGID_00000043451058461831688800000013230728875767707782_">
		<use xlink:href="#SVGID_1_"  style="overflow:visible;"/>
	</clipPath>
	<path style="clip-path:url(#SVGID_00000043451058461831688800000013230728875767707782_);fill:#E31E24;" d="M17.8,40
		c0.2,0,0.3,0,0.4,0c0.9,0.1,1.5,0.8,1.6,1.6c0,1.2,0,2.4,0,3.5c0,0.9-0.7,1.6-1.6,1.6c-3.6,0-7.2,0-10.8,0c-0.9,0-1.6-0.6-1.6-1.6
		c0-1.2,0-2.4,0-3.6c0-0.9,0.6-1.5,1.5-1.6c0.1,0,0.2,0,0.3,0c-0.1-1.1-0.6-2-1.4-2.8c-0.5-0.5-1-1-1.5-1.5C3.6,34.4,3,32.8,2.6,31
		c-0.7-3.1-1.4-6.1-2.1-9.2c-0.1-0.6-0.1-1.2,0-1.8c0.6-1.8,2.8-2.3,4.1-1c0.3,0.3,0.5,0.7,0.7,1c1,2.2,2,4.3,3.1,6.5
		c0.1,0.1,0.1,0.3,0.2,0.4c1.8-0.8,3-0.5,4.2,1c1,1.3,2.1,2.7,3.2,4c1.2,1.4,1.7,3.1,1.8,5C17.8,38,17.8,39,17.8,40z M9.3,39.9
		c2.3,0,4.7,0,7,0c0-1,0-1.9,0-2.9c0-1.4-0.4-2.7-1.3-3.8c-1.1-1.4-2.3-2.9-3.4-4.4c-0.2-0.2-0.4-0.4-0.6-0.6
		c-0.4-0.3-0.8-0.4-1.2-0.1c-0.4,0.2-0.6,0.6-0.6,1.1c0,0.4,0.2,0.8,0.4,1.2c0.4,0.7,0.7,1.4,1.1,2.2c0.2,0.5,0.1,1-0.3,1.2
		c-0.4,0.2-0.9,0-1.1-0.5c-0.4-0.8-0.8-1.6-1.2-2.4c-0.3-0.7-0.5-1.4-0.4-2.1c0-0.2,0-0.3-0.1-0.5c-1.2-2.6-2.4-5.1-3.6-7.7
		c-0.1-0.2-0.2-0.4-0.4-0.6c-0.6-0.5-1.3-0.3-1.5,0.5c-0.1,0.4,0,0.8,0.1,1.1c0.6,2.8,1.2,5.5,1.7,8.3c0.4,2.3,1.4,4.2,3.1,5.7
		c0.2,0.2,0.4,0.4,0.6,0.6c0.8,0.8,1.3,1.8,1.6,2.9C9.2,39.5,9.2,39.7,9.3,39.9z M7.4,45.2c0.2,0,0.4,0,0.6,0c2.6,0,5.1,0,7.7,0
		c0.8,0,1.7,0.1,2.5-0.1c0.1-0.8,0-1.6,0.1-2.4c0-0.4,0.1-0.8,0-1.2c-3.6,0-7.2,0-10.8,0C7.4,42.8,7.4,44,7.4,45.2z"/>
	<path style="clip-path:url(#SVGID_00000043451058461831688800000013230728875767707782_);fill:#E31E24;" d="M28.6,39.9
		c0-0.8,0-1.5,0-2.3c0-2.3,0.6-4.4,2.2-6.1c1-1.1,1.8-2.3,2.7-3.4c0.3-0.4,0.7-0.9,1.2-1.1c1-0.6,2.1-0.6,3.1,0.1
		c0.2-0.1,0.2-0.3,0.2-0.4c1-2.2,2.1-4.3,3.1-6.5c0.5-1,1.1-1.7,2.3-1.8c1.7-0.2,2.9,1.4,2.6,3.1c-0.6,2.9-1.3,5.8-1.9,8.7
		c-0.1,0.6-0.2,1.2-0.4,1.7c-0.4,1.7-1.3,3.2-2.6,4.4c-0.5,0.5-1,0.9-1.4,1.5c-0.4,0.6-0.7,1.3-0.8,2c1.4,0.2,1.8,0.7,1.8,2.1
		c0,1,0,2,0,3c0,1-0.7,1.7-1.7,1.7c-3.5,0-6.9,0-10.4,0c-1.1,0-1.7-0.7-1.7-1.7c0-1,0-1.9,0-2.9C26.7,40.5,27.1,40.1,28.6,39.9z
		 M37.2,40c0.1-1,0.4-1.9,1-2.7c0.5-0.7,1.1-1.4,1.8-2c1.2-1.1,2-2.4,2.3-3.9c0.7-3.3,1.4-6.6,2.2-9.9c0.1-0.3,0.1-0.7,0-1
		c-0.3-0.7-1-0.9-1.6-0.3c-0.2,0.2-0.3,0.4-0.4,0.7c-1.1,2.4-2.3,4.9-3.4,7.3c-0.1,0.3-0.2,0.6-0.2,0.9c0.1,0.6-0.1,1.3-0.4,1.8
		c-0.4,0.8-0.8,1.6-1.2,2.4c-0.3,0.5-0.6,0.7-1,0.5c-0.4-0.2-0.6-0.6-0.3-1.1c0.4-0.7,0.7-1.5,1.1-2.2c0.2-0.4,0.3-0.8,0.3-1.2
		c0-0.5-0.1-0.9-0.6-1.2c-0.5-0.2-0.9-0.1-1.3,0.2c-0.1,0.1-0.3,0.2-0.4,0.4c-1.2,1.6-2.5,3.2-3.7,4.8c-0.5,0.6-0.7,1.3-0.9,2
		c-0.3,1.5-0.2,3-0.2,4.5C32.6,40,34.9,40,37.2,40z M28.3,45.2c3.6,0,7.2,0,10.8,0c0-1.2,0-2.4,0-3.7c-3.6,0-7.2,0-10.8,0
		C28.3,42.8,28.3,44,28.3,45.2z"/>
	<path style="clip-path:url(#SVGID_00000043451058461831688800000013230728875767707782_);fill:#E31E24;" d="M12.2,20.1
		c0-2.3,0.7-4.3,1.9-6.3c1.9-3.3,4.2-6.3,6.4-9.5c0.7-1.1,1.5-2.1,2.2-3.2c0.3-0.5,0.9-0.5,1.2,0C26.8,5.5,30,9.5,32.6,14
		c1.2,2,1.8,4.1,1.8,6.4c-0.1,5.2-4.1,9.8-9.2,10.6c-5.9,0.9-11.3-2.7-12.7-8.5C12.3,21.7,12.2,20.9,12.2,20.1z M23.3,3
		c-0.9,1.3-1.9,2.6-2.8,3.9c-2,2.8-4.1,5.7-5.7,8.7c-1,1.9-1.4,3.9-1,5.9c0.9,5.2,5.3,8.5,10.6,8c4.4-0.4,8.2-4.5,8.4-8.9
		c0.1-2.2-0.6-4.2-1.7-6.1c-2-3.5-4.5-6.7-6.8-10C24.1,4.1,23.7,3.5,23.3,3z"/>
	<path style="clip-path:url(#SVGID_00000043451058461831688800000013230728875767707782_);fill:#E31E24;" d="M24.6,25
		c0.3,0.3,0.5,0.5,0.8,0.7c0.3,0.4,0.3,0.8,0,1.1c-0.3,0.3-0.8,0.3-1.1,0c-0.6-0.6-1.2-1.2-1.8-1.8c-0.2-0.2-0.3-0.6-0.2-0.9
		c0.1-0.4,0.5-0.5,0.8-0.5c1.2,0,2.2-0.5,3-1.4c1.5-1.6,1.6-3.9,0.3-5.7c-0.3-0.5-0.3-0.9,0-1.2c0.4-0.3,0.8-0.2,1.2,0.3
		c2.4,3,1.1,7.6-2.5,9.1C25,24.9,24.9,24.9,24.6,25z"/>
	<path style="clip-path:url(#SVGID_00000043451058461831688800000013230728875767707782_);fill:#E31E24;" d="M21.9,13.6
		c-0.3-0.3-0.6-0.5-0.8-0.7c-0.3-0.4-0.3-0.7,0-1.1c0.3-0.3,0.7-0.3,1.1,0c0.6,0.6,1.2,1.1,1.7,1.7c0.2,0.2,0.4,0.5,0.2,0.9
		c-0.1,0.4-0.4,0.5-0.8,0.5c-1.7,0.1-3,0.9-3.8,2.4c-0.8,1.6-0.6,3.1,0.4,4.6c0.2,0.3,0.4,0.6,0.2,1c-0.2,0.5-0.9,0.6-1.3,0.1
		c-1-1.3-1.5-2.7-1.3-4.3C17.9,16.1,19.4,14.5,21.9,13.6z"/>
</g>
</svg>
