<?xml version="1.0" encoding="utf-8"?>
<!-- Generator: Adobe Illustrator 26.0.3, SVG Export Plug-In . SVG Version: 6.00 Build 0)  -->
<svg version="1.1" id="Layer_1" xmlns="http://www.w3.org/2000/svg" xmlns:xlink="http://www.w3.org/1999/xlink" x="0px" y="0px"
	 viewBox="0 0 46 49" style="enable-background:new 0 0 46 49;" xml:space="preserve">
<style type="text/css">
	.st0{clip-path:url(#SVGID_00000132807522434757451900000001181224367013695121_);fill:#E31E24;}
</style>
<g>
	<defs>
		<rect id="SVGID_1_" x="0" width="46" height="49"/>
	</defs>
	<clipPath id="SVGID_00000163035682616657826190000003596397873863818427_">
		<use xlink:href="#SVGID_1_"  style="overflow:visible;"/>
	</clipPath>
	<path style="clip-path:url(#SVGID_00000163035682616657826190000003596397873863818427_);fill:#E31E24;" d="M18.1,38
		c2,0,3.9,0.3,5.8,0.4c0.1,0,0.1,0,0.2,0c1.6-0.6,3.3-1,4.7-2c1.6-1.2,3.3-2.4,5-3.5c1-0.7,2.2-1.1,3.5-1c1,0.1,1.7,0.6,2.1,1.6
		c0.5-0.1,1-0.2,1.5-0.2c0.7,0,1.3,0,2,0.4c1.3,0.7,1.5,2,0.7,3.1c-0.2,0.2-0.4,0.5-0.7,0.7c-4.2,3-8.3,6-12.6,8.7
		c-2,1.3-4.2,1.9-6.6,1.9c-4.6-0.1-9.2,0-13.8,0c-0.3,0-0.5,0-0.7,0.3c-0.3,0.4-0.7,0.6-1.3,0.6c-1.3,0-2.6,0.1-3.9,0
		c-1.1,0-1.8-0.8-1.8-1.9c0-3.6,0-7.3,0-10.9c0-1.1,0.7-1.8,1.8-1.9c1.2,0,2.4,0,3.6,0c0.9,0,1.5,0.3,1.9,1.2c2-1.3,4.1-2.3,6.2-3.4
		c-0.6-1-1.1-2-1.3-3.1c-0.4-1.9-0.1-3.6,0.6-5.3c1-2.6,2.5-4.9,4.2-7.2c1-1.4,2.1-2.7,3.1-4c0.5-0.6,1-0.6,1.4-0.1
		c2.5,3.1,5,6.2,6.8,9.8c0.6,1.3,1.1,2.6,1.3,4c0.5,4.2-2.1,8.2-6.1,9.5c-1.2,0.4-2.4,0.5-3.6,0.3c-0.3,0-0.6,0-0.9,0.2
		C20.2,36.7,19.2,37.3,18.1,38z M9.6,46.4c0.3,0,0.4,0,0.6,0c4.4,0,8.8-0.1,13.2,0c2.3,0.1,4.3-0.6,6.3-1.8c4.1-2.6,8-5.5,12-8.3
		c0.2-0.1,0.3-0.3,0.5-0.4c0.2-0.2,0.2-0.5-0.1-0.6c-0.2-0.1-0.4-0.2-0.6-0.2c-0.8-0.1-1.5,0.1-2.2,0.5c-2.4,1.3-4.7,2.7-7.1,4
		c-0.8,0.5-1.7,0.7-2.7,0.7c-3.1,0.1-6.2-0.1-9.2-0.5c-1.2-0.1-2.3-0.4-3.5-0.6c-0.4-0.1-0.7-0.1-0.9-0.5c-0.2-0.4-0.1-0.7,0.2-1
		c0.4-0.5,0.9-0.9,1.4-1.2c1.4-0.9,2.8-1.8,4.3-2.5c0.4-0.2,0.8-0.5,1.1-0.8c0.3-0.3,0.5-0.7,0.4-1.2c-0.2-0.5-0.6-0.6-1.1-0.6
		c-1.1-0.1-2.1,0.3-3.1,0.8c-1.3,0.8-2.7,1.5-4.1,2.2c-1.7,0.9-3.5,1.8-5,2.9c-0.3,0.2-0.4,0.4-0.3,0.7c0,1.5,0,3,0,4.5
		C9.6,43.7,9.6,45,9.6,46.4z M17.2,31.2c0.4-0.2,0.7-0.4,1-0.6c1.3-0.7,2.6-1.1,4.1-1c2.3,0.2,3.3,2.3,2,4.2
		c-0.1,0.1-0.2,0.2-0.2,0.4c2.2-0.4,4-1.6,5.1-3.5c1.4-2.3,1.2-4.7,0.1-7.1c-1.1-2.5-2.7-4.8-4.3-7c-0.6-0.8-1.3-1.7-2-2.5
		c-1.6,1.9-3.1,3.9-4.4,5.9c-0.9,1.5-1.8,3-2.4,4.7C15.6,27,15.9,29.1,17.2,31.2z M3.9,47.3c1.4,0,2.7,0,4.1,0c0-3.8,0-7.6,0-11.3
		c-1.4,0-2.7,0-4.1,0C3.9,39.8,3.9,43.5,3.9,47.3z M28.8,38.5c1.1,0.1,1.6,0,2.5-0.5c1.9-1.1,3.8-2.2,5.7-3.2
		c0.2-0.1,0.4-0.2,0.5-0.4c0.3-0.4,0.3-0.7-0.3-0.8c-0.9-0.2-1.7,0.1-2.4,0.6C32.8,35.6,30.8,37.1,28.8,38.5z"/>
	<path style="clip-path:url(#SVGID_00000163035682616657826190000003596397873863818427_);fill:#E31E24;" d="M37.7,11.9
		c0.5,0.9,0.9,1.7,1.3,2.6c0.4,0.9,0.6,1.7,0.9,2.7c1,0,2,0,3.1,0c0.8,0,1.1,0.3,1.1,1.1c0,1.9,0,3.8,0,5.7c0,0.8-0.3,1-1,1
		c-2.6,0-5.3,0-7.9,0c-0.7,0-1-0.3-1-1c0-1.4,0.1-2.8-0.1-4.2c-0.5-4.9-4.5-9-9.3-9.6c-5.7-0.7-10.9,2.9-12.1,8.6
		c-0.3,1.4-0.2,2.8-0.2,4.2c0,0.4,0,0.8,0,1.3c0,0.5-0.3,0.8-0.8,0.8c-2.8,0-5.6,0-8.4,0c-0.5,0-0.8-0.3-0.8-0.8c0-2.1,0-4.1,0-6.2
		c0-0.5,0.4-0.8,1-0.8c1,0,2.1,0,3.2,0c0.5-1.8,1.1-3.6,2.2-5.2c-0.7-0.7-1.4-1.4-2.1-2.2c-0.6-0.6-0.6-1,0-1.6
		c1.3-1.3,2.6-2.7,3.9-4c0.6-0.6,1-0.6,1.6,0c0.7,0.7,1.4,1.4,2.1,2.2c1.6-1,3.3-1.7,5.2-2.2c0-0.5,0-1,0-1.5c0-0.6,0-1.2,0-1.8
		C19.2,0.3,19.5,0,20,0c2.1,0,4.1,0,6.2,0C26.7,0,27,0.4,27,1c0,0.9,0,1.8,0,2.7c0,0.2,0,0.3,0,0.5c1.9,0.5,3.6,1.2,5.2,2.2
		c0.7-0.7,1.4-1.5,2.1-2.2c0.6-0.6,1-0.6,1.6,0c1.3,1.3,2.6,2.7,4,4c0.6,0.6,0.6,1,0,1.6C39.2,10.5,38.4,11.2,37.7,11.9z M10.5,23.4
		c0-0.7,0-1.4,0-2.1c0-0.8,0.1-1.5,0.2-2.2c1.2-7.6,8.8-12.3,16-10.1c5.3,1.6,8.9,6.5,8.9,12.1c0,0.8,0,1.5,0,2.3c2.2,0,4.4,0,6.6,0
		c0-1.5,0-3,0-4.5c-1,0-1.9,0-2.9,0c-0.8,0-1-0.2-1.1-0.9c-0.4-2-1.2-3.8-2.2-5.4c-0.4-0.6-0.4-0.9,0.1-1.4c0.7-0.7,1.4-1.4,2-2
		c-1.1-1.1-2.1-2.1-3.2-3.2c-0.7,0.7-1.4,1.4-2,2.1c-0.5,0.5-0.8,0.5-1.3,0.1c-1.6-1.1-3.4-1.9-5.4-2.3c-0.8-0.2-1-0.4-1-1.3
		c0-0.9,0-1.8,0-2.8c-1.5,0-3,0-4.5,0c0,1,0,2,0,3c0,0.7-0.2,0.9-0.8,1c-2,0.4-3.8,1.2-5.5,2.3c-0.6,0.4-0.9,0.4-1.4-0.2
		c-0.7-0.7-1.3-1.4-2-2C10.1,6.9,9,8,8,9.1c0.6,0.6,1.3,1.3,2,2c0.6,0.6,0.6,0.8,0.2,1.6C9,14.2,8.3,16,7.9,17.9
		c-0.2,0.8-0.4,0.9-1.2,0.9c-0.9,0-1.9,0-2.8,0c0,1.5,0,3,0,4.5C6.1,23.4,8.3,23.4,10.5,23.4z"/>
	<path style="clip-path:url(#SVGID_00000163035682616657826190000003596397873863818427_);fill:#E31E24;" d="M28.6,27
		c0,1-0.3,1.9-0.8,2.8c-0.3,0.6-0.8,0.7-1.2,0.5c-0.4-0.3-0.5-0.7-0.2-1.3c0.8-1.4,0.7-2.7-0.1-4.1c-0.3-0.5-0.3-1,0.1-1.3
		c0.4-0.3,0.9-0.2,1.3,0.4C28.3,24.8,28.6,25.9,28.6,27z"/>
</g>
</svg>
